%TF.GenerationSoftware,KiCad,Pcbnew,9.0.3*%
%TF.CreationDate,2025-08-23T20:27:24-03:00*%
%TF.ProjectId,Torq150A,546f7271-3135-4304-912e-6b696361645f,rev?*%
%TF.SameCoordinates,Original*%
%TF.FileFunction,Legend,Bot*%
%TF.FilePolarity,Positive*%
%FSLAX46Y46*%
G04 Gerber Fmt 4.6, Leading zero omitted, Abs format (unit mm)*
G04 Created by KiCad (PCBNEW 9.0.3) date 2025-08-23 20:27:24*
%MOMM*%
%LPD*%
G01*
G04 APERTURE LIST*
%ADD10C,0.000000*%
%ADD11C,0.180000*%
%ADD12C,0.400000*%
%ADD13C,0.700000*%
G04 APERTURE END LIST*
D10*
G36*
X159174648Y-78508521D02*
G01*
X159174648Y-79238770D01*
X159941939Y-79238770D01*
X160711876Y-79238770D01*
X160709227Y-78521753D01*
X160708649Y-78242453D01*
X160709320Y-78119546D01*
X160710550Y-78011770D01*
X160712276Y-77922101D01*
X160714437Y-77853516D01*
X160716969Y-77808991D01*
X160718355Y-77796682D01*
X160719811Y-77791504D01*
X160730139Y-77787932D01*
X160752079Y-77785127D01*
X160824157Y-77781665D01*
X160922777Y-77780807D01*
X161034667Y-77782244D01*
X161146556Y-77785665D01*
X161245175Y-77790760D01*
X161317253Y-77797220D01*
X161339192Y-77800864D01*
X161349520Y-77804733D01*
X161356838Y-77853940D01*
X161362916Y-77984567D01*
X161371350Y-78483389D01*
X161374823Y-79287805D01*
X161373336Y-80384421D01*
X161370690Y-81487732D01*
X161032021Y-81487732D01*
X160690709Y-81487732D01*
X160703939Y-80746899D01*
X160706461Y-80452633D01*
X160706254Y-80202519D01*
X160705205Y-80102236D01*
X160703567Y-80022850D01*
X160701370Y-79967649D01*
X160700073Y-79950145D01*
X160698647Y-79939919D01*
X160682772Y-79873774D01*
X159928710Y-79876419D01*
X159174648Y-79879064D01*
X159174648Y-80678105D01*
X159173738Y-80990684D01*
X159171339Y-81247950D01*
X159167949Y-81423360D01*
X159166038Y-81472076D01*
X159165055Y-81485234D01*
X159164064Y-81490374D01*
X159161335Y-81491365D01*
X159155254Y-81492349D01*
X159133761Y-81494261D01*
X159058562Y-81497651D01*
X158950123Y-81500049D01*
X158820104Y-81500958D01*
X158486730Y-81500958D01*
X158486730Y-79648874D01*
X158486730Y-77796793D01*
X158830690Y-77788856D01*
X159174648Y-77778272D01*
X159174648Y-78508521D01*
G37*
G36*
X175867208Y-78370936D02*
G01*
X176104259Y-78859671D01*
X176191747Y-79043360D01*
X176263422Y-79197097D01*
X176322943Y-79328758D01*
X176373968Y-79446218D01*
X176420156Y-79557354D01*
X176465166Y-79670040D01*
X176485800Y-79721328D01*
X176505721Y-79769299D01*
X176524464Y-79812867D01*
X176541564Y-79850947D01*
X176549352Y-79867590D01*
X176556555Y-79882454D01*
X176563115Y-79895403D01*
X176568973Y-79906303D01*
X176574072Y-79915016D01*
X176578353Y-79921408D01*
X176580168Y-79923691D01*
X176581758Y-79925342D01*
X176583114Y-79926346D01*
X176584229Y-79926684D01*
X176587806Y-79924306D01*
X176593500Y-79917331D01*
X176610770Y-79890552D01*
X176635110Y-79848271D01*
X176665589Y-79792409D01*
X176741244Y-79647633D01*
X176830292Y-79471602D01*
X177139813Y-78838711D01*
X177379633Y-78345470D01*
X177534621Y-78022389D01*
X177575574Y-77934193D01*
X177589646Y-77899978D01*
X177589860Y-77897752D01*
X177590493Y-77895069D01*
X177591529Y-77891967D01*
X177592953Y-77888486D01*
X177594748Y-77884663D01*
X177596900Y-77880538D01*
X177599394Y-77876149D01*
X177602212Y-77871536D01*
X177605341Y-77866736D01*
X177608764Y-77861790D01*
X177612467Y-77856734D01*
X177616433Y-77851609D01*
X177620647Y-77846453D01*
X177625093Y-77841305D01*
X177629757Y-77836203D01*
X177634623Y-77831187D01*
X177641783Y-77823676D01*
X177649614Y-77816986D01*
X177658476Y-77811072D01*
X177668730Y-77805886D01*
X177680735Y-77801383D01*
X177694852Y-77797515D01*
X177711442Y-77794236D01*
X177730866Y-77791500D01*
X177753482Y-77789260D01*
X177779653Y-77787469D01*
X177844099Y-77785051D01*
X177927086Y-77783872D01*
X178031498Y-77783562D01*
X178383394Y-77783562D01*
X178383394Y-79643584D01*
X178383399Y-81500958D01*
X178047379Y-81495668D01*
X177708710Y-81490377D01*
X177695482Y-80252126D01*
X177682253Y-79013876D01*
X177634626Y-79140876D01*
X177622074Y-79169685D01*
X177606638Y-79203673D01*
X177569473Y-79282097D01*
X177527843Y-79365978D01*
X177506826Y-79406787D01*
X177486460Y-79445147D01*
X177424242Y-79564250D01*
X177326057Y-79757024D01*
X177076355Y-80257416D01*
X177011884Y-80387016D01*
X176948529Y-80511872D01*
X176887902Y-80628976D01*
X176831616Y-80735321D01*
X176781283Y-80827900D01*
X176738515Y-80903704D01*
X176704926Y-80959726D01*
X176692076Y-80979379D01*
X176682126Y-80992959D01*
X176668581Y-81010643D01*
X176656613Y-81026037D01*
X176646064Y-81039205D01*
X176641272Y-81044976D01*
X176636775Y-81050216D01*
X176632553Y-81054932D01*
X176628586Y-81059133D01*
X176624855Y-81062827D01*
X176621339Y-81066023D01*
X176618019Y-81068729D01*
X176614875Y-81070952D01*
X176611887Y-81072702D01*
X176609035Y-81073986D01*
X176606299Y-81074813D01*
X176603660Y-81075191D01*
X176601097Y-81075128D01*
X176598591Y-81074632D01*
X176596122Y-81073712D01*
X176593670Y-81072376D01*
X176591214Y-81070632D01*
X176588737Y-81068488D01*
X176586216Y-81065952D01*
X176583633Y-81063034D01*
X176580967Y-81059740D01*
X176578200Y-81056080D01*
X176572278Y-81047693D01*
X176565709Y-81037937D01*
X176555369Y-81022961D01*
X176542517Y-81002466D01*
X176527618Y-80977382D01*
X176511139Y-80948639D01*
X176475296Y-80883900D01*
X176438707Y-80815687D01*
X176399392Y-80740363D01*
X176356356Y-80659582D01*
X176314808Y-80582771D01*
X176279958Y-80519354D01*
X176205415Y-80384226D01*
X176114717Y-80214711D01*
X175908549Y-79818539D01*
X175708829Y-79422863D01*
X175626194Y-79253969D01*
X175562937Y-79119708D01*
X175546313Y-79087421D01*
X175539526Y-79079292D01*
X175533626Y-79078698D01*
X175528518Y-79087281D01*
X175524103Y-79106686D01*
X175516966Y-79184531D01*
X175511442Y-79325380D01*
X175506755Y-79542380D01*
X175496792Y-80257416D01*
X175490507Y-80740819D01*
X175484222Y-81136164D01*
X175478930Y-81403021D01*
X175475623Y-81500958D01*
X175374942Y-81500374D01*
X175267471Y-81498767D01*
X175056591Y-81493351D01*
X174965398Y-81489976D01*
X174891847Y-81486447D01*
X174842047Y-81482979D01*
X174827961Y-81481336D01*
X174822104Y-81479790D01*
X174818218Y-81331126D01*
X174814828Y-80933423D01*
X174811521Y-79632997D01*
X174808875Y-77796790D01*
X175195166Y-77788853D01*
X175578812Y-77780915D01*
X175867208Y-78370936D01*
G37*
G36*
X181465790Y-79291687D02*
G01*
X181463807Y-80452877D01*
X181461327Y-80887496D01*
X181457854Y-81143770D01*
X181449920Y-81500955D01*
X180259295Y-81495664D01*
X179066025Y-81490374D01*
X179058086Y-81183458D01*
X179050147Y-80879187D01*
X179917981Y-80879187D01*
X180256525Y-80877782D01*
X180404975Y-80876118D01*
X180534792Y-80873896D01*
X180642408Y-80871178D01*
X180724258Y-80868026D01*
X180776776Y-80864502D01*
X180790922Y-80862620D01*
X180796398Y-80860668D01*
X180798016Y-80846002D01*
X180798920Y-80813291D01*
X180798714Y-80701918D01*
X180796026Y-80542920D01*
X180791106Y-80352669D01*
X180777877Y-79868480D01*
X180042336Y-79871125D01*
X179309440Y-79876416D01*
X179309440Y-79572145D01*
X179309440Y-79265229D01*
X180052918Y-79259937D01*
X180796396Y-79252000D01*
X180796396Y-78828666D01*
X180799042Y-78405333D01*
X180007937Y-78400041D01*
X179441397Y-78394088D01*
X179190374Y-78392104D01*
X179188901Y-78391764D01*
X179187461Y-78390752D01*
X179184679Y-78386745D01*
X179182038Y-78380157D01*
X179179543Y-78371061D01*
X179175027Y-78345642D01*
X179171192Y-78311076D01*
X179168102Y-78267952D01*
X179165818Y-78216859D01*
X179164402Y-78158387D01*
X179163916Y-78093125D01*
X179163916Y-77796791D01*
X180314853Y-77796791D01*
X181465790Y-77796791D01*
X181465790Y-79291687D01*
G37*
G36*
X185236103Y-79630352D02*
G01*
X185235193Y-80348862D01*
X185232795Y-80939379D01*
X185229405Y-81340389D01*
X185227493Y-81450604D01*
X185225519Y-81490374D01*
X185225519Y-81490371D01*
X185222790Y-81491362D01*
X185216704Y-81492345D01*
X185195176Y-81494258D01*
X185119687Y-81497648D01*
X185010463Y-81500046D01*
X184878916Y-81500955D01*
X184542894Y-81500955D01*
X184550832Y-80252123D01*
X184553313Y-79769218D01*
X184552816Y-79375361D01*
X184551452Y-79224461D01*
X184549344Y-79110984D01*
X184546491Y-79039986D01*
X184544786Y-79021995D01*
X184542894Y-79016520D01*
X184519903Y-79042389D01*
X184471581Y-79106892D01*
X184303777Y-79344604D01*
X184049157Y-79715268D01*
X183717394Y-80204500D01*
X183370129Y-80719445D01*
X183082395Y-81141125D01*
X182836332Y-81495668D01*
X182542646Y-81498313D01*
X182246311Y-81500958D01*
X182246311Y-79643584D01*
X182246311Y-77786209D01*
X182590270Y-77786209D01*
X182934227Y-77788854D01*
X182934227Y-79019162D01*
X182936088Y-79501365D01*
X182938274Y-79708980D01*
X182941174Y-79888319D01*
X182944693Y-80034915D01*
X182948740Y-80144303D01*
X182953220Y-80212020D01*
X182955594Y-80228856D01*
X182956810Y-80232775D01*
X182958042Y-80233600D01*
X182967344Y-80224343D01*
X182982975Y-80205060D01*
X183031008Y-80139715D01*
X183178637Y-79925031D01*
X183365458Y-79642381D01*
X183555999Y-79344600D01*
X183723471Y-79078198D01*
X183897641Y-78810803D01*
X184098104Y-78512651D01*
X184344457Y-78153976D01*
X184590519Y-77796788D01*
X184913311Y-77788851D01*
X185236103Y-77780914D01*
X185236103Y-79630352D01*
G37*
G36*
X173897384Y-80574918D02*
G01*
X174079450Y-81098628D01*
X174195040Y-81442751D01*
X174195043Y-81442751D01*
X174196997Y-81450232D01*
X174197653Y-81456838D01*
X174196642Y-81462621D01*
X174193596Y-81467638D01*
X174188147Y-81471941D01*
X174179928Y-81475585D01*
X174168568Y-81478625D01*
X174153702Y-81481115D01*
X174134959Y-81483108D01*
X174111973Y-81484659D01*
X174051796Y-81486654D01*
X173970225Y-81487532D01*
X173864315Y-81487729D01*
X173819373Y-81487605D01*
X173777756Y-81487233D01*
X173739380Y-81486613D01*
X173704158Y-81485745D01*
X173672006Y-81484629D01*
X173642839Y-81483265D01*
X173616570Y-81481653D01*
X173593115Y-81479792D01*
X173572389Y-81477684D01*
X173554306Y-81475328D01*
X173538781Y-81472723D01*
X173525729Y-81469871D01*
X173515064Y-81466770D01*
X173510600Y-81465127D01*
X173506701Y-81463422D01*
X173503356Y-81461654D01*
X173500555Y-81459825D01*
X173498287Y-81457933D01*
X173496541Y-81455980D01*
X173481029Y-81420069D01*
X173456276Y-81353743D01*
X173390709Y-81163945D01*
X173323157Y-80954801D01*
X173295923Y-80864290D01*
X173276937Y-80794522D01*
X173245189Y-80667520D01*
X172533461Y-80667520D01*
X172422568Y-80667588D01*
X172323603Y-80667815D01*
X172235910Y-80668235D01*
X172158828Y-80668884D01*
X172091698Y-80669797D01*
X172033863Y-80671008D01*
X171984663Y-80672553D01*
X171963096Y-80673461D01*
X171943440Y-80674465D01*
X171925613Y-80675571D01*
X171909533Y-80676781D01*
X171895118Y-80678101D01*
X171882285Y-80679535D01*
X171870953Y-80681087D01*
X171861037Y-80682761D01*
X171852457Y-80684563D01*
X171845130Y-80686496D01*
X171838973Y-80688564D01*
X171833904Y-80690772D01*
X171829841Y-80693125D01*
X171826702Y-80695627D01*
X171825453Y-80696935D01*
X171824403Y-80698282D01*
X171823544Y-80699668D01*
X171822864Y-80701094D01*
X171822000Y-80704068D01*
X171821730Y-80707208D01*
X171821486Y-80712097D01*
X171820764Y-80717791D01*
X171819585Y-80724230D01*
X171817968Y-80731351D01*
X171815933Y-80739092D01*
X171813498Y-80747391D01*
X171807508Y-80765416D01*
X171800154Y-80784928D01*
X171791590Y-80805433D01*
X171781971Y-80826434D01*
X171771453Y-80847435D01*
X171760006Y-80872354D01*
X171745863Y-80906388D01*
X171711591Y-80995602D01*
X171672855Y-81102676D01*
X171633870Y-81215207D01*
X171543911Y-81487729D01*
X171194661Y-81487729D01*
X170845415Y-81487729D01*
X170908916Y-81344853D01*
X170922838Y-81311998D01*
X170938434Y-81272011D01*
X170955146Y-81226443D01*
X170972416Y-81176844D01*
X170989686Y-81124765D01*
X171006398Y-81071755D01*
X171021993Y-81019365D01*
X171035915Y-80969146D01*
X171072583Y-80847479D01*
X171122895Y-80690341D01*
X171180650Y-80517824D01*
X171239644Y-80350020D01*
X171337493Y-80066918D01*
X172006939Y-80066918D01*
X172009623Y-80068869D01*
X172017496Y-80070751D01*
X172047742Y-80074275D01*
X172095538Y-80077427D01*
X172158743Y-80080145D01*
X172322826Y-80084031D01*
X172522875Y-80085437D01*
X172633922Y-80084951D01*
X172734087Y-80083535D01*
X172822159Y-80081251D01*
X172896930Y-80078161D01*
X172928950Y-80076333D01*
X172957190Y-80074326D01*
X172981501Y-80072150D01*
X173001731Y-80069810D01*
X173017728Y-80067315D01*
X173029342Y-80064673D01*
X173033458Y-80063300D01*
X173036421Y-80061892D01*
X173038213Y-80060451D01*
X173038814Y-80058979D01*
X173038111Y-80050075D01*
X173035672Y-80038349D01*
X173031001Y-80022469D01*
X173023600Y-80001101D01*
X173012976Y-79972912D01*
X172998630Y-79936568D01*
X172956792Y-79834083D01*
X172837731Y-79503354D01*
X172744135Y-79234471D01*
X172695228Y-79096681D01*
X172652523Y-78979479D01*
X172634974Y-78927126D01*
X172618293Y-78874183D01*
X172602852Y-78822047D01*
X172589023Y-78772112D01*
X172577179Y-78725774D01*
X172567691Y-78684427D01*
X172560932Y-78649468D01*
X172558692Y-78634820D01*
X172557274Y-78622292D01*
X172553812Y-78591131D01*
X172551449Y-78580980D01*
X172548427Y-78574915D01*
X172546614Y-78573523D01*
X172544568Y-78573283D01*
X172542269Y-78574239D01*
X172539694Y-78576434D01*
X172533626Y-78584716D01*
X172526186Y-78598479D01*
X172517195Y-78618071D01*
X172506476Y-78643841D01*
X172479140Y-78715309D01*
X172395879Y-78947729D01*
X172330641Y-79130994D01*
X172266893Y-79306570D01*
X172212076Y-79454861D01*
X172173629Y-79556270D01*
X172146714Y-79627590D01*
X172118560Y-79705637D01*
X172090654Y-79785978D01*
X172064485Y-79864180D01*
X172041541Y-79935809D01*
X172023310Y-79996431D01*
X172011279Y-80041611D01*
X172008055Y-80057026D01*
X172006939Y-80066918D01*
X171337493Y-80066918D01*
X171357384Y-80009369D01*
X171410797Y-79851446D01*
X171451311Y-79728249D01*
X171486080Y-79619646D01*
X171527049Y-79498393D01*
X171568514Y-79379620D01*
X171604769Y-79278458D01*
X171805977Y-78746645D01*
X171956335Y-78353739D01*
X172060556Y-78087833D01*
X172096839Y-77998784D01*
X172123354Y-77937020D01*
X172192144Y-77783562D01*
X172514934Y-77783562D01*
X172840374Y-77783562D01*
X172903875Y-77937020D01*
X173015702Y-78216198D01*
X173189293Y-78662310D01*
X173560039Y-79635645D01*
X173705395Y-80033348D01*
X173714481Y-80058979D01*
X173897384Y-80574918D01*
G37*
G36*
X186691311Y-79630355D02*
G01*
X186691311Y-81487729D01*
X186373812Y-81487729D01*
X186056311Y-81487729D01*
X186051020Y-81389834D01*
X186043082Y-79537751D01*
X186040436Y-77786209D01*
X186365874Y-77778272D01*
X186691311Y-77770335D01*
X186691311Y-79630355D01*
G37*
G36*
X170975060Y-78101062D02*
G01*
X170975060Y-78418562D01*
X170464412Y-78423854D01*
X169956414Y-78431791D01*
X169951125Y-78603771D01*
X169945833Y-80138354D01*
X169943187Y-81500958D01*
X169620400Y-81495668D01*
X169294960Y-81493022D01*
X169289669Y-79974313D01*
X169281731Y-78439729D01*
X169279077Y-78437716D01*
X169271292Y-78435661D01*
X169241382Y-78431501D01*
X169194108Y-78427403D01*
X169131579Y-78423522D01*
X168969190Y-78417032D01*
X168771084Y-78413270D01*
X168263085Y-78405333D01*
X168255147Y-78095770D01*
X168247207Y-77783562D01*
X169612456Y-77783562D01*
X170975060Y-77783562D01*
X170975060Y-78101062D01*
G37*
G36*
X200330369Y-76132918D02*
G01*
X200328797Y-76184152D01*
X200325106Y-76235320D01*
X200319335Y-76286347D01*
X200311522Y-76337159D01*
X200301706Y-76387680D01*
X200289924Y-76437836D01*
X200276214Y-76487550D01*
X200260616Y-76536749D01*
X200243167Y-76585356D01*
X200223906Y-76633298D01*
X200202870Y-76680498D01*
X200180099Y-76726882D01*
X200155630Y-76772374D01*
X200129502Y-76816900D01*
X200101753Y-76860385D01*
X200072421Y-76902752D01*
X200041544Y-76943928D01*
X200009162Y-76983837D01*
X199975311Y-77022404D01*
X199940031Y-77059554D01*
X199903359Y-77095212D01*
X199865335Y-77129302D01*
X199825995Y-77161750D01*
X199785379Y-77192481D01*
X199743524Y-77221420D01*
X199700470Y-77248490D01*
X199656254Y-77273618D01*
X199610914Y-77296728D01*
X199417769Y-77389332D01*
X199417769Y-79638291D01*
X199417769Y-79757353D01*
X199417769Y-82122728D01*
X199515665Y-82167707D01*
X199570094Y-82193764D01*
X199622309Y-82221379D01*
X199672394Y-82250621D01*
X199720428Y-82281562D01*
X199766493Y-82314269D01*
X199810670Y-82348814D01*
X199853042Y-82385265D01*
X199893688Y-82423693D01*
X199932692Y-82464167D01*
X199970133Y-82506758D01*
X200006094Y-82551534D01*
X200040656Y-82598566D01*
X200073900Y-82647923D01*
X200105908Y-82699676D01*
X200136761Y-82753893D01*
X200166540Y-82810645D01*
X200201700Y-82883416D01*
X200216095Y-82914301D01*
X200228552Y-82942358D01*
X200239210Y-82968213D01*
X200248209Y-82992494D01*
X200255689Y-83015830D01*
X200261790Y-83038848D01*
X200266650Y-83062176D01*
X200270409Y-83086443D01*
X200273208Y-83112274D01*
X200275184Y-83140300D01*
X200276479Y-83171147D01*
X200277231Y-83205443D01*
X200277665Y-83286896D01*
X200277403Y-83310594D01*
X200277063Y-83341482D01*
X200275205Y-83393313D01*
X200272014Y-83442671D01*
X200267412Y-83489839D01*
X200261322Y-83535101D01*
X200253666Y-83578738D01*
X200244367Y-83621034D01*
X200233347Y-83662273D01*
X200220529Y-83702736D01*
X200205835Y-83742707D01*
X200189187Y-83782468D01*
X200170509Y-83822304D01*
X200149722Y-83862496D01*
X200126749Y-83903327D01*
X200101513Y-83945081D01*
X200073936Y-83988041D01*
X200040735Y-84034654D01*
X200003914Y-84081022D01*
X199963884Y-84126841D01*
X199921056Y-84171803D01*
X199875841Y-84215602D01*
X199828649Y-84257932D01*
X199779891Y-84298487D01*
X199729978Y-84336961D01*
X199679321Y-84373047D01*
X199628330Y-84406439D01*
X199577417Y-84436832D01*
X199526993Y-84463919D01*
X199477467Y-84487394D01*
X199429252Y-84506950D01*
X199382757Y-84522281D01*
X199338394Y-84533082D01*
X199338394Y-84533085D01*
X199304953Y-84538576D01*
X199268435Y-84543147D01*
X199229296Y-84546812D01*
X199187995Y-84549581D01*
X199100735Y-84552481D01*
X199010311Y-84551938D01*
X198920384Y-84548047D01*
X198834611Y-84540900D01*
X198794426Y-84536134D01*
X198756652Y-84530590D01*
X198721746Y-84524278D01*
X198690165Y-84517211D01*
X198648045Y-84505171D01*
X198606956Y-84491837D01*
X198566812Y-84477155D01*
X198527529Y-84461069D01*
X198489021Y-84443526D01*
X198451203Y-84424471D01*
X198413990Y-84403851D01*
X198377295Y-84381610D01*
X198341035Y-84357696D01*
X198305124Y-84332053D01*
X198269476Y-84304626D01*
X198234007Y-84275363D01*
X198198631Y-84244209D01*
X198163262Y-84211109D01*
X198127816Y-84176009D01*
X198092207Y-84138856D01*
X198058700Y-84102041D01*
X198027554Y-84065847D01*
X197998649Y-84030025D01*
X197971863Y-83994327D01*
X197947077Y-83958505D01*
X197924171Y-83922311D01*
X197903024Y-83885497D01*
X197883517Y-83847814D01*
X197865529Y-83809016D01*
X197848940Y-83768853D01*
X197833630Y-83727078D01*
X197819479Y-83683442D01*
X197806367Y-83637698D01*
X197794173Y-83589598D01*
X197782778Y-83538893D01*
X197772061Y-83485336D01*
X197764992Y-83439461D01*
X197760130Y-83393170D01*
X197757432Y-83346546D01*
X197757370Y-83341481D01*
X198573866Y-83341481D01*
X198574038Y-83360440D01*
X198574815Y-83377958D01*
X198576255Y-83394263D01*
X198578416Y-83409583D01*
X198581355Y-83424147D01*
X198585132Y-83438184D01*
X198589805Y-83451923D01*
X198595430Y-83465592D01*
X198602067Y-83479420D01*
X198609774Y-83493636D01*
X198618609Y-83508468D01*
X198628630Y-83524145D01*
X198639895Y-83540895D01*
X198647603Y-83552355D01*
X198655801Y-83563869D01*
X198664416Y-83575369D01*
X198673381Y-83586782D01*
X198682624Y-83598041D01*
X198692077Y-83609075D01*
X198701670Y-83619815D01*
X198711332Y-83630190D01*
X198720994Y-83640131D01*
X198730587Y-83649569D01*
X198740039Y-83658432D01*
X198749283Y-83666653D01*
X198758248Y-83674160D01*
X198766863Y-83680885D01*
X198775061Y-83686756D01*
X198782769Y-83691706D01*
X198782770Y-83691709D01*
X198790632Y-83696170D01*
X198799281Y-83700608D01*
X198808635Y-83704999D01*
X198818613Y-83709320D01*
X198829134Y-83713549D01*
X198840115Y-83717661D01*
X198863137Y-83725443D01*
X198887027Y-83732481D01*
X198911134Y-83738589D01*
X198934807Y-83743581D01*
X198946278Y-83745600D01*
X198957395Y-83747271D01*
X198991764Y-83750322D01*
X199025382Y-83751091D01*
X199058196Y-83749653D01*
X199090152Y-83746083D01*
X199121198Y-83740454D01*
X199151279Y-83732842D01*
X199180343Y-83723322D01*
X199208336Y-83711967D01*
X199235205Y-83698852D01*
X199260897Y-83684052D01*
X199285359Y-83667643D01*
X199308537Y-83649697D01*
X199330377Y-83630290D01*
X199350827Y-83609497D01*
X199369834Y-83587391D01*
X199387343Y-83564048D01*
X199403302Y-83539543D01*
X199417658Y-83513949D01*
X199430357Y-83487342D01*
X199441345Y-83459796D01*
X199450570Y-83431386D01*
X199457978Y-83402186D01*
X199463517Y-83372271D01*
X199467132Y-83341715D01*
X199468770Y-83310594D01*
X199468378Y-83278981D01*
X199465904Y-83246952D01*
X199461292Y-83214581D01*
X199454491Y-83181942D01*
X199445447Y-83149110D01*
X199434106Y-83116160D01*
X199420416Y-83083167D01*
X199408826Y-83059276D01*
X199396779Y-83037149D01*
X199384127Y-83016689D01*
X199370724Y-82997798D01*
X199356421Y-82980380D01*
X199341072Y-82964337D01*
X199324529Y-82949574D01*
X199306645Y-82935993D01*
X199287273Y-82923497D01*
X199266265Y-82911989D01*
X199243474Y-82901373D01*
X199218754Y-82891551D01*
X199191956Y-82882427D01*
X199162933Y-82873904D01*
X199131538Y-82865884D01*
X199097624Y-82858272D01*
X199074478Y-82853658D01*
X199053472Y-82849761D01*
X199034325Y-82846615D01*
X199016761Y-82844257D01*
X199000498Y-82842720D01*
X198985258Y-82842040D01*
X198970763Y-82842251D01*
X198956733Y-82843389D01*
X198942889Y-82845487D01*
X198928952Y-82848582D01*
X198914643Y-82852708D01*
X198899682Y-82857899D01*
X198883792Y-82864191D01*
X198866692Y-82871619D01*
X198848104Y-82880217D01*
X198827749Y-82890021D01*
X198796730Y-82905636D01*
X198768114Y-82921806D01*
X198741824Y-82938651D01*
X198717781Y-82956290D01*
X198695909Y-82974844D01*
X198676130Y-82994432D01*
X198658366Y-83015176D01*
X198642541Y-83037195D01*
X198628575Y-83060609D01*
X198616392Y-83085538D01*
X198605915Y-83112103D01*
X198597065Y-83140424D01*
X198589766Y-83170620D01*
X198583939Y-83202813D01*
X198579508Y-83237121D01*
X198576395Y-83273666D01*
X198575102Y-83298323D01*
X198574240Y-83320851D01*
X198573866Y-83341481D01*
X197757370Y-83341481D01*
X197756858Y-83299668D01*
X197758364Y-83252617D01*
X197761910Y-83205475D01*
X197767454Y-83158322D01*
X197774955Y-83111240D01*
X197784370Y-83064308D01*
X197795658Y-83017609D01*
X197808777Y-82971223D01*
X197823686Y-82925230D01*
X197840342Y-82879713D01*
X197858705Y-82834751D01*
X197878733Y-82790425D01*
X197900384Y-82746818D01*
X197923616Y-82704008D01*
X197948387Y-82662078D01*
X197974657Y-82621108D01*
X198002383Y-82581179D01*
X198031523Y-82542372D01*
X198062037Y-82504768D01*
X198093881Y-82468448D01*
X198127016Y-82433493D01*
X198161398Y-82399984D01*
X198196987Y-82368001D01*
X198233740Y-82337625D01*
X198271617Y-82308938D01*
X198310575Y-82282020D01*
X198350572Y-82256952D01*
X198391567Y-82233815D01*
X198433519Y-82212690D01*
X198594915Y-82135961D01*
X198597561Y-81143773D01*
X198600000Y-80750000D01*
X198603183Y-80410548D01*
X198606863Y-80161882D01*
X198608811Y-80082987D01*
X198610790Y-80040463D01*
X198611434Y-80030030D01*
X198611881Y-80020068D01*
X198612133Y-80010581D01*
X198612196Y-80001576D01*
X198612072Y-79993057D01*
X198611767Y-79985029D01*
X198611283Y-79977499D01*
X198610625Y-79970471D01*
X198609796Y-79963951D01*
X198608800Y-79957944D01*
X198607642Y-79952455D01*
X198606325Y-79947490D01*
X198604853Y-79943054D01*
X198603230Y-79939153D01*
X198601459Y-79935791D01*
X198599545Y-79932974D01*
X198597492Y-79930707D01*
X198595302Y-79928997D01*
X198592982Y-79927847D01*
X198590533Y-79927264D01*
X198587960Y-79927252D01*
X198585267Y-79927817D01*
X198582458Y-79928965D01*
X198579536Y-79930700D01*
X198576506Y-79933028D01*
X198573371Y-79935955D01*
X198570135Y-79939485D01*
X198566803Y-79943624D01*
X198563377Y-79948378D01*
X198559863Y-79953751D01*
X198556263Y-79959749D01*
X198552582Y-79966378D01*
X198513468Y-80014225D01*
X198412311Y-80123929D01*
X197990012Y-80564006D01*
X196028457Y-82572523D01*
X195128543Y-83495258D01*
X194815880Y-83817471D01*
X194655270Y-83985399D01*
X194560438Y-84086132D01*
X194519156Y-84126454D01*
X194478536Y-84160727D01*
X194436010Y-84189434D01*
X194389007Y-84213059D01*
X194334958Y-84232089D01*
X194271293Y-84247006D01*
X194195443Y-84258295D01*
X194104838Y-84266441D01*
X193996909Y-84271929D01*
X193869085Y-84275242D01*
X193543477Y-84277283D01*
X193107457Y-84276441D01*
X192684134Y-84275382D01*
X192513249Y-84274308D01*
X192366541Y-84272431D01*
X192301548Y-84271089D01*
X192241754Y-84269423D01*
X192186876Y-84267391D01*
X192136633Y-84264953D01*
X192090742Y-84262068D01*
X192048921Y-84258693D01*
X192010889Y-84254789D01*
X191976364Y-84250313D01*
X191945063Y-84245225D01*
X191916704Y-84239484D01*
X191891007Y-84233047D01*
X191867688Y-84225875D01*
X191846466Y-84217926D01*
X191827059Y-84209158D01*
X191809184Y-84199531D01*
X191792561Y-84189004D01*
X191776906Y-84177534D01*
X191761939Y-84165082D01*
X191747376Y-84151606D01*
X191732937Y-84137064D01*
X191718338Y-84121415D01*
X191703299Y-84104619D01*
X191670770Y-84067419D01*
X191647851Y-84039927D01*
X191626695Y-84011939D01*
X191607268Y-83983331D01*
X191589535Y-83953979D01*
X191573460Y-83923759D01*
X191559010Y-83892546D01*
X191546148Y-83860218D01*
X191534841Y-83826649D01*
X191525053Y-83791715D01*
X191516749Y-83755294D01*
X191509895Y-83717260D01*
X191504455Y-83677490D01*
X191500395Y-83635859D01*
X191497680Y-83592245D01*
X191496275Y-83546521D01*
X191496145Y-83498565D01*
X191497154Y-83441519D01*
X191499747Y-83389584D01*
X191504767Y-83341487D01*
X191513053Y-83295951D01*
X191525449Y-83251702D01*
X191542793Y-83207465D01*
X191565928Y-83161965D01*
X191595694Y-83113926D01*
X191632933Y-83062073D01*
X191678485Y-83005131D01*
X191733191Y-82941826D01*
X191797893Y-82870881D01*
X191960648Y-82700974D01*
X192173478Y-82485209D01*
X192941364Y-81712006D01*
X193555058Y-81091848D01*
X194030528Y-80608115D01*
X194383741Y-80244189D01*
X194519492Y-80101960D01*
X194630667Y-79983451D01*
X194719262Y-79886583D01*
X194787273Y-79809280D01*
X194836695Y-79749465D01*
X194869526Y-79705059D01*
X194880343Y-79687986D01*
X194887761Y-79673986D01*
X194892028Y-79662800D01*
X194893395Y-79654168D01*
X194892632Y-79649257D01*
X194890393Y-79642535D01*
X194886750Y-79634116D01*
X194881778Y-79624112D01*
X194868141Y-79599798D01*
X194850070Y-79570492D01*
X194828154Y-79537094D01*
X194802982Y-79500502D01*
X194775144Y-79461615D01*
X194745229Y-79421333D01*
X194682230Y-79342123D01*
X194581559Y-79228187D01*
X194201840Y-78828666D01*
X193475352Y-78087833D01*
X192271374Y-76870750D01*
X192134209Y-76730888D01*
X192004516Y-76597195D01*
X191885304Y-76472867D01*
X191779579Y-76361096D01*
X191690349Y-76265076D01*
X191620623Y-76188001D01*
X191573406Y-76133063D01*
X191559179Y-76114895D01*
X191551707Y-76103458D01*
X191541202Y-76078982D01*
X191531538Y-76050526D01*
X191522750Y-76018574D01*
X191514872Y-75983610D01*
X191507941Y-75946120D01*
X191501989Y-75906587D01*
X191497054Y-75865496D01*
X191493168Y-75823331D01*
X191492107Y-75807123D01*
X192459227Y-75807123D01*
X192459959Y-75808846D01*
X192462101Y-75811981D01*
X192470307Y-75822171D01*
X192483226Y-75837075D01*
X192500238Y-75856071D01*
X192544060Y-75903861D01*
X192596811Y-75960581D01*
X192666430Y-76034044D01*
X192752916Y-76127599D01*
X192845355Y-76229588D01*
X192932833Y-76328352D01*
X193094104Y-76502688D01*
X193387585Y-76810225D01*
X193771852Y-77207555D01*
X194205479Y-77651269D01*
X194634589Y-78088901D01*
X194967892Y-78430756D01*
X195102549Y-78570098D01*
X195217975Y-78690693D01*
X195315743Y-78794274D01*
X195397426Y-78882573D01*
X195464599Y-78957322D01*
X195518835Y-79020255D01*
X195541593Y-79047831D01*
X195561707Y-79073102D01*
X195579373Y-79096286D01*
X195594789Y-79117597D01*
X195608150Y-79137255D01*
X195619654Y-79155473D01*
X195629498Y-79172470D01*
X195637877Y-79188462D01*
X195644989Y-79203664D01*
X195651030Y-79218295D01*
X195656197Y-79232570D01*
X195660687Y-79246706D01*
X195669433Y-79282840D01*
X195676826Y-79326924D01*
X195682877Y-79377727D01*
X195687600Y-79434023D01*
X195691005Y-79494582D01*
X195693104Y-79558176D01*
X195693429Y-79689552D01*
X195688670Y-79818325D01*
X195684412Y-79878663D01*
X195678918Y-79934664D01*
X195672200Y-79985100D01*
X195664268Y-80028741D01*
X195655135Y-80064360D01*
X195644812Y-80090727D01*
X195638186Y-80101814D01*
X195627397Y-80117036D01*
X195594293Y-80158817D01*
X195547423Y-80213930D01*
X195488708Y-80280237D01*
X195420071Y-80355597D01*
X195343435Y-80437871D01*
X195260722Y-80524919D01*
X195173854Y-80614604D01*
X194692973Y-81109706D01*
X194136687Y-81686166D01*
X193554934Y-82295037D01*
X193006916Y-82866207D01*
X192639145Y-83255145D01*
X192526945Y-83375200D01*
X192496363Y-83408810D01*
X192488400Y-83418034D01*
X192485688Y-83421829D01*
X192500574Y-83423803D01*
X192543274Y-83425716D01*
X192700330Y-83429106D01*
X192933287Y-83431503D01*
X193218582Y-83432412D01*
X193411149Y-83432020D01*
X193571967Y-83430759D01*
X193703763Y-83428505D01*
X193759630Y-83426968D01*
X193809265Y-83425136D01*
X193853010Y-83422994D01*
X193891204Y-83420526D01*
X193924189Y-83417717D01*
X193952306Y-83414552D01*
X193975896Y-83411015D01*
X193995301Y-83407090D01*
X194010860Y-83402762D01*
X194022916Y-83398015D01*
X194032577Y-83391701D01*
X194046502Y-83380864D01*
X194086086Y-83346628D01*
X194139561Y-83297323D01*
X194204818Y-83234965D01*
X194279748Y-83161569D01*
X194362245Y-83079151D01*
X194450198Y-82989725D01*
X194541500Y-82895308D01*
X194759574Y-82665865D01*
X195026018Y-82389293D01*
X195568083Y-81831684D01*
X196080713Y-81305825D01*
X196494125Y-80879184D01*
X197271999Y-80080144D01*
X197705916Y-79638291D01*
X197578916Y-79498060D01*
X197320948Y-79227855D01*
X196880416Y-78773103D01*
X196383330Y-78265103D01*
X195991416Y-77860290D01*
X194954249Y-76791373D01*
X194670194Y-76496652D01*
X194430043Y-76245339D01*
X194258850Y-76063976D01*
X194206941Y-76007819D01*
X194181665Y-75979102D01*
X194175229Y-75971921D01*
X194167878Y-75964317D01*
X194159690Y-75956365D01*
X194150743Y-75948137D01*
X194141113Y-75939708D01*
X194130878Y-75931151D01*
X194120117Y-75922540D01*
X194108905Y-75913948D01*
X194097322Y-75905449D01*
X194085444Y-75897117D01*
X194073350Y-75889025D01*
X194061115Y-75881247D01*
X194048819Y-75873857D01*
X194036538Y-75866927D01*
X194024350Y-75860533D01*
X194012333Y-75854748D01*
X193973048Y-75837167D01*
X193931221Y-75823742D01*
X193906854Y-75818413D01*
X193878852Y-75813913D01*
X193807942Y-75807123D01*
X193710490Y-75802813D01*
X193578498Y-75800426D01*
X193178894Y-75799186D01*
X192899015Y-75800054D01*
X192670233Y-75802162D01*
X192515865Y-75804767D01*
X192473873Y-75806022D01*
X192459227Y-75807123D01*
X191492107Y-75807123D01*
X191490368Y-75780577D01*
X191488688Y-75737719D01*
X191488163Y-75695240D01*
X191488828Y-75653626D01*
X191490717Y-75613360D01*
X191493866Y-75574928D01*
X191498309Y-75538813D01*
X191504082Y-75505500D01*
X191512905Y-75469957D01*
X191523440Y-75434843D01*
X191535603Y-75400280D01*
X191549309Y-75366387D01*
X191564472Y-75333285D01*
X191581008Y-75301094D01*
X191598829Y-75269934D01*
X191617853Y-75239925D01*
X191637992Y-75211187D01*
X191659163Y-75183840D01*
X191681279Y-75158005D01*
X191704256Y-75133802D01*
X191728008Y-75111351D01*
X191752449Y-75090771D01*
X191777496Y-75072184D01*
X191790219Y-75063675D01*
X191803061Y-75055709D01*
X191916832Y-74992208D01*
X193067769Y-74984271D01*
X193402199Y-74982819D01*
X193669035Y-74982576D01*
X193876837Y-74983759D01*
X193961274Y-74984954D01*
X194034161Y-74986586D01*
X194096568Y-74988683D01*
X194149564Y-74991273D01*
X194194221Y-74994382D01*
X194231606Y-74998037D01*
X194262790Y-75002266D01*
X194288843Y-75007096D01*
X194310834Y-75012554D01*
X194329833Y-75018667D01*
X194354284Y-75030901D01*
X194386046Y-75051801D01*
X194471963Y-75120035D01*
X194588514Y-75224235D01*
X194736629Y-75365270D01*
X194917238Y-75544009D01*
X195131272Y-75761319D01*
X195663332Y-76315125D01*
X195888435Y-76548041D01*
X196259637Y-76926312D01*
X197234957Y-77910562D01*
X197718111Y-78398181D01*
X198115688Y-78801216D01*
X198385770Y-79077747D01*
X198459900Y-79155473D01*
X198479445Y-79176909D01*
X198486436Y-79185854D01*
X198487671Y-79188919D01*
X198489376Y-79192143D01*
X198491522Y-79195498D01*
X198494084Y-79198959D01*
X198497032Y-79202497D01*
X198500342Y-79206085D01*
X198503984Y-79209696D01*
X198507933Y-79213304D01*
X198512161Y-79216881D01*
X198516640Y-79220399D01*
X198521345Y-79223833D01*
X198526247Y-79227154D01*
X198531320Y-79230335D01*
X198536536Y-79233350D01*
X198541868Y-79236170D01*
X198547290Y-79238770D01*
X198563883Y-79244806D01*
X198570596Y-79243049D01*
X198576352Y-79236455D01*
X198581225Y-79223784D01*
X198585287Y-79203795D01*
X198591276Y-79136905D01*
X198594909Y-79025863D01*
X198596775Y-78860746D01*
X198597560Y-78328603D01*
X198597560Y-77389332D01*
X198457331Y-77320541D01*
X198368198Y-77272311D01*
X198284386Y-77219953D01*
X198205946Y-77163557D01*
X198132927Y-77103211D01*
X198065382Y-77039005D01*
X198003359Y-76971028D01*
X197946910Y-76899369D01*
X197896084Y-76824117D01*
X197850932Y-76745361D01*
X197811505Y-76663191D01*
X197777853Y-76577696D01*
X197750026Y-76488964D01*
X197728074Y-76397085D01*
X197712049Y-76302149D01*
X197701999Y-76204243D01*
X197699940Y-76152658D01*
X198494368Y-76152658D01*
X198494373Y-76175020D01*
X198494875Y-76195816D01*
X198495903Y-76215229D01*
X198497489Y-76233441D01*
X198499665Y-76250633D01*
X198502461Y-76266988D01*
X198505907Y-76282688D01*
X198510036Y-76297915D01*
X198514878Y-76312851D01*
X198520465Y-76327679D01*
X198526826Y-76342581D01*
X198533994Y-76357738D01*
X198541998Y-76373333D01*
X198555279Y-76397997D01*
X198570234Y-76422312D01*
X198586740Y-76446178D01*
X198604672Y-76469493D01*
X198623906Y-76492157D01*
X198644318Y-76514069D01*
X198665784Y-76535129D01*
X198688181Y-76555235D01*
X198711383Y-76574287D01*
X198735268Y-76592184D01*
X198759711Y-76608825D01*
X198784588Y-76624109D01*
X198809775Y-76637937D01*
X198835148Y-76650206D01*
X198860584Y-76660816D01*
X198885957Y-76669667D01*
X198885956Y-76669669D01*
X198920864Y-76679026D01*
X198954257Y-76686236D01*
X198986293Y-76691260D01*
X199017132Y-76694060D01*
X199032151Y-76694613D01*
X199046931Y-76694596D01*
X199061492Y-76694003D01*
X199075852Y-76692830D01*
X199090031Y-76691071D01*
X199104051Y-76688723D01*
X199117930Y-76685779D01*
X199131688Y-76682236D01*
X199145345Y-76678088D01*
X199158922Y-76673331D01*
X199172438Y-76667959D01*
X199185912Y-76661968D01*
X199199365Y-76655354D01*
X199212817Y-76648110D01*
X199239795Y-76631717D01*
X199267006Y-76612750D01*
X199294608Y-76591172D01*
X199322761Y-76566942D01*
X199351623Y-76540022D01*
X199366667Y-76524667D01*
X199381036Y-76508403D01*
X199407718Y-76473349D01*
X199431601Y-76435273D01*
X199452619Y-76394584D01*
X199470708Y-76351694D01*
X199485801Y-76307013D01*
X199497832Y-76260953D01*
X199506735Y-76213923D01*
X199512444Y-76166336D01*
X199514895Y-76118601D01*
X199514019Y-76071130D01*
X199509753Y-76024333D01*
X199502029Y-75978621D01*
X199490782Y-75934405D01*
X199475947Y-75892097D01*
X199467162Y-75871786D01*
X199457456Y-75852106D01*
X199447684Y-75834985D01*
X199436331Y-75817461D01*
X199423551Y-75799690D01*
X199409501Y-75781825D01*
X199394334Y-75764023D01*
X199378205Y-75746437D01*
X199361271Y-75729224D01*
X199343685Y-75712537D01*
X199325604Y-75696533D01*
X199307181Y-75681366D01*
X199288573Y-75667191D01*
X199269933Y-75654164D01*
X199251417Y-75642438D01*
X199233181Y-75632170D01*
X199215378Y-75623514D01*
X199198165Y-75616626D01*
X199175294Y-75608870D01*
X199149640Y-75602451D01*
X199121646Y-75597342D01*
X199091752Y-75593516D01*
X199060401Y-75590946D01*
X199028035Y-75589604D01*
X198995095Y-75589464D01*
X198962024Y-75590498D01*
X198929262Y-75592679D01*
X198897252Y-75595981D01*
X198866437Y-75600375D01*
X198837256Y-75605835D01*
X198810153Y-75612334D01*
X198785570Y-75619845D01*
X198763947Y-75628340D01*
X198745727Y-75637792D01*
X198737462Y-75642740D01*
X198728596Y-75648603D01*
X198719211Y-75655303D01*
X198709388Y-75662763D01*
X198699209Y-75670904D01*
X198688754Y-75679651D01*
X198678105Y-75688924D01*
X198667344Y-75698647D01*
X198656552Y-75708742D01*
X198645811Y-75719131D01*
X198635201Y-75729738D01*
X198624804Y-75740484D01*
X198614702Y-75751292D01*
X198604976Y-75762084D01*
X198595707Y-75772784D01*
X198586977Y-75783313D01*
X198574282Y-75799139D01*
X198562927Y-75814050D01*
X198552828Y-75828310D01*
X198543900Y-75842183D01*
X198536057Y-75855931D01*
X198529213Y-75869819D01*
X198523285Y-75884110D01*
X198518186Y-75899068D01*
X198513830Y-75914956D01*
X198510134Y-75932038D01*
X198507012Y-75950577D01*
X198504378Y-75970836D01*
X198502146Y-75993081D01*
X198500233Y-76017573D01*
X198497019Y-76074355D01*
X198495722Y-76102507D01*
X198494828Y-76128547D01*
X198494368Y-76152658D01*
X197699940Y-76152658D01*
X197697977Y-76103458D01*
X197698954Y-76048122D01*
X197702353Y-75993273D01*
X197708129Y-75938966D01*
X197716239Y-75885254D01*
X197726640Y-75832192D01*
X197739288Y-75779832D01*
X197754140Y-75728230D01*
X197771151Y-75677437D01*
X197790278Y-75627509D01*
X197811478Y-75578500D01*
X197834706Y-75530462D01*
X197859920Y-75483449D01*
X197887076Y-75437516D01*
X197916130Y-75392716D01*
X197947039Y-75349104D01*
X197979758Y-75306731D01*
X198014245Y-75265654D01*
X198050455Y-75225924D01*
X198088346Y-75187597D01*
X198127873Y-75150725D01*
X198168993Y-75115363D01*
X198211662Y-75081565D01*
X198255837Y-75049383D01*
X198301475Y-75018873D01*
X198348530Y-74990087D01*
X198396961Y-74963080D01*
X198446723Y-74937905D01*
X198497773Y-74914616D01*
X198550067Y-74893267D01*
X198603561Y-74873911D01*
X198658212Y-74856603D01*
X198713977Y-74841395D01*
X198779187Y-74825613D01*
X198807791Y-74819245D01*
X198834321Y-74813862D01*
X198859223Y-74809439D01*
X198882943Y-74805955D01*
X198905927Y-74803385D01*
X198928620Y-74801707D01*
X198951468Y-74800897D01*
X198974917Y-74800932D01*
X198999412Y-74801789D01*
X199025400Y-74803443D01*
X199053325Y-74805874D01*
X199083634Y-74809056D01*
X199153185Y-74817582D01*
X199207452Y-74826372D01*
X199261079Y-74837329D01*
X199314012Y-74850404D01*
X199366201Y-74865548D01*
X199417593Y-74882711D01*
X199468137Y-74901844D01*
X199517781Y-74922898D01*
X199566473Y-74945822D01*
X199614161Y-74970568D01*
X199660793Y-74997086D01*
X199750684Y-75055242D01*
X199835729Y-75119893D01*
X199915516Y-75190644D01*
X199989628Y-75267101D01*
X200057652Y-75348867D01*
X200119172Y-75435548D01*
X200147364Y-75480608D01*
X200173774Y-75526748D01*
X200198351Y-75573919D01*
X200221043Y-75622072D01*
X200241798Y-75671157D01*
X200260564Y-75721124D01*
X200277290Y-75771925D01*
X200291924Y-75823509D01*
X200304413Y-75875828D01*
X200314706Y-75928832D01*
X200321991Y-75979576D01*
X200327004Y-76030555D01*
X200329784Y-76081694D01*
X200330205Y-76118601D01*
X200330369Y-76132918D01*
G37*
G36*
X189816038Y-77775625D02*
G01*
X190133538Y-77778270D01*
X190136874Y-79532977D01*
X190136139Y-80680556D01*
X190132527Y-81496090D01*
X189495894Y-81487729D01*
X189495894Y-80876542D01*
X189495894Y-80265355D01*
X189387417Y-80135708D01*
X189376424Y-80122480D01*
X189365326Y-80109627D01*
X189354204Y-80097216D01*
X189343141Y-80085313D01*
X189332217Y-80073983D01*
X189321514Y-80063293D01*
X189311114Y-80053309D01*
X189301097Y-80044095D01*
X189291545Y-80035719D01*
X189282540Y-80028246D01*
X189274162Y-80021742D01*
X189266494Y-80016273D01*
X189259616Y-80011905D01*
X189253611Y-80008703D01*
X189250961Y-80007560D01*
X189248559Y-80006733D01*
X189246416Y-80006231D01*
X189244542Y-80006062D01*
X189240157Y-80007313D01*
X189234025Y-80010987D01*
X189226258Y-80016963D01*
X189216967Y-80025120D01*
X189194265Y-80047501D01*
X189166820Y-80077168D01*
X189135530Y-80113161D01*
X189101294Y-80154517D01*
X189065012Y-80200277D01*
X189027583Y-80249478D01*
X188660597Y-80742472D01*
X188369762Y-81129549D01*
X188173681Y-81386153D01*
X188116987Y-81457854D01*
X188099994Y-81478212D01*
X188090957Y-81487729D01*
X188083592Y-81489994D01*
X188067879Y-81491837D01*
X188013980Y-81494302D01*
X187934409Y-81495216D01*
X187834311Y-81494673D01*
X187593127Y-81489588D01*
X187331603Y-81479790D01*
X187188727Y-81474499D01*
X187238999Y-81416292D01*
X187267276Y-81381193D01*
X187308452Y-81327987D01*
X187332016Y-81296686D01*
X187356572Y-81263371D01*
X187381377Y-81228877D01*
X187405686Y-81194042D01*
X187462861Y-81117891D01*
X187529710Y-81031323D01*
X187598046Y-80944754D01*
X187659686Y-80868603D01*
X187951358Y-80514847D01*
X188190258Y-80223847D01*
X188380665Y-79990145D01*
X188526858Y-79808286D01*
X188584711Y-79735091D01*
X188633115Y-79672811D01*
X188672605Y-79620762D01*
X188703715Y-79578264D01*
X188726981Y-79544633D01*
X188742938Y-79519187D01*
X188752119Y-79501245D01*
X188754337Y-79494875D01*
X188755061Y-79490125D01*
X188754206Y-79486671D01*
X188751697Y-79481350D01*
X188747614Y-79474277D01*
X188742039Y-79465568D01*
X188726737Y-79443709D01*
X188706444Y-79416703D01*
X188681810Y-79385481D01*
X188653486Y-79350971D01*
X188622124Y-79314105D01*
X188588374Y-79275813D01*
X188133291Y-78746646D01*
X188019892Y-78613114D01*
X187924600Y-78501906D01*
X187857586Y-78424432D01*
X187829020Y-78392104D01*
X187812029Y-78373252D01*
X187776434Y-78332572D01*
X187670269Y-78209541D01*
X187638830Y-78172520D01*
X187604785Y-78133639D01*
X187569253Y-78094014D01*
X187533348Y-78054760D01*
X187498187Y-78016995D01*
X187464887Y-77981834D01*
X187434563Y-77950394D01*
X187408332Y-77923791D01*
X187289269Y-77810021D01*
X187741706Y-77810021D01*
X188191497Y-77810021D01*
X188466665Y-78148687D01*
X189048748Y-78868354D01*
X189175210Y-79022681D01*
X189288526Y-79158404D01*
X189336456Y-79214716D01*
X189376541Y-79260889D01*
X189407263Y-79295093D01*
X189418638Y-79307136D01*
X189427102Y-79315500D01*
X189495893Y-79379001D01*
X189495893Y-78574667D01*
X189495893Y-77770333D01*
X189816038Y-77775625D01*
G37*
G36*
X166588271Y-77788854D02*
G01*
X167760375Y-77796791D01*
X167768316Y-78921271D01*
X167770423Y-79415174D01*
X167769306Y-79927680D01*
X167765708Y-80398018D01*
X167760372Y-80765415D01*
X167741854Y-81487729D01*
X166545937Y-81493019D01*
X166545937Y-81493022D01*
X166081719Y-81495626D01*
X165699603Y-81495998D01*
X165439031Y-81494882D01*
X165339440Y-81493022D01*
X165337983Y-81490475D01*
X165336592Y-81484924D01*
X165334023Y-81465447D01*
X165331764Y-81435862D01*
X165329847Y-81397440D01*
X165327161Y-81299173D01*
X165326210Y-81180813D01*
X165326210Y-80879187D01*
X166199334Y-80873897D01*
X167069814Y-80865958D01*
X167061876Y-80376479D01*
X167060657Y-80277838D01*
X167059065Y-80185647D01*
X167055262Y-80028550D01*
X167051458Y-79921063D01*
X167049867Y-79890884D01*
X167048647Y-79879061D01*
X166987667Y-79877118D01*
X166828710Y-79875424D01*
X166313103Y-79873770D01*
X166029957Y-79872861D01*
X165796173Y-79870462D01*
X165636307Y-79867072D01*
X165591767Y-79865160D01*
X165579689Y-79864177D01*
X165574917Y-79863186D01*
X165573957Y-79860671D01*
X165573066Y-79855213D01*
X165571526Y-79836108D01*
X165570359Y-79807144D01*
X165569625Y-79769590D01*
X165569707Y-79673802D01*
X165570648Y-79618111D01*
X165572271Y-79558915D01*
X165580208Y-79265229D01*
X166321044Y-79265229D01*
X167059230Y-79265229D01*
X167053939Y-78836604D01*
X167046001Y-78405333D01*
X166231084Y-78397396D01*
X165418813Y-78392104D01*
X165418813Y-78087833D01*
X165418813Y-77783562D01*
X166588271Y-77788854D01*
G37*
G36*
X163302698Y-77740496D02*
G01*
X163386076Y-77746498D01*
X163469710Y-77756438D01*
X163553502Y-77770332D01*
X163623942Y-77785122D01*
X163692861Y-77802679D01*
X163760225Y-77822961D01*
X163826002Y-77845929D01*
X163890160Y-77871542D01*
X163952664Y-77899760D01*
X164013482Y-77930543D01*
X164072582Y-77963850D01*
X164129929Y-77999641D01*
X164185492Y-78037877D01*
X164291132Y-78121520D01*
X164389237Y-78214457D01*
X164479544Y-78316366D01*
X164561790Y-78426926D01*
X164635710Y-78545814D01*
X164701042Y-78672710D01*
X164757522Y-78807292D01*
X164804886Y-78949237D01*
X164842870Y-79098225D01*
X164871212Y-79253933D01*
X164889647Y-79416040D01*
X164897338Y-79545272D01*
X164899575Y-79671027D01*
X164896362Y-79793302D01*
X164887705Y-79912093D01*
X164873606Y-80027396D01*
X164854069Y-80139206D01*
X164829098Y-80247521D01*
X164798698Y-80352335D01*
X164762871Y-80453646D01*
X164721622Y-80551450D01*
X164674955Y-80645742D01*
X164622874Y-80736519D01*
X164565382Y-80823776D01*
X164502483Y-80907511D01*
X164434182Y-80987719D01*
X164360482Y-81064395D01*
X164304704Y-81117509D01*
X164248499Y-81167712D01*
X164191876Y-81215008D01*
X164134842Y-81259402D01*
X164077405Y-81300896D01*
X164019573Y-81339495D01*
X163961353Y-81375203D01*
X163902753Y-81408023D01*
X163843781Y-81437960D01*
X163784444Y-81465017D01*
X163724751Y-81489199D01*
X163664709Y-81510508D01*
X163604326Y-81528949D01*
X163543610Y-81544526D01*
X163482568Y-81557243D01*
X163421209Y-81567103D01*
X163421212Y-81567100D01*
X163344984Y-81577389D01*
X163310213Y-81581314D01*
X163277221Y-81584422D01*
X163245670Y-81586708D01*
X163215225Y-81588168D01*
X163185546Y-81588799D01*
X163156298Y-81588597D01*
X163127143Y-81587558D01*
X163097744Y-81585678D01*
X163067763Y-81582952D01*
X163036864Y-81579378D01*
X163004709Y-81574952D01*
X162970961Y-81569668D01*
X162897338Y-81556517D01*
X162837619Y-81543585D01*
X162778513Y-81528596D01*
X162720012Y-81511537D01*
X162662107Y-81492396D01*
X162604791Y-81471163D01*
X162548057Y-81447825D01*
X162491896Y-81422372D01*
X162436301Y-81394790D01*
X162381265Y-81365069D01*
X162326778Y-81333197D01*
X162272834Y-81299162D01*
X162219425Y-81262953D01*
X162166543Y-81224558D01*
X162114180Y-81183965D01*
X162062329Y-81141164D01*
X162010982Y-81096141D01*
X161894567Y-80990307D01*
X162069188Y-80775996D01*
X162104039Y-80731890D01*
X162136658Y-80689551D01*
X162166299Y-80650003D01*
X162192220Y-80614268D01*
X162213676Y-80583371D01*
X162222497Y-80570055D01*
X162229923Y-80558333D01*
X162235860Y-80548332D01*
X162240216Y-80540179D01*
X162242898Y-80534003D01*
X162243582Y-80531696D01*
X162243813Y-80529932D01*
X162243959Y-80528350D01*
X162244392Y-80527073D01*
X162245106Y-80526097D01*
X162246092Y-80525416D01*
X162247343Y-80525025D01*
X162248853Y-80524921D01*
X162250614Y-80525097D01*
X162252618Y-80525550D01*
X162257329Y-80527264D01*
X162262927Y-80530025D01*
X162269355Y-80533794D01*
X162276554Y-80538531D01*
X162284466Y-80544199D01*
X162293033Y-80550758D01*
X162302198Y-80558169D01*
X162311900Y-80566395D01*
X162322084Y-80575396D01*
X162332690Y-80585133D01*
X162343660Y-80595568D01*
X162354937Y-80606662D01*
X162399224Y-80646818D01*
X162444813Y-80683954D01*
X162491767Y-80718091D01*
X162540147Y-80749248D01*
X162590015Y-80777443D01*
X162641433Y-80802697D01*
X162694463Y-80825028D01*
X162749168Y-80844457D01*
X162805609Y-80861001D01*
X162863848Y-80874682D01*
X162923948Y-80885518D01*
X162985970Y-80893528D01*
X163049976Y-80898733D01*
X163116029Y-80901150D01*
X163184190Y-80900801D01*
X163254522Y-80897703D01*
X163325406Y-80891686D01*
X163393221Y-80882557D01*
X163425987Y-80876821D01*
X163457997Y-80870303D01*
X163489256Y-80863002D01*
X163519766Y-80854915D01*
X163549532Y-80846041D01*
X163578558Y-80836379D01*
X163606848Y-80825927D01*
X163634405Y-80814684D01*
X163661233Y-80802649D01*
X163687337Y-80789820D01*
X163712719Y-80776195D01*
X163737385Y-80761773D01*
X163761338Y-80746553D01*
X163784581Y-80730533D01*
X163807119Y-80713711D01*
X163828956Y-80696087D01*
X163850095Y-80677659D01*
X163870540Y-80658425D01*
X163890295Y-80638383D01*
X163909364Y-80617534D01*
X163927751Y-80595874D01*
X163945460Y-80573403D01*
X163962495Y-80550119D01*
X163978859Y-80526020D01*
X163994557Y-80501106D01*
X164009591Y-80475374D01*
X164023967Y-80448824D01*
X164037688Y-80421453D01*
X164075604Y-80339774D01*
X164091238Y-80304193D01*
X164104868Y-80271054D01*
X164116653Y-80239559D01*
X164126753Y-80208908D01*
X164135325Y-80178304D01*
X164142529Y-80146948D01*
X164148524Y-80114042D01*
X164153469Y-80078787D01*
X164157522Y-80040385D01*
X164160843Y-79998037D01*
X164165922Y-79898312D01*
X164169979Y-79773224D01*
X164171829Y-79693849D01*
X164172377Y-79619187D01*
X164171560Y-79548866D01*
X164169317Y-79482513D01*
X164165586Y-79419758D01*
X164160305Y-79360226D01*
X164153411Y-79303548D01*
X164144843Y-79249349D01*
X164134539Y-79197260D01*
X164122436Y-79146906D01*
X164108474Y-79097917D01*
X164092588Y-79049920D01*
X164074719Y-79002543D01*
X164054803Y-78955414D01*
X164032778Y-78908161D01*
X164008584Y-78860412D01*
X163990431Y-78827006D01*
X163971635Y-78795197D01*
X163952111Y-78764906D01*
X163931772Y-78736058D01*
X163910535Y-78708574D01*
X163888313Y-78682377D01*
X163865021Y-78657389D01*
X163840574Y-78633532D01*
X163814887Y-78610730D01*
X163787874Y-78588904D01*
X163759451Y-78567978D01*
X163729532Y-78547873D01*
X163698032Y-78528513D01*
X163664865Y-78509819D01*
X163629946Y-78491714D01*
X163593190Y-78474121D01*
X163548521Y-78453693D01*
X163527821Y-78445175D01*
X163507696Y-78437699D01*
X163487756Y-78431201D01*
X163467615Y-78425612D01*
X163446885Y-78420869D01*
X163425178Y-78416905D01*
X163402107Y-78413654D01*
X163377284Y-78411050D01*
X163350322Y-78409028D01*
X163320833Y-78407521D01*
X163252724Y-78405790D01*
X163169857Y-78405330D01*
X163084926Y-78405800D01*
X163048788Y-78406498D01*
X163016274Y-78407603D01*
X162986938Y-78409189D01*
X162960334Y-78411329D01*
X162936017Y-78414097D01*
X162913541Y-78417566D01*
X162892460Y-78421811D01*
X162872329Y-78426904D01*
X162852701Y-78432920D01*
X162833132Y-78439932D01*
X162813175Y-78448013D01*
X162792385Y-78457238D01*
X162770317Y-78467680D01*
X162746523Y-78479413D01*
X162730671Y-78487366D01*
X162713966Y-78496280D01*
X162678557Y-78516620D01*
X162641412Y-78539688D01*
X162603646Y-78564741D01*
X162566377Y-78591034D01*
X162530720Y-78617823D01*
X162513845Y-78631171D01*
X162497792Y-78644364D01*
X162482700Y-78657309D01*
X162468709Y-78669913D01*
X162455856Y-78682150D01*
X162443146Y-78694015D01*
X162430660Y-78705446D01*
X162418481Y-78716381D01*
X162406689Y-78726757D01*
X162395366Y-78736514D01*
X162384594Y-78745588D01*
X162374453Y-78753918D01*
X162365025Y-78761443D01*
X162356392Y-78768099D01*
X162348634Y-78773824D01*
X162341834Y-78778558D01*
X162336073Y-78782237D01*
X162331432Y-78784801D01*
X162329557Y-78785644D01*
X162327992Y-78786186D01*
X162326748Y-78786417D01*
X162325835Y-78786331D01*
X162323311Y-78785080D01*
X162318792Y-78781411D01*
X162304213Y-78767314D01*
X162283000Y-78745031D01*
X162256051Y-78715555D01*
X162224264Y-78679877D01*
X162188540Y-78638991D01*
X162108876Y-78545560D01*
X161905150Y-78304790D01*
X161989815Y-78235999D01*
X162006496Y-78222051D01*
X162022556Y-78208259D01*
X162037625Y-78195024D01*
X162051329Y-78182751D01*
X162063297Y-78171842D01*
X162073157Y-78162701D01*
X162080537Y-78155730D01*
X162085064Y-78151332D01*
X162087496Y-78148770D01*
X162091751Y-78145095D01*
X162105321Y-78134671D01*
X162124968Y-78120589D01*
X162149886Y-78103376D01*
X162212311Y-78061663D01*
X162286147Y-78013748D01*
X162357383Y-77969971D01*
X162430134Y-77929929D01*
X162504303Y-77893639D01*
X162579794Y-77861117D01*
X162656510Y-77832377D01*
X162734354Y-77807435D01*
X162813228Y-77786307D01*
X162893036Y-77769008D01*
X162973682Y-77755555D01*
X163055068Y-77745961D01*
X163137097Y-77740243D01*
X163219672Y-77738416D01*
X163302698Y-77740496D01*
G37*
D11*
X200048245Y-94715384D02*
X200048245Y-93315384D01*
X200048245Y-93315384D02*
X199581579Y-94315384D01*
X199581579Y-94315384D02*
X199114912Y-93315384D01*
X199114912Y-93315384D02*
X199114912Y-94715384D01*
X198514912Y-94315384D02*
X197848245Y-94315384D01*
X198648245Y-94715384D02*
X198181579Y-93315384D01*
X198181579Y-93315384D02*
X197714912Y-94715384D01*
X197381579Y-93315384D02*
X196448245Y-94715384D01*
X196448245Y-93315384D02*
X197381579Y-94715384D01*
X194648245Y-93915384D02*
X194781579Y-93848718D01*
X194781579Y-93848718D02*
X194848245Y-93782051D01*
X194848245Y-93782051D02*
X194914912Y-93648718D01*
X194914912Y-93648718D02*
X194914912Y-93582051D01*
X194914912Y-93582051D02*
X194848245Y-93448718D01*
X194848245Y-93448718D02*
X194781579Y-93382051D01*
X194781579Y-93382051D02*
X194648245Y-93315384D01*
X194648245Y-93315384D02*
X194381579Y-93315384D01*
X194381579Y-93315384D02*
X194248245Y-93382051D01*
X194248245Y-93382051D02*
X194181579Y-93448718D01*
X194181579Y-93448718D02*
X194114912Y-93582051D01*
X194114912Y-93582051D02*
X194114912Y-93648718D01*
X194114912Y-93648718D02*
X194181579Y-93782051D01*
X194181579Y-93782051D02*
X194248245Y-93848718D01*
X194248245Y-93848718D02*
X194381579Y-93915384D01*
X194381579Y-93915384D02*
X194648245Y-93915384D01*
X194648245Y-93915384D02*
X194781579Y-93982051D01*
X194781579Y-93982051D02*
X194848245Y-94048718D01*
X194848245Y-94048718D02*
X194914912Y-94182051D01*
X194914912Y-94182051D02*
X194914912Y-94448718D01*
X194914912Y-94448718D02*
X194848245Y-94582051D01*
X194848245Y-94582051D02*
X194781579Y-94648718D01*
X194781579Y-94648718D02*
X194648245Y-94715384D01*
X194648245Y-94715384D02*
X194381579Y-94715384D01*
X194381579Y-94715384D02*
X194248245Y-94648718D01*
X194248245Y-94648718D02*
X194181579Y-94582051D01*
X194181579Y-94582051D02*
X194114912Y-94448718D01*
X194114912Y-94448718D02*
X194114912Y-94182051D01*
X194114912Y-94182051D02*
X194181579Y-94048718D01*
X194181579Y-94048718D02*
X194248245Y-93982051D01*
X194248245Y-93982051D02*
X194381579Y-93915384D01*
X192914912Y-93782051D02*
X192914912Y-94715384D01*
X193248246Y-93248718D02*
X193581579Y-94248718D01*
X193581579Y-94248718D02*
X192714912Y-94248718D01*
X192381579Y-93315384D02*
X191914913Y-94715384D01*
X191914913Y-94715384D02*
X191448246Y-93315384D01*
X189981579Y-93448718D02*
X189914912Y-93382051D01*
X189914912Y-93382051D02*
X189781579Y-93315384D01*
X189781579Y-93315384D02*
X189448246Y-93315384D01*
X189448246Y-93315384D02*
X189314912Y-93382051D01*
X189314912Y-93382051D02*
X189248246Y-93448718D01*
X189248246Y-93448718D02*
X189181579Y-93582051D01*
X189181579Y-93582051D02*
X189181579Y-93715384D01*
X189181579Y-93715384D02*
X189248246Y-93915384D01*
X189248246Y-93915384D02*
X190048246Y-94715384D01*
X190048246Y-94715384D02*
X189181579Y-94715384D01*
X188314913Y-93315384D02*
X188181579Y-93315384D01*
X188181579Y-93315384D02*
X188048246Y-93382051D01*
X188048246Y-93382051D02*
X187981579Y-93448718D01*
X187981579Y-93448718D02*
X187914913Y-93582051D01*
X187914913Y-93582051D02*
X187848246Y-93848718D01*
X187848246Y-93848718D02*
X187848246Y-94182051D01*
X187848246Y-94182051D02*
X187914913Y-94448718D01*
X187914913Y-94448718D02*
X187981579Y-94582051D01*
X187981579Y-94582051D02*
X188048246Y-94648718D01*
X188048246Y-94648718D02*
X188181579Y-94715384D01*
X188181579Y-94715384D02*
X188314913Y-94715384D01*
X188314913Y-94715384D02*
X188448246Y-94648718D01*
X188448246Y-94648718D02*
X188514913Y-94582051D01*
X188514913Y-94582051D02*
X188581579Y-94448718D01*
X188581579Y-94448718D02*
X188648246Y-94182051D01*
X188648246Y-94182051D02*
X188648246Y-93848718D01*
X188648246Y-93848718D02*
X188581579Y-93582051D01*
X188581579Y-93582051D02*
X188514913Y-93448718D01*
X188514913Y-93448718D02*
X188448246Y-93382051D01*
X188448246Y-93382051D02*
X188314913Y-93315384D01*
X187314913Y-94648718D02*
X187114913Y-94715384D01*
X187114913Y-94715384D02*
X186781580Y-94715384D01*
X186781580Y-94715384D02*
X186648246Y-94648718D01*
X186648246Y-94648718D02*
X186581580Y-94582051D01*
X186581580Y-94582051D02*
X186514913Y-94448718D01*
X186514913Y-94448718D02*
X186514913Y-94315384D01*
X186514913Y-94315384D02*
X186581580Y-94182051D01*
X186581580Y-94182051D02*
X186648246Y-94115384D01*
X186648246Y-94115384D02*
X186781580Y-94048718D01*
X186781580Y-94048718D02*
X187048246Y-93982051D01*
X187048246Y-93982051D02*
X187181580Y-93915384D01*
X187181580Y-93915384D02*
X187248246Y-93848718D01*
X187248246Y-93848718D02*
X187314913Y-93715384D01*
X187314913Y-93715384D02*
X187314913Y-93582051D01*
X187314913Y-93582051D02*
X187248246Y-93448718D01*
X187248246Y-93448718D02*
X187181580Y-93382051D01*
X187181580Y-93382051D02*
X187048246Y-93315384D01*
X187048246Y-93315384D02*
X186714913Y-93315384D01*
X186714913Y-93315384D02*
X186514913Y-93382051D01*
X184114913Y-94715384D02*
X184914913Y-94715384D01*
X184514913Y-94715384D02*
X184514913Y-93315384D01*
X184514913Y-93315384D02*
X184648246Y-93515384D01*
X184648246Y-93515384D02*
X184781580Y-93648718D01*
X184781580Y-93648718D02*
X184914913Y-93715384D01*
X182848247Y-93315384D02*
X183514913Y-93315384D01*
X183514913Y-93315384D02*
X183581580Y-93982051D01*
X183581580Y-93982051D02*
X183514913Y-93915384D01*
X183514913Y-93915384D02*
X183381580Y-93848718D01*
X183381580Y-93848718D02*
X183048247Y-93848718D01*
X183048247Y-93848718D02*
X182914913Y-93915384D01*
X182914913Y-93915384D02*
X182848247Y-93982051D01*
X182848247Y-93982051D02*
X182781580Y-94115384D01*
X182781580Y-94115384D02*
X182781580Y-94448718D01*
X182781580Y-94448718D02*
X182848247Y-94582051D01*
X182848247Y-94582051D02*
X182914913Y-94648718D01*
X182914913Y-94648718D02*
X183048247Y-94715384D01*
X183048247Y-94715384D02*
X183381580Y-94715384D01*
X183381580Y-94715384D02*
X183514913Y-94648718D01*
X183514913Y-94648718D02*
X183581580Y-94582051D01*
X181914914Y-93315384D02*
X181781580Y-93315384D01*
X181781580Y-93315384D02*
X181648247Y-93382051D01*
X181648247Y-93382051D02*
X181581580Y-93448718D01*
X181581580Y-93448718D02*
X181514914Y-93582051D01*
X181514914Y-93582051D02*
X181448247Y-93848718D01*
X181448247Y-93848718D02*
X181448247Y-94182051D01*
X181448247Y-94182051D02*
X181514914Y-94448718D01*
X181514914Y-94448718D02*
X181581580Y-94582051D01*
X181581580Y-94582051D02*
X181648247Y-94648718D01*
X181648247Y-94648718D02*
X181781580Y-94715384D01*
X181781580Y-94715384D02*
X181914914Y-94715384D01*
X181914914Y-94715384D02*
X182048247Y-94648718D01*
X182048247Y-94648718D02*
X182114914Y-94582051D01*
X182114914Y-94582051D02*
X182181580Y-94448718D01*
X182181580Y-94448718D02*
X182248247Y-94182051D01*
X182248247Y-94182051D02*
X182248247Y-93848718D01*
X182248247Y-93848718D02*
X182181580Y-93582051D01*
X182181580Y-93582051D02*
X182114914Y-93448718D01*
X182114914Y-93448718D02*
X182048247Y-93382051D01*
X182048247Y-93382051D02*
X181914914Y-93315384D01*
X180914914Y-94315384D02*
X180248247Y-94315384D01*
X181048247Y-94715384D02*
X180581581Y-93315384D01*
X180581581Y-93315384D02*
X180114914Y-94715384D01*
X178114914Y-93982051D02*
X177914914Y-94048718D01*
X177914914Y-94048718D02*
X177848247Y-94115384D01*
X177848247Y-94115384D02*
X177781580Y-94248718D01*
X177781580Y-94248718D02*
X177781580Y-94448718D01*
X177781580Y-94448718D02*
X177848247Y-94582051D01*
X177848247Y-94582051D02*
X177914914Y-94648718D01*
X177914914Y-94648718D02*
X178048247Y-94715384D01*
X178048247Y-94715384D02*
X178581580Y-94715384D01*
X178581580Y-94715384D02*
X178581580Y-93315384D01*
X178581580Y-93315384D02*
X178114914Y-93315384D01*
X178114914Y-93315384D02*
X177981580Y-93382051D01*
X177981580Y-93382051D02*
X177914914Y-93448718D01*
X177914914Y-93448718D02*
X177848247Y-93582051D01*
X177848247Y-93582051D02*
X177848247Y-93715384D01*
X177848247Y-93715384D02*
X177914914Y-93848718D01*
X177914914Y-93848718D02*
X177981580Y-93915384D01*
X177981580Y-93915384D02*
X178114914Y-93982051D01*
X178114914Y-93982051D02*
X178581580Y-93982051D01*
X176381580Y-94715384D02*
X176848247Y-94048718D01*
X177181580Y-94715384D02*
X177181580Y-93315384D01*
X177181580Y-93315384D02*
X176648247Y-93315384D01*
X176648247Y-93315384D02*
X176514914Y-93382051D01*
X176514914Y-93382051D02*
X176448247Y-93448718D01*
X176448247Y-93448718D02*
X176381580Y-93582051D01*
X176381580Y-93582051D02*
X176381580Y-93782051D01*
X176381580Y-93782051D02*
X176448247Y-93915384D01*
X176448247Y-93915384D02*
X176514914Y-93982051D01*
X176514914Y-93982051D02*
X176648247Y-94048718D01*
X176648247Y-94048718D02*
X177181580Y-94048718D01*
X175781580Y-93315384D02*
X175781580Y-94448718D01*
X175781580Y-94448718D02*
X175714914Y-94582051D01*
X175714914Y-94582051D02*
X175648247Y-94648718D01*
X175648247Y-94648718D02*
X175514914Y-94715384D01*
X175514914Y-94715384D02*
X175248247Y-94715384D01*
X175248247Y-94715384D02*
X175114914Y-94648718D01*
X175114914Y-94648718D02*
X175048247Y-94582051D01*
X175048247Y-94582051D02*
X174981580Y-94448718D01*
X174981580Y-94448718D02*
X174981580Y-93315384D01*
X174381580Y-94648718D02*
X174181580Y-94715384D01*
X174181580Y-94715384D02*
X173848247Y-94715384D01*
X173848247Y-94715384D02*
X173714913Y-94648718D01*
X173714913Y-94648718D02*
X173648247Y-94582051D01*
X173648247Y-94582051D02*
X173581580Y-94448718D01*
X173581580Y-94448718D02*
X173581580Y-94315384D01*
X173581580Y-94315384D02*
X173648247Y-94182051D01*
X173648247Y-94182051D02*
X173714913Y-94115384D01*
X173714913Y-94115384D02*
X173848247Y-94048718D01*
X173848247Y-94048718D02*
X174114913Y-93982051D01*
X174114913Y-93982051D02*
X174248247Y-93915384D01*
X174248247Y-93915384D02*
X174314913Y-93848718D01*
X174314913Y-93848718D02*
X174381580Y-93715384D01*
X174381580Y-93715384D02*
X174381580Y-93582051D01*
X174381580Y-93582051D02*
X174314913Y-93448718D01*
X174314913Y-93448718D02*
X174248247Y-93382051D01*
X174248247Y-93382051D02*
X174114913Y-93315384D01*
X174114913Y-93315384D02*
X173781580Y-93315384D01*
X173781580Y-93315384D02*
X173581580Y-93382051D01*
X172981580Y-94715384D02*
X172981580Y-93315384D01*
X172981580Y-93982051D02*
X172181580Y-93982051D01*
X172181580Y-94715384D02*
X172181580Y-93315384D01*
X170848247Y-94715384D02*
X171514913Y-94715384D01*
X171514913Y-94715384D02*
X171514913Y-93315384D01*
X170381580Y-93982051D02*
X169914914Y-93982051D01*
X169714914Y-94715384D02*
X170381580Y-94715384D01*
X170381580Y-94715384D02*
X170381580Y-93315384D01*
X170381580Y-93315384D02*
X169714914Y-93315384D01*
X169181580Y-94648718D02*
X168981580Y-94715384D01*
X168981580Y-94715384D02*
X168648247Y-94715384D01*
X168648247Y-94715384D02*
X168514913Y-94648718D01*
X168514913Y-94648718D02*
X168448247Y-94582051D01*
X168448247Y-94582051D02*
X168381580Y-94448718D01*
X168381580Y-94448718D02*
X168381580Y-94315384D01*
X168381580Y-94315384D02*
X168448247Y-94182051D01*
X168448247Y-94182051D02*
X168514913Y-94115384D01*
X168514913Y-94115384D02*
X168648247Y-94048718D01*
X168648247Y-94048718D02*
X168914913Y-93982051D01*
X168914913Y-93982051D02*
X169048247Y-93915384D01*
X169048247Y-93915384D02*
X169114913Y-93848718D01*
X169114913Y-93848718D02*
X169181580Y-93715384D01*
X169181580Y-93715384D02*
X169181580Y-93582051D01*
X169181580Y-93582051D02*
X169114913Y-93448718D01*
X169114913Y-93448718D02*
X169048247Y-93382051D01*
X169048247Y-93382051D02*
X168914913Y-93315384D01*
X168914913Y-93315384D02*
X168581580Y-93315384D01*
X168581580Y-93315384D02*
X168381580Y-93382051D01*
X167848247Y-94648718D02*
X167648247Y-94715384D01*
X167648247Y-94715384D02*
X167314914Y-94715384D01*
X167314914Y-94715384D02*
X167181580Y-94648718D01*
X167181580Y-94648718D02*
X167114914Y-94582051D01*
X167114914Y-94582051D02*
X167048247Y-94448718D01*
X167048247Y-94448718D02*
X167048247Y-94315384D01*
X167048247Y-94315384D02*
X167114914Y-94182051D01*
X167114914Y-94182051D02*
X167181580Y-94115384D01*
X167181580Y-94115384D02*
X167314914Y-94048718D01*
X167314914Y-94048718D02*
X167581580Y-93982051D01*
X167581580Y-93982051D02*
X167714914Y-93915384D01*
X167714914Y-93915384D02*
X167781580Y-93848718D01*
X167781580Y-93848718D02*
X167848247Y-93715384D01*
X167848247Y-93715384D02*
X167848247Y-93582051D01*
X167848247Y-93582051D02*
X167781580Y-93448718D01*
X167781580Y-93448718D02*
X167714914Y-93382051D01*
X167714914Y-93382051D02*
X167581580Y-93315384D01*
X167581580Y-93315384D02*
X167248247Y-93315384D01*
X167248247Y-93315384D02*
X167048247Y-93382051D01*
X200048245Y-96969306D02*
X200048245Y-95569306D01*
X200048245Y-95569306D02*
X199714912Y-95569306D01*
X199714912Y-95569306D02*
X199514912Y-95635973D01*
X199514912Y-95635973D02*
X199381579Y-95769306D01*
X199381579Y-95769306D02*
X199314912Y-95902640D01*
X199314912Y-95902640D02*
X199248245Y-96169306D01*
X199248245Y-96169306D02*
X199248245Y-96369306D01*
X199248245Y-96369306D02*
X199314912Y-96635973D01*
X199314912Y-96635973D02*
X199381579Y-96769306D01*
X199381579Y-96769306D02*
X199514912Y-96902640D01*
X199514912Y-96902640D02*
X199714912Y-96969306D01*
X199714912Y-96969306D02*
X200048245Y-96969306D01*
X197848245Y-96835973D02*
X197914912Y-96902640D01*
X197914912Y-96902640D02*
X198114912Y-96969306D01*
X198114912Y-96969306D02*
X198248245Y-96969306D01*
X198248245Y-96969306D02*
X198448245Y-96902640D01*
X198448245Y-96902640D02*
X198581579Y-96769306D01*
X198581579Y-96769306D02*
X198648245Y-96635973D01*
X198648245Y-96635973D02*
X198714912Y-96369306D01*
X198714912Y-96369306D02*
X198714912Y-96169306D01*
X198714912Y-96169306D02*
X198648245Y-95902640D01*
X198648245Y-95902640D02*
X198581579Y-95769306D01*
X198581579Y-95769306D02*
X198448245Y-95635973D01*
X198448245Y-95635973D02*
X198248245Y-95569306D01*
X198248245Y-95569306D02*
X198114912Y-95569306D01*
X198114912Y-95569306D02*
X197914912Y-95635973D01*
X197914912Y-95635973D02*
X197848245Y-95702640D01*
X196181578Y-96969306D02*
X196181578Y-95569306D01*
X196181578Y-95569306D02*
X195714912Y-96569306D01*
X195714912Y-96569306D02*
X195248245Y-95569306D01*
X195248245Y-95569306D02*
X195248245Y-96969306D01*
X194314912Y-95569306D02*
X194048245Y-95569306D01*
X194048245Y-95569306D02*
X193914912Y-95635973D01*
X193914912Y-95635973D02*
X193781578Y-95769306D01*
X193781578Y-95769306D02*
X193714912Y-96035973D01*
X193714912Y-96035973D02*
X193714912Y-96502640D01*
X193714912Y-96502640D02*
X193781578Y-96769306D01*
X193781578Y-96769306D02*
X193914912Y-96902640D01*
X193914912Y-96902640D02*
X194048245Y-96969306D01*
X194048245Y-96969306D02*
X194314912Y-96969306D01*
X194314912Y-96969306D02*
X194448245Y-96902640D01*
X194448245Y-96902640D02*
X194581578Y-96769306D01*
X194581578Y-96769306D02*
X194648245Y-96502640D01*
X194648245Y-96502640D02*
X194648245Y-96035973D01*
X194648245Y-96035973D02*
X194581578Y-95769306D01*
X194581578Y-95769306D02*
X194448245Y-95635973D01*
X194448245Y-95635973D02*
X194314912Y-95569306D01*
X193314911Y-95569306D02*
X192514911Y-95569306D01*
X192914911Y-96969306D02*
X192914911Y-95569306D01*
X191781578Y-95569306D02*
X191514911Y-95569306D01*
X191514911Y-95569306D02*
X191381578Y-95635973D01*
X191381578Y-95635973D02*
X191248244Y-95769306D01*
X191248244Y-95769306D02*
X191181578Y-96035973D01*
X191181578Y-96035973D02*
X191181578Y-96502640D01*
X191181578Y-96502640D02*
X191248244Y-96769306D01*
X191248244Y-96769306D02*
X191381578Y-96902640D01*
X191381578Y-96902640D02*
X191514911Y-96969306D01*
X191514911Y-96969306D02*
X191781578Y-96969306D01*
X191781578Y-96969306D02*
X191914911Y-96902640D01*
X191914911Y-96902640D02*
X192048244Y-96769306D01*
X192048244Y-96769306D02*
X192114911Y-96502640D01*
X192114911Y-96502640D02*
X192114911Y-96035973D01*
X192114911Y-96035973D02*
X192048244Y-95769306D01*
X192048244Y-95769306D02*
X191914911Y-95635973D01*
X191914911Y-95635973D02*
X191781578Y-95569306D01*
X189781577Y-96969306D02*
X190248244Y-96302640D01*
X190581577Y-96969306D02*
X190581577Y-95569306D01*
X190581577Y-95569306D02*
X190048244Y-95569306D01*
X190048244Y-95569306D02*
X189914911Y-95635973D01*
X189914911Y-95635973D02*
X189848244Y-95702640D01*
X189848244Y-95702640D02*
X189781577Y-95835973D01*
X189781577Y-95835973D02*
X189781577Y-96035973D01*
X189781577Y-96035973D02*
X189848244Y-96169306D01*
X189848244Y-96169306D02*
X189914911Y-96235973D01*
X189914911Y-96235973D02*
X190048244Y-96302640D01*
X190048244Y-96302640D02*
X190581577Y-96302640D01*
X187314910Y-96835973D02*
X187381577Y-96902640D01*
X187381577Y-96902640D02*
X187581577Y-96969306D01*
X187581577Y-96969306D02*
X187714910Y-96969306D01*
X187714910Y-96969306D02*
X187914910Y-96902640D01*
X187914910Y-96902640D02*
X188048244Y-96769306D01*
X188048244Y-96769306D02*
X188114910Y-96635973D01*
X188114910Y-96635973D02*
X188181577Y-96369306D01*
X188181577Y-96369306D02*
X188181577Y-96169306D01*
X188181577Y-96169306D02*
X188114910Y-95902640D01*
X188114910Y-95902640D02*
X188048244Y-95769306D01*
X188048244Y-95769306D02*
X187914910Y-95635973D01*
X187914910Y-95635973D02*
X187714910Y-95569306D01*
X187714910Y-95569306D02*
X187581577Y-95569306D01*
X187581577Y-95569306D02*
X187381577Y-95635973D01*
X187381577Y-95635973D02*
X187314910Y-95702640D01*
X186448244Y-95569306D02*
X186181577Y-95569306D01*
X186181577Y-95569306D02*
X186048244Y-95635973D01*
X186048244Y-95635973D02*
X185914910Y-95769306D01*
X185914910Y-95769306D02*
X185848244Y-96035973D01*
X185848244Y-96035973D02*
X185848244Y-96502640D01*
X185848244Y-96502640D02*
X185914910Y-96769306D01*
X185914910Y-96769306D02*
X186048244Y-96902640D01*
X186048244Y-96902640D02*
X186181577Y-96969306D01*
X186181577Y-96969306D02*
X186448244Y-96969306D01*
X186448244Y-96969306D02*
X186581577Y-96902640D01*
X186581577Y-96902640D02*
X186714910Y-96769306D01*
X186714910Y-96769306D02*
X186781577Y-96502640D01*
X186781577Y-96502640D02*
X186781577Y-96035973D01*
X186781577Y-96035973D02*
X186714910Y-95769306D01*
X186714910Y-95769306D02*
X186581577Y-95635973D01*
X186581577Y-95635973D02*
X186448244Y-95569306D01*
X185248243Y-96969306D02*
X185248243Y-95569306D01*
X185248243Y-95569306D02*
X184448243Y-96969306D01*
X184448243Y-96969306D02*
X184448243Y-95569306D01*
X183981576Y-95569306D02*
X183181576Y-95569306D01*
X183581576Y-96969306D02*
X183581576Y-95569306D01*
X181914909Y-96969306D02*
X182381576Y-96302640D01*
X182714909Y-96969306D02*
X182714909Y-95569306D01*
X182714909Y-95569306D02*
X182181576Y-95569306D01*
X182181576Y-95569306D02*
X182048243Y-95635973D01*
X182048243Y-95635973D02*
X181981576Y-95702640D01*
X181981576Y-95702640D02*
X181914909Y-95835973D01*
X181914909Y-95835973D02*
X181914909Y-96035973D01*
X181914909Y-96035973D02*
X181981576Y-96169306D01*
X181981576Y-96169306D02*
X182048243Y-96235973D01*
X182048243Y-96235973D02*
X182181576Y-96302640D01*
X182181576Y-96302640D02*
X182714909Y-96302640D01*
X181048243Y-95569306D02*
X180781576Y-95569306D01*
X180781576Y-95569306D02*
X180648243Y-95635973D01*
X180648243Y-95635973D02*
X180514909Y-95769306D01*
X180514909Y-95769306D02*
X180448243Y-96035973D01*
X180448243Y-96035973D02*
X180448243Y-96502640D01*
X180448243Y-96502640D02*
X180514909Y-96769306D01*
X180514909Y-96769306D02*
X180648243Y-96902640D01*
X180648243Y-96902640D02*
X180781576Y-96969306D01*
X180781576Y-96969306D02*
X181048243Y-96969306D01*
X181048243Y-96969306D02*
X181181576Y-96902640D01*
X181181576Y-96902640D02*
X181314909Y-96769306D01*
X181314909Y-96769306D02*
X181381576Y-96502640D01*
X181381576Y-96502640D02*
X181381576Y-96035973D01*
X181381576Y-96035973D02*
X181314909Y-95769306D01*
X181314909Y-95769306D02*
X181181576Y-95635973D01*
X181181576Y-95635973D02*
X181048243Y-95569306D01*
X179181576Y-96969306D02*
X179848242Y-96969306D01*
X179848242Y-96969306D02*
X179848242Y-95569306D01*
X178714909Y-96235973D02*
X178248243Y-96235973D01*
X178048243Y-96969306D02*
X178714909Y-96969306D01*
X178714909Y-96969306D02*
X178714909Y-95569306D01*
X178714909Y-95569306D02*
X178048243Y-95569306D01*
X176648242Y-96969306D02*
X177114909Y-96302640D01*
X177448242Y-96969306D02*
X177448242Y-95569306D01*
X177448242Y-95569306D02*
X176914909Y-95569306D01*
X176914909Y-95569306D02*
X176781576Y-95635973D01*
X176781576Y-95635973D02*
X176714909Y-95702640D01*
X176714909Y-95702640D02*
X176648242Y-95835973D01*
X176648242Y-95835973D02*
X176648242Y-96035973D01*
X176648242Y-96035973D02*
X176714909Y-96169306D01*
X176714909Y-96169306D02*
X176781576Y-96235973D01*
X176781576Y-96235973D02*
X176914909Y-96302640D01*
X176914909Y-96302640D02*
X177448242Y-96302640D01*
D12*
X179355890Y-36639676D02*
X178022557Y-40639676D01*
X178022557Y-40639676D02*
X176689223Y-36639676D01*
D13*
X159234712Y-108256933D02*
X153139474Y-108256933D01*
X156187093Y-111304552D02*
X156187093Y-105209314D01*
X204934712Y-108486933D02*
X198839474Y-108486933D01*
D11*
X199948245Y-86769306D02*
X199948245Y-85369306D01*
X199948245Y-85369306D02*
X199614912Y-85369306D01*
X199614912Y-85369306D02*
X199414912Y-85435973D01*
X199414912Y-85435973D02*
X199281579Y-85569306D01*
X199281579Y-85569306D02*
X199214912Y-85702640D01*
X199214912Y-85702640D02*
X199148245Y-85969306D01*
X199148245Y-85969306D02*
X199148245Y-86169306D01*
X199148245Y-86169306D02*
X199214912Y-86435973D01*
X199214912Y-86435973D02*
X199281579Y-86569306D01*
X199281579Y-86569306D02*
X199414912Y-86702640D01*
X199414912Y-86702640D02*
X199614912Y-86769306D01*
X199614912Y-86769306D02*
X199948245Y-86769306D01*
X198014912Y-86702640D02*
X198148245Y-86769306D01*
X198148245Y-86769306D02*
X198414912Y-86769306D01*
X198414912Y-86769306D02*
X198548245Y-86702640D01*
X198548245Y-86702640D02*
X198614912Y-86569306D01*
X198614912Y-86569306D02*
X198614912Y-86035973D01*
X198614912Y-86035973D02*
X198548245Y-85902640D01*
X198548245Y-85902640D02*
X198414912Y-85835973D01*
X198414912Y-85835973D02*
X198148245Y-85835973D01*
X198148245Y-85835973D02*
X198014912Y-85902640D01*
X198014912Y-85902640D02*
X197948245Y-86035973D01*
X197948245Y-86035973D02*
X197948245Y-86169306D01*
X197948245Y-86169306D02*
X198614912Y-86302640D01*
X197481579Y-85835973D02*
X197148245Y-86769306D01*
X197148245Y-86769306D02*
X196814912Y-85835973D01*
X195748245Y-86702640D02*
X195881578Y-86769306D01*
X195881578Y-86769306D02*
X196148245Y-86769306D01*
X196148245Y-86769306D02*
X196281578Y-86702640D01*
X196281578Y-86702640D02*
X196348245Y-86569306D01*
X196348245Y-86569306D02*
X196348245Y-86035973D01*
X196348245Y-86035973D02*
X196281578Y-85902640D01*
X196281578Y-85902640D02*
X196148245Y-85835973D01*
X196148245Y-85835973D02*
X195881578Y-85835973D01*
X195881578Y-85835973D02*
X195748245Y-85902640D01*
X195748245Y-85902640D02*
X195681578Y-86035973D01*
X195681578Y-86035973D02*
X195681578Y-86169306D01*
X195681578Y-86169306D02*
X196348245Y-86302640D01*
X194881578Y-86769306D02*
X195014912Y-86702640D01*
X195014912Y-86702640D02*
X195081578Y-86569306D01*
X195081578Y-86569306D02*
X195081578Y-85369306D01*
X194148245Y-86769306D02*
X194281579Y-86702640D01*
X194281579Y-86702640D02*
X194348245Y-86635973D01*
X194348245Y-86635973D02*
X194414912Y-86502640D01*
X194414912Y-86502640D02*
X194414912Y-86102640D01*
X194414912Y-86102640D02*
X194348245Y-85969306D01*
X194348245Y-85969306D02*
X194281579Y-85902640D01*
X194281579Y-85902640D02*
X194148245Y-85835973D01*
X194148245Y-85835973D02*
X193948245Y-85835973D01*
X193948245Y-85835973D02*
X193814912Y-85902640D01*
X193814912Y-85902640D02*
X193748245Y-85969306D01*
X193748245Y-85969306D02*
X193681579Y-86102640D01*
X193681579Y-86102640D02*
X193681579Y-86502640D01*
X193681579Y-86502640D02*
X193748245Y-86635973D01*
X193748245Y-86635973D02*
X193814912Y-86702640D01*
X193814912Y-86702640D02*
X193948245Y-86769306D01*
X193948245Y-86769306D02*
X194148245Y-86769306D01*
X193081578Y-85835973D02*
X193081578Y-87235973D01*
X193081578Y-85902640D02*
X192948245Y-85835973D01*
X192948245Y-85835973D02*
X192681578Y-85835973D01*
X192681578Y-85835973D02*
X192548245Y-85902640D01*
X192548245Y-85902640D02*
X192481578Y-85969306D01*
X192481578Y-85969306D02*
X192414912Y-86102640D01*
X192414912Y-86102640D02*
X192414912Y-86502640D01*
X192414912Y-86502640D02*
X192481578Y-86635973D01*
X192481578Y-86635973D02*
X192548245Y-86702640D01*
X192548245Y-86702640D02*
X192681578Y-86769306D01*
X192681578Y-86769306D02*
X192948245Y-86769306D01*
X192948245Y-86769306D02*
X193081578Y-86702640D01*
X191281578Y-86702640D02*
X191414911Y-86769306D01*
X191414911Y-86769306D02*
X191681578Y-86769306D01*
X191681578Y-86769306D02*
X191814911Y-86702640D01*
X191814911Y-86702640D02*
X191881578Y-86569306D01*
X191881578Y-86569306D02*
X191881578Y-86035973D01*
X191881578Y-86035973D02*
X191814911Y-85902640D01*
X191814911Y-85902640D02*
X191681578Y-85835973D01*
X191681578Y-85835973D02*
X191414911Y-85835973D01*
X191414911Y-85835973D02*
X191281578Y-85902640D01*
X191281578Y-85902640D02*
X191214911Y-86035973D01*
X191214911Y-86035973D02*
X191214911Y-86169306D01*
X191214911Y-86169306D02*
X191881578Y-86302640D01*
X190014911Y-86769306D02*
X190014911Y-85369306D01*
X190014911Y-86702640D02*
X190148245Y-86769306D01*
X190148245Y-86769306D02*
X190414911Y-86769306D01*
X190414911Y-86769306D02*
X190548245Y-86702640D01*
X190548245Y-86702640D02*
X190614911Y-86635973D01*
X190614911Y-86635973D02*
X190681578Y-86502640D01*
X190681578Y-86502640D02*
X190681578Y-86102640D01*
X190681578Y-86102640D02*
X190614911Y-85969306D01*
X190614911Y-85969306D02*
X190548245Y-85902640D01*
X190548245Y-85902640D02*
X190414911Y-85835973D01*
X190414911Y-85835973D02*
X190148245Y-85835973D01*
X190148245Y-85835973D02*
X190014911Y-85902640D01*
X188281577Y-86769306D02*
X188281577Y-85369306D01*
X188281577Y-85902640D02*
X188148244Y-85835973D01*
X188148244Y-85835973D02*
X187881577Y-85835973D01*
X187881577Y-85835973D02*
X187748244Y-85902640D01*
X187748244Y-85902640D02*
X187681577Y-85969306D01*
X187681577Y-85969306D02*
X187614911Y-86102640D01*
X187614911Y-86102640D02*
X187614911Y-86502640D01*
X187614911Y-86502640D02*
X187681577Y-86635973D01*
X187681577Y-86635973D02*
X187748244Y-86702640D01*
X187748244Y-86702640D02*
X187881577Y-86769306D01*
X187881577Y-86769306D02*
X188148244Y-86769306D01*
X188148244Y-86769306D02*
X188281577Y-86702640D01*
X187148244Y-85835973D02*
X186814910Y-86769306D01*
X186481577Y-85835973D02*
X186814910Y-86769306D01*
X186814910Y-86769306D02*
X186948244Y-87102640D01*
X186948244Y-87102640D02*
X187014910Y-87169306D01*
X187014910Y-87169306D02*
X187148244Y-87235973D01*
X184481576Y-85369306D02*
X184481576Y-86369306D01*
X184481576Y-86369306D02*
X184548243Y-86569306D01*
X184548243Y-86569306D02*
X184681576Y-86702640D01*
X184681576Y-86702640D02*
X184881576Y-86769306D01*
X184881576Y-86769306D02*
X185014910Y-86769306D01*
X183614909Y-86769306D02*
X183748243Y-86702640D01*
X183748243Y-86702640D02*
X183814909Y-86635973D01*
X183814909Y-86635973D02*
X183881576Y-86502640D01*
X183881576Y-86502640D02*
X183881576Y-86102640D01*
X183881576Y-86102640D02*
X183814909Y-85969306D01*
X183814909Y-85969306D02*
X183748243Y-85902640D01*
X183748243Y-85902640D02*
X183614909Y-85835973D01*
X183614909Y-85835973D02*
X183414909Y-85835973D01*
X183414909Y-85835973D02*
X183281576Y-85902640D01*
X183281576Y-85902640D02*
X183214909Y-85969306D01*
X183214909Y-85969306D02*
X183148243Y-86102640D01*
X183148243Y-86102640D02*
X183148243Y-86502640D01*
X183148243Y-86502640D02*
X183214909Y-86635973D01*
X183214909Y-86635973D02*
X183281576Y-86702640D01*
X183281576Y-86702640D02*
X183414909Y-86769306D01*
X183414909Y-86769306D02*
X183614909Y-86769306D01*
X181948242Y-86769306D02*
X181948242Y-86035973D01*
X181948242Y-86035973D02*
X182014909Y-85902640D01*
X182014909Y-85902640D02*
X182148242Y-85835973D01*
X182148242Y-85835973D02*
X182414909Y-85835973D01*
X182414909Y-85835973D02*
X182548242Y-85902640D01*
X181948242Y-86702640D02*
X182081576Y-86769306D01*
X182081576Y-86769306D02*
X182414909Y-86769306D01*
X182414909Y-86769306D02*
X182548242Y-86702640D01*
X182548242Y-86702640D02*
X182614909Y-86569306D01*
X182614909Y-86569306D02*
X182614909Y-86435973D01*
X182614909Y-86435973D02*
X182548242Y-86302640D01*
X182548242Y-86302640D02*
X182414909Y-86235973D01*
X182414909Y-86235973D02*
X182081576Y-86235973D01*
X182081576Y-86235973D02*
X181948242Y-86169306D01*
X182614909Y-85502640D02*
X182548242Y-85435973D01*
X182548242Y-85435973D02*
X182414909Y-85369306D01*
X182414909Y-85369306D02*
X182148242Y-85502640D01*
X182148242Y-85502640D02*
X182014909Y-85435973D01*
X182014909Y-85435973D02*
X181948242Y-85369306D01*
X181081575Y-86769306D02*
X181214909Y-86702640D01*
X181214909Y-86702640D02*
X181281575Y-86635973D01*
X181281575Y-86635973D02*
X181348242Y-86502640D01*
X181348242Y-86502640D02*
X181348242Y-86102640D01*
X181348242Y-86102640D02*
X181281575Y-85969306D01*
X181281575Y-85969306D02*
X181214909Y-85902640D01*
X181214909Y-85902640D02*
X181081575Y-85835973D01*
X181081575Y-85835973D02*
X180881575Y-85835973D01*
X180881575Y-85835973D02*
X180748242Y-85902640D01*
X180748242Y-85902640D02*
X180681575Y-85969306D01*
X180681575Y-85969306D02*
X180614909Y-86102640D01*
X180614909Y-86102640D02*
X180614909Y-86502640D01*
X180614909Y-86502640D02*
X180681575Y-86635973D01*
X180681575Y-86635973D02*
X180748242Y-86702640D01*
X180748242Y-86702640D02*
X180881575Y-86769306D01*
X180881575Y-86769306D02*
X181081575Y-86769306D01*
X179081575Y-85369306D02*
X178748241Y-86769306D01*
X178748241Y-86769306D02*
X178481575Y-85769306D01*
X178481575Y-85769306D02*
X178214908Y-86769306D01*
X178214908Y-86769306D02*
X177881575Y-85369306D01*
X176281574Y-86769306D02*
X176281574Y-85369306D01*
X176281574Y-85369306D02*
X175814908Y-86369306D01*
X175814908Y-86369306D02*
X175348241Y-85369306D01*
X175348241Y-85369306D02*
X175348241Y-86769306D01*
X174081574Y-85835973D02*
X174081574Y-86769306D01*
X174681574Y-85835973D02*
X174681574Y-86569306D01*
X174681574Y-86569306D02*
X174614908Y-86702640D01*
X174614908Y-86702640D02*
X174481574Y-86769306D01*
X174481574Y-86769306D02*
X174281574Y-86769306D01*
X174281574Y-86769306D02*
X174148241Y-86702640D01*
X174148241Y-86702640D02*
X174081574Y-86635973D01*
X174614908Y-85369306D02*
X174548241Y-85435973D01*
X174548241Y-85435973D02*
X174614908Y-85502640D01*
X174614908Y-85502640D02*
X174681574Y-85435973D01*
X174681574Y-85435973D02*
X174614908Y-85369306D01*
X174614908Y-85369306D02*
X174614908Y-85502640D01*
X174081574Y-85369306D02*
X174014908Y-85435973D01*
X174014908Y-85435973D02*
X174081574Y-85502640D01*
X174081574Y-85502640D02*
X174148241Y-85435973D01*
X174148241Y-85435973D02*
X174081574Y-85369306D01*
X174081574Y-85369306D02*
X174081574Y-85502640D01*
X173214907Y-86769306D02*
X173348241Y-86702640D01*
X173348241Y-86702640D02*
X173414907Y-86569306D01*
X173414907Y-86569306D02*
X173414907Y-85369306D01*
X172481574Y-86769306D02*
X172614908Y-86702640D01*
X172614908Y-86702640D02*
X172681574Y-86569306D01*
X172681574Y-86569306D02*
X172681574Y-85369306D01*
X171414908Y-86702640D02*
X171548241Y-86769306D01*
X171548241Y-86769306D02*
X171814908Y-86769306D01*
X171814908Y-86769306D02*
X171948241Y-86702640D01*
X171948241Y-86702640D02*
X172014908Y-86569306D01*
X172014908Y-86569306D02*
X172014908Y-86035973D01*
X172014908Y-86035973D02*
X171948241Y-85902640D01*
X171948241Y-85902640D02*
X171814908Y-85835973D01*
X171814908Y-85835973D02*
X171548241Y-85835973D01*
X171548241Y-85835973D02*
X171414908Y-85902640D01*
X171414908Y-85902640D02*
X171348241Y-86035973D01*
X171348241Y-86035973D02*
X171348241Y-86169306D01*
X171348241Y-86169306D02*
X172014908Y-86302640D01*
X170748241Y-86769306D02*
X170748241Y-85835973D01*
X170748241Y-86102640D02*
X170681575Y-85969306D01*
X170681575Y-85969306D02*
X170614908Y-85902640D01*
X170614908Y-85902640D02*
X170481575Y-85835973D01*
X170481575Y-85835973D02*
X170348241Y-85835973D01*
D12*
X199864462Y-36429676D02*
X199864462Y-39667771D01*
X199864462Y-39667771D02*
X199673985Y-40048723D01*
X199673985Y-40048723D02*
X199483509Y-40239200D01*
X199483509Y-40239200D02*
X199102557Y-40429676D01*
X199102557Y-40429676D02*
X198340652Y-40429676D01*
X198340652Y-40429676D02*
X197959700Y-40239200D01*
X197959700Y-40239200D02*
X197769223Y-40048723D01*
X197769223Y-40048723D02*
X197578747Y-39667771D01*
X197578747Y-39667771D02*
X197578747Y-36429676D01*
X158065414Y-37039676D02*
X157113033Y-41039676D01*
X157113033Y-41039676D02*
X156351128Y-38182533D01*
X156351128Y-38182533D02*
X155589223Y-41039676D01*
X155589223Y-41039676D02*
X154636843Y-37039676D01*
M02*
