%TF.GenerationSoftware,KiCad,Pcbnew,9.0.3*%
%TF.CreationDate,2025-08-23T20:27:24-03:00*%
%TF.ProjectId,Torq150A,546f7271-3135-4304-912e-6b696361645f,rev?*%
%TF.SameCoordinates,Original*%
%TF.FileFunction,Copper,L1,Top*%
%TF.FilePolarity,Positive*%
%FSLAX46Y46*%
G04 Gerber Fmt 4.6, Leading zero omitted, Abs format (unit mm)*
G04 Created by KiCad (PCBNEW 9.0.3) date 2025-08-23 20:27:24*
%MOMM*%
%LPD*%
G01*
G04 APERTURE LIST*
G04 Aperture macros list*
%AMRoundRect*
0 Rectangle with rounded corners*
0 $1 Rounding radius*
0 $2 $3 $4 $5 $6 $7 $8 $9 X,Y pos of 4 corners*
0 Add a 4 corners polygon primitive as box body*
4,1,4,$2,$3,$4,$5,$6,$7,$8,$9,$2,$3,0*
0 Add four circle primitives for the rounded corners*
1,1,$1+$1,$2,$3*
1,1,$1+$1,$4,$5*
1,1,$1+$1,$6,$7*
1,1,$1+$1,$8,$9*
0 Add four rect primitives between the rounded corners*
20,1,$1+$1,$2,$3,$4,$5,0*
20,1,$1+$1,$4,$5,$6,$7,0*
20,1,$1+$1,$6,$7,$8,$9,0*
20,1,$1+$1,$8,$9,$2,$3,0*%
%AMFreePoly0*
4,1,30,0.400000,-4.000000,-0.400000,-4.000000,-2.400000,-4.000000,-2.400000,-3.200000,-0.400000,-3.200000,-0.400000,-2.800000,-2.400000,-2.800000,-2.400000,-2.000000,-0.400000,-2.000000,-0.400000,-1.600000,-2.400000,-1.600000,-2.400000,-0.800000,-0.400000,-0.800000,-0.400000,-0.400000,-2.400000,-0.400000,-2.400000,0.400000,-0.400000,0.400000,-0.400000,0.800000,-2.400000,0.800000,-2.400000,1.600000,
-0.400000,1.600000,-0.400000,2.000000,-2.400000,2.000000,-2.400000,2.800000,-0.400000,2.800000,-0.400000,3.200000,-2.400000,3.200000,-2.400000,4.000000,0.400000,4.000000,0.400000,-4.000000,0.400000,-4.000000,$1*%
%AMFreePoly1*
4,1,13,2.850000,-5.050000,1.450000,-5.050000,1.450000,-4.350000,-1.450000,-4.350000,-1.450000,-4.850000,-5.150000,-4.850000,-5.150000,4.850000,-1.450000,4.850000,-1.450000,4.350000,1.450000,4.350000,1.450000,5.050000,2.850000,5.050000,2.850000,-5.050000,2.850000,-5.050000,$1*%
G04 Aperture macros list end*
%TA.AperFunction,SMDPad,CuDef*%
%ADD10RoundRect,0.250000X1.100000X-0.325000X1.100000X0.325000X-1.100000X0.325000X-1.100000X-0.325000X0*%
%TD*%
%TA.AperFunction,ComponentPad*%
%ADD11R,1.700000X1.700000*%
%TD*%
%TA.AperFunction,ComponentPad*%
%ADD12C,1.700000*%
%TD*%
%TA.AperFunction,SMDPad,CuDef*%
%ADD13RoundRect,0.250000X-0.640000X0.260000X-0.640000X-0.260000X0.640000X-0.260000X0.640000X0.260000X0*%
%TD*%
%TA.AperFunction,SMDPad,CuDef*%
%ADD14RoundRect,0.250000X0.640000X-0.260000X0.640000X0.260000X-0.640000X0.260000X-0.640000X-0.260000X0*%
%TD*%
%TA.AperFunction,SMDPad,CuDef*%
%ADD15RoundRect,0.250000X-1.425000X0.362500X-1.425000X-0.362500X1.425000X-0.362500X1.425000X0.362500X0*%
%TD*%
%TA.AperFunction,ComponentPad*%
%ADD16C,0.900000*%
%TD*%
%TA.AperFunction,ComponentPad*%
%ADD17C,12.800000*%
%TD*%
%TA.AperFunction,ComponentPad*%
%ADD18RoundRect,0.250001X0.949999X-0.949999X0.949999X0.949999X-0.949999X0.949999X-0.949999X-0.949999X0*%
%TD*%
%TA.AperFunction,ComponentPad*%
%ADD19C,2.400000*%
%TD*%
%TA.AperFunction,ComponentPad*%
%ADD20C,4.500000*%
%TD*%
%TA.AperFunction,SMDPad,CuDef*%
%ADD21R,2.800000X0.800000*%
%TD*%
%TA.AperFunction,SMDPad,CuDef*%
%ADD22FreePoly0,0.000000*%
%TD*%
%TA.AperFunction,SMDPad,CuDef*%
%ADD23FreePoly1,0.000000*%
%TD*%
%TA.AperFunction,SMDPad,CuDef*%
%ADD24R,0.800000X2.800000*%
%TD*%
%TA.AperFunction,SMDPad,CuDef*%
%ADD25FreePoly0,270.000000*%
%TD*%
%TA.AperFunction,SMDPad,CuDef*%
%ADD26FreePoly1,270.000000*%
%TD*%
%TA.AperFunction,ViaPad*%
%ADD27C,1.000000*%
%TD*%
%TA.AperFunction,Conductor*%
%ADD28C,2.000000*%
%TD*%
%TA.AperFunction,Conductor*%
%ADD29C,0.400000*%
%TD*%
%TA.AperFunction,Conductor*%
%ADD30C,2.400000*%
%TD*%
%TA.AperFunction,Conductor*%
%ADD31C,0.600000*%
%TD*%
G04 APERTURE END LIST*
D10*
%TO.P,C2,1*%
%TO.N,Net-(C13-Pad2)*%
X155150000Y-63550000D03*
%TO.P,C2,2*%
%TO.N,GND*%
X155150000Y-60600000D03*
%TD*%
%TO.P,C7,1*%
%TO.N,VBAT*%
X186050000Y-68375000D03*
%TO.P,C7,2*%
%TO.N,Net-(C6-Pad1)*%
X186050000Y-65425000D03*
%TD*%
D11*
%TO.P,J4,1,Pin_1*%
%TO.N,GND*%
X205300000Y-68210000D03*
D12*
%TO.P,J4,2,Pin_2*%
%TO.N,VBAT*%
X205300000Y-70750000D03*
%TD*%
D13*
%TO.P,FB4,1*%
%TO.N,PB_IN_H*%
X202000000Y-58110000D03*
%TO.P,FB4,2*%
%TO.N,Net-(Q3-G)*%
X202000000Y-59890000D03*
%TD*%
D14*
%TO.P,FB5,1*%
%TO.N,Net-(Q4-G)*%
X187500000Y-47890000D03*
%TO.P,FB5,2*%
%TO.N,PB_IN_L*%
X187500000Y-46110000D03*
%TD*%
D11*
%TO.P,J2,1,Pin_1*%
%TO.N,unconnected-(J2-Pin_1-Pad1)*%
X184725000Y-38410000D03*
D12*
%TO.P,J2,2,Pin_2*%
%TO.N,PC_IN_L*%
X187265000Y-38410000D03*
%TO.P,J2,3,Pin_3*%
%TO.N,OUT_C*%
X184725000Y-40950000D03*
%TO.P,J2,4,Pin_4*%
%TO.N,PC_CUR1*%
X187265000Y-40950000D03*
%TO.P,J2,5,Pin_5*%
X184725000Y-43490000D03*
%TO.P,J2,6,Pin_6*%
%TO.N,PC_IN_H*%
X187265000Y-43490000D03*
%TD*%
D15*
%TO.P,R23,1*%
%TO.N,OUT_B*%
X194700000Y-41875000D03*
%TO.P,R23,2*%
%TO.N,PB_CUR1*%
X194700000Y-47800000D03*
%TD*%
D10*
%TO.P,C5,1*%
%TO.N,VBAT*%
X172200000Y-68350000D03*
%TO.P,C5,2*%
%TO.N,Net-(C11-Pad1)*%
X172200000Y-65400000D03*
%TD*%
D16*
%TO.P,H7,1,1*%
%TO.N,OUT_A*%
X152200000Y-29250000D03*
X153605887Y-25855887D03*
X153605887Y-32644113D03*
X157000000Y-24450000D03*
D17*
X157000000Y-29250000D03*
D16*
X157000000Y-34050000D03*
X160394113Y-25855887D03*
X160394113Y-32644113D03*
X161800000Y-29250000D03*
%TD*%
D18*
%TO.P,C17,1*%
%TO.N,VBAT*%
X179150000Y-107950000D03*
D19*
%TO.P,C17,2*%
%TO.N,GND*%
X179150000Y-100450000D03*
%TD*%
D20*
%TO.P,H4,1,1*%
%TO.N,GND*%
X152000000Y-75750000D03*
%TD*%
D18*
%TO.P,C20,1*%
%TO.N,VBAT*%
X179000000Y-91250000D03*
D19*
%TO.P,C20,2*%
%TO.N,GND*%
X179000000Y-83750000D03*
%TD*%
D10*
%TO.P,C1,1*%
%TO.N,VBAT*%
X151900000Y-68150000D03*
%TO.P,C1,2*%
%TO.N,Net-(C1-Pad2)*%
X151900000Y-65200000D03*
%TD*%
D14*
%TO.P,FB3,1*%
%TO.N,Net-(Q2-G)*%
X153000000Y-48280000D03*
%TO.P,FB3,2*%
%TO.N,PA_IN_L*%
X153000000Y-46500000D03*
%TD*%
D18*
%TO.P,C18,1*%
%TO.N,VBAT*%
X196700000Y-107950000D03*
D19*
%TO.P,C18,2*%
%TO.N,GND*%
X196700000Y-100450000D03*
%TD*%
D21*
%TO.P,Q6,1,G*%
%TO.N,Net-(Q6-G)*%
X170820000Y-50200000D03*
D22*
%TO.P,Q6,2,S*%
%TO.N,GND*%
X171820000Y-55000000D03*
D23*
%TO.P,Q6,3,D*%
%TO.N,PC_CUR1*%
X179870000Y-54400000D03*
%TD*%
D15*
%TO.P,R27,1*%
%TO.N,OUT_A*%
X156250000Y-41900000D03*
%TO.P,R27,2*%
%TO.N,PA_CUR1*%
X156250000Y-47825000D03*
%TD*%
D13*
%TO.P,FB6,1*%
%TO.N,PC_IN_H*%
X185000000Y-46110000D03*
%TO.P,FB6,2*%
%TO.N,Net-(Q5-G)*%
X185000000Y-47890000D03*
%TD*%
D10*
%TO.P,C8,1*%
%TO.N,Net-(C1-Pad2)*%
X151900000Y-63550000D03*
%TO.P,C8,2*%
%TO.N,GND*%
X151900000Y-60600000D03*
%TD*%
D15*
%TO.P,R22,1*%
%TO.N,OUT_B*%
X198550000Y-41875000D03*
%TO.P,R22,2*%
%TO.N,PB_CUR1*%
X198550000Y-47800000D03*
%TD*%
D11*
%TO.P,J3,1,Pin_1*%
%TO.N,unconnected-(J3-Pin_1-Pad1)*%
X202560000Y-38370000D03*
D12*
%TO.P,J3,2,Pin_2*%
%TO.N,PB_IN_L*%
X205100000Y-38370000D03*
%TO.P,J3,3,Pin_3*%
%TO.N,OUT_B*%
X202560000Y-40910000D03*
%TO.P,J3,4,Pin_4*%
%TO.N,PB_CUR1*%
X205100000Y-40910000D03*
%TO.P,J3,5,Pin_5*%
X202560000Y-43450000D03*
%TO.P,J3,6,Pin_6*%
%TO.N,PB_IN_H*%
X205100000Y-43450000D03*
%TD*%
D15*
%TO.P,R21,1*%
%TO.N,OUT_C*%
X173450000Y-41837500D03*
%TO.P,R21,2*%
%TO.N,PC_CUR1*%
X173450000Y-47762500D03*
%TD*%
D24*
%TO.P,Q3,1,G*%
%TO.N,Net-(Q3-G)*%
X200400000Y-62400000D03*
D25*
%TO.P,Q3,2,S*%
%TO.N,PB_CUR1*%
X195600000Y-63400000D03*
D26*
%TO.P,Q3,3,D*%
%TO.N,VBAT*%
X196200000Y-71450000D03*
%TD*%
D15*
%TO.P,R26,1*%
%TO.N,OUT_A*%
X160150000Y-41900000D03*
%TO.P,R26,2*%
%TO.N,PA_CUR1*%
X160150000Y-47825000D03*
%TD*%
%TO.P,R25,1*%
%TO.N,OUT_A*%
X164050000Y-41900000D03*
%TO.P,R25,2*%
%TO.N,PA_CUR1*%
X164050000Y-47825000D03*
%TD*%
D24*
%TO.P,Q5,1,G*%
%TO.N,Net-(Q5-G)*%
X183300000Y-62400000D03*
D25*
%TO.P,Q5,2,S*%
%TO.N,PC_CUR1*%
X178500000Y-63400000D03*
D26*
%TO.P,Q5,3,D*%
%TO.N,VBAT*%
X179100000Y-71450000D03*
%TD*%
D18*
%TO.P,C21,1*%
%TO.N,VBAT*%
X196550000Y-91250000D03*
D19*
%TO.P,C21,2*%
%TO.N,GND*%
X196550000Y-83750000D03*
%TD*%
D15*
%TO.P,R20,1*%
%TO.N,OUT_C*%
X177310000Y-41837500D03*
%TO.P,R20,2*%
%TO.N,PC_CUR1*%
X177310000Y-47762500D03*
%TD*%
D20*
%TO.P,H1,1,1*%
%TO.N,GND*%
X204250000Y-49250000D03*
%TD*%
D10*
%TO.P,C4,1*%
%TO.N,Net-(C4-Pad1)*%
X189300000Y-63650000D03*
%TO.P,C4,2*%
%TO.N,GND*%
X189300000Y-60700000D03*
%TD*%
D16*
%TO.P,H5,1,1*%
%TO.N,OUT_C*%
X173200000Y-29250000D03*
X174605887Y-25855887D03*
X174605887Y-32644113D03*
X178000000Y-24450000D03*
D17*
X178000000Y-29250000D03*
D16*
X178000000Y-34050000D03*
X181394113Y-25855887D03*
X181394113Y-32644113D03*
X182800000Y-29250000D03*
%TD*%
D15*
%TO.P,R24,1*%
%TO.N,OUT_B*%
X190850000Y-41875000D03*
%TO.P,R24,2*%
%TO.N,PB_CUR1*%
X190850000Y-47800000D03*
%TD*%
D24*
%TO.P,Q1,1,G*%
%TO.N,Net-(Q1-G)*%
X166250000Y-62400000D03*
D25*
%TO.P,Q1,2,S*%
%TO.N,PA_CUR1*%
X161450000Y-63400000D03*
D26*
%TO.P,Q1,3,D*%
%TO.N,VBAT*%
X162050000Y-71450000D03*
%TD*%
D10*
%TO.P,C13,1*%
%TO.N,VBAT*%
X155150000Y-68150000D03*
%TO.P,C13,2*%
%TO.N,Net-(C13-Pad2)*%
X155150000Y-65200000D03*
%TD*%
D14*
%TO.P,FB1,1*%
%TO.N,Net-(Q6-G)*%
X170000000Y-47890000D03*
%TO.P,FB1,2*%
%TO.N,PC_IN_L*%
X170000000Y-46110000D03*
%TD*%
D18*
%TO.P,C19,1*%
%TO.N,VBAT*%
X161450000Y-91250000D03*
D19*
%TO.P,C19,2*%
%TO.N,GND*%
X161450000Y-83750000D03*
%TD*%
D18*
%TO.P,C16,1*%
%TO.N,VBAT*%
X161600000Y-107950000D03*
D19*
%TO.P,C16,2*%
%TO.N,GND*%
X161600000Y-100450000D03*
%TD*%
D10*
%TO.P,C6,1*%
%TO.N,Net-(C6-Pad1)*%
X186050000Y-63650000D03*
%TO.P,C6,2*%
%TO.N,GND*%
X186050000Y-60700000D03*
%TD*%
D16*
%TO.P,H8,1,1*%
%TO.N,VBAT*%
X152200000Y-129250000D03*
X153605887Y-125855887D03*
X153605887Y-132644113D03*
X157000000Y-124450000D03*
D17*
X157000000Y-129250000D03*
D16*
X157000000Y-134050000D03*
X160394113Y-125855887D03*
X160394113Y-132644113D03*
X161800000Y-129250000D03*
%TD*%
D10*
%TO.P,C3,1*%
%TO.N,VBAT*%
X168950000Y-68350000D03*
%TO.P,C3,2*%
%TO.N,Net-(C10-Pad1)*%
X168950000Y-65400000D03*
%TD*%
%TO.P,C10,1*%
%TO.N,Net-(C10-Pad1)*%
X168950000Y-63700000D03*
%TO.P,C10,2*%
%TO.N,GND*%
X168950000Y-60750000D03*
%TD*%
D20*
%TO.P,H3,1,1*%
%TO.N,GND*%
X204000000Y-75750000D03*
%TD*%
D10*
%TO.P,C9,1*%
%TO.N,VBAT*%
X189300000Y-68375000D03*
%TO.P,C9,2*%
%TO.N,Net-(C4-Pad1)*%
X189300000Y-65425000D03*
%TD*%
D21*
%TO.P,Q4,1,G*%
%TO.N,Net-(Q4-G)*%
X188120000Y-50300000D03*
D22*
%TO.P,Q4,2,S*%
%TO.N,GND*%
X189120000Y-55100000D03*
D23*
%TO.P,Q4,3,D*%
%TO.N,PB_CUR1*%
X197170000Y-54500000D03*
%TD*%
D21*
%TO.P,Q2,1,G*%
%TO.N,Net-(Q2-G)*%
X153820000Y-50170000D03*
D22*
%TO.P,Q2,2,S*%
%TO.N,GND*%
X154820000Y-54970000D03*
D23*
%TO.P,Q2,3,D*%
%TO.N,PA_CUR1*%
X162870000Y-54370000D03*
%TD*%
D10*
%TO.P,C11,1*%
%TO.N,Net-(C11-Pad1)*%
X172200000Y-63700000D03*
%TO.P,C11,2*%
%TO.N,GND*%
X172200000Y-60750000D03*
%TD*%
D16*
%TO.P,H6,1,1*%
%TO.N,OUT_B*%
X194200000Y-29250000D03*
X195605887Y-25855887D03*
X195605887Y-32644113D03*
X199000000Y-24450000D03*
D17*
X199000000Y-29250000D03*
D16*
X199000000Y-34050000D03*
X202394113Y-25855887D03*
X202394113Y-32644113D03*
X203800000Y-29250000D03*
%TD*%
D20*
%TO.P,H2,1,1*%
%TO.N,GND*%
X151750000Y-43000000D03*
%TD*%
D11*
%TO.P,J1,1,Pin_1*%
%TO.N,unconnected-(J1-Pin_1-Pad1)*%
X167500000Y-38370000D03*
D12*
%TO.P,J1,2,Pin_2*%
%TO.N,PA_IN_L*%
X170040000Y-38370000D03*
%TO.P,J1,3,Pin_3*%
%TO.N,OUT_A*%
X167500000Y-40910000D03*
%TO.P,J1,4,Pin_4*%
%TO.N,PA_CUR1*%
X170040000Y-40910000D03*
%TO.P,J1,5,Pin_5*%
X167500000Y-43450000D03*
%TO.P,J1,6,Pin_6*%
%TO.N,PA_IN_H*%
X170040000Y-43450000D03*
%TD*%
D16*
%TO.P,H9,1,1*%
%TO.N,GND*%
X194200000Y-129250000D03*
X195605887Y-125855887D03*
X195605887Y-132644113D03*
X199000000Y-124450000D03*
D17*
X199000000Y-129250000D03*
D16*
X199000000Y-134050000D03*
X202394113Y-125855887D03*
X202394113Y-132644113D03*
X203800000Y-129250000D03*
%TD*%
D13*
%TO.P,FB2,1*%
%TO.N,PA_IN_H*%
X167500000Y-46110000D03*
%TO.P,FB2,2*%
%TO.N,Net-(Q1-G)*%
X167500000Y-47890000D03*
%TD*%
D15*
%TO.P,R19,1*%
%TO.N,OUT_C*%
X181150000Y-41837500D03*
%TO.P,R19,2*%
%TO.N,PC_CUR1*%
X181150000Y-47762500D03*
%TD*%
D27*
%TO.N,VBAT*%
X166500000Y-67800000D03*
X177600000Y-68800000D03*
X161500000Y-73800000D03*
X179600000Y-71800000D03*
X200800000Y-69800000D03*
X182600000Y-68800000D03*
X181600000Y-70800000D03*
X198800000Y-69800000D03*
X197800000Y-71800000D03*
X162500000Y-71800000D03*
X161500000Y-68800000D03*
X177600000Y-71800000D03*
X162500000Y-70800000D03*
X160500000Y-67800000D03*
X197800000Y-72800000D03*
X193800000Y-72800000D03*
X174600000Y-67800000D03*
X166500000Y-73800000D03*
X174600000Y-68800000D03*
X164500000Y-70800000D03*
X166500000Y-69800000D03*
X192800000Y-66800000D03*
X174600000Y-69800000D03*
X182600000Y-70800000D03*
X158500000Y-73800000D03*
X160500000Y-66800000D03*
X191800000Y-67800000D03*
X200800000Y-66800000D03*
X198800000Y-72800000D03*
X163500000Y-73800000D03*
X175600000Y-66800000D03*
X158500000Y-71800000D03*
X192800000Y-73800000D03*
X200800000Y-73800000D03*
X199800000Y-67800000D03*
X160500000Y-70800000D03*
X180600000Y-67800000D03*
X199800000Y-66800000D03*
X157500000Y-73800000D03*
X182600000Y-67800000D03*
X163500000Y-68800000D03*
X195800000Y-72800000D03*
X159500000Y-68800000D03*
X161500000Y-71800000D03*
X165500000Y-73800000D03*
X193800000Y-71800000D03*
X178600000Y-73800000D03*
X160500000Y-72800000D03*
X183600000Y-69800000D03*
X158500000Y-68800000D03*
X179600000Y-72800000D03*
X165500000Y-68800000D03*
X157500000Y-69800000D03*
X165500000Y-67800000D03*
X163500000Y-67800000D03*
X177600000Y-66800000D03*
X174600000Y-66800000D03*
X200800000Y-72800000D03*
X179600000Y-70800000D03*
X194800000Y-71800000D03*
X196800000Y-70800000D03*
X157500000Y-68800000D03*
X194800000Y-68800000D03*
X181600000Y-69800000D03*
X176600000Y-66800000D03*
X161500000Y-72800000D03*
X192800000Y-72800000D03*
X176600000Y-68800000D03*
X157500000Y-67800000D03*
X182600000Y-69800000D03*
X161500000Y-67800000D03*
X183600000Y-72800000D03*
X183600000Y-68800000D03*
X160500000Y-73800000D03*
X199800000Y-70800000D03*
X193800000Y-68800000D03*
X197800000Y-66800000D03*
X180600000Y-73800000D03*
X181600000Y-71800000D03*
X195800000Y-66800000D03*
X157500000Y-70800000D03*
X164500000Y-71800000D03*
X174600000Y-70800000D03*
X193800000Y-73800000D03*
X165500000Y-70800000D03*
X161500000Y-66800000D03*
X160500000Y-71800000D03*
X196800000Y-67800000D03*
X166500000Y-72800000D03*
X180600000Y-70800000D03*
X195800000Y-73800000D03*
X159500000Y-71800000D03*
X191800000Y-70800000D03*
X182600000Y-71800000D03*
X199800000Y-68800000D03*
X174600000Y-73800000D03*
X196800000Y-71800000D03*
X161500000Y-70800000D03*
X159500000Y-66800000D03*
X175600000Y-67800000D03*
X197800000Y-68800000D03*
X177600000Y-69800000D03*
X158500000Y-69800000D03*
X191800000Y-69800000D03*
X196800000Y-72800000D03*
X192800000Y-69800000D03*
X183600000Y-66800000D03*
X175600000Y-73800000D03*
X158500000Y-66800000D03*
X176600000Y-71800000D03*
X157500000Y-66800000D03*
X175600000Y-72800000D03*
X194800000Y-66800000D03*
X159500000Y-69800000D03*
X163500000Y-69800000D03*
X193800000Y-67800000D03*
X196800000Y-66800000D03*
X179600000Y-67800000D03*
X179600000Y-69800000D03*
X162500000Y-72800000D03*
X174600000Y-72800000D03*
X182600000Y-66800000D03*
X195800000Y-67800000D03*
X164500000Y-68800000D03*
X198800000Y-73800000D03*
X178600000Y-67800000D03*
X177600000Y-70800000D03*
X193800000Y-69800000D03*
X194800000Y-73800000D03*
X159500000Y-73800000D03*
X179600000Y-68800000D03*
X178600000Y-68800000D03*
X183600000Y-71800000D03*
X159500000Y-72800000D03*
X163500000Y-72800000D03*
X198800000Y-70800000D03*
X178600000Y-72800000D03*
X180600000Y-68800000D03*
X175600000Y-69800000D03*
X197800000Y-73800000D03*
X194800000Y-69800000D03*
X179600000Y-66800000D03*
X181600000Y-67800000D03*
X164500000Y-67800000D03*
X180600000Y-69800000D03*
X164500000Y-72800000D03*
X176600000Y-67800000D03*
X197800000Y-69800000D03*
X200800000Y-68800000D03*
X175600000Y-68800000D03*
X194800000Y-72800000D03*
X177600000Y-72800000D03*
X200800000Y-67800000D03*
X197800000Y-67800000D03*
X198800000Y-68800000D03*
X199800000Y-71800000D03*
X160500000Y-69800000D03*
X178600000Y-66800000D03*
X178600000Y-69800000D03*
X183600000Y-70800000D03*
X174600000Y-71800000D03*
X162500000Y-68800000D03*
X166500000Y-70800000D03*
X163500000Y-70800000D03*
X191800000Y-73800000D03*
X182600000Y-73800000D03*
X177600000Y-73800000D03*
X198800000Y-71800000D03*
X175600000Y-71800000D03*
X196800000Y-69800000D03*
X181600000Y-68800000D03*
X191800000Y-68800000D03*
X193800000Y-66800000D03*
X198800000Y-66800000D03*
X183600000Y-73800000D03*
X195800000Y-69800000D03*
X195800000Y-68800000D03*
X162500000Y-67800000D03*
X166500000Y-71800000D03*
X163500000Y-71800000D03*
X192800000Y-67800000D03*
X182600000Y-72800000D03*
X195800000Y-70800000D03*
X178600000Y-70800000D03*
X162500000Y-66800000D03*
X158500000Y-67800000D03*
X164500000Y-69800000D03*
X192800000Y-68800000D03*
X157500000Y-71800000D03*
X176600000Y-70800000D03*
X191800000Y-72800000D03*
X175600000Y-70800000D03*
X199800000Y-72800000D03*
X199800000Y-69800000D03*
X196800000Y-73800000D03*
X160500000Y-68800000D03*
X180600000Y-72800000D03*
X198800000Y-67800000D03*
X162500000Y-69800000D03*
X161500000Y-69800000D03*
X159500000Y-70800000D03*
X192800000Y-71800000D03*
X165500000Y-72800000D03*
X179600000Y-73800000D03*
X200800000Y-71800000D03*
X199800000Y-73800000D03*
X183600000Y-67800000D03*
X180600000Y-71800000D03*
X165500000Y-66800000D03*
X178600000Y-71800000D03*
X162500000Y-73800000D03*
X192800000Y-70800000D03*
X164500000Y-73800000D03*
X157500000Y-72800000D03*
X176600000Y-72800000D03*
X195800000Y-71800000D03*
X197800000Y-70800000D03*
X163500000Y-66800000D03*
X158500000Y-72800000D03*
X165500000Y-69800000D03*
X165500000Y-71800000D03*
X176600000Y-73800000D03*
X166500000Y-68800000D03*
X166500000Y-66800000D03*
X191800000Y-66800000D03*
X177600000Y-67800000D03*
X191800000Y-71800000D03*
X193800000Y-70800000D03*
X194800000Y-70800000D03*
X181600000Y-72800000D03*
X181600000Y-73800000D03*
X164500000Y-66800000D03*
X181600000Y-66800000D03*
X194800000Y-67800000D03*
X196800000Y-68800000D03*
X158500000Y-70800000D03*
X176600000Y-69800000D03*
X180600000Y-66800000D03*
X200800000Y-70800000D03*
X159500000Y-67800000D03*
%TO.N,GND*%
X190200000Y-55600000D03*
X171000000Y-52400000D03*
X188200000Y-56600000D03*
X188200000Y-54600000D03*
X189200000Y-52600000D03*
X172000000Y-52400000D03*
X185200000Y-55600000D03*
X187200000Y-53600000D03*
X152000000Y-57400000D03*
X153000000Y-54400000D03*
X187200000Y-56600000D03*
X173000000Y-58400000D03*
X171000000Y-53400000D03*
X185200000Y-58600000D03*
X188200000Y-55600000D03*
X186200000Y-57600000D03*
X152000000Y-54400000D03*
X154000000Y-51400000D03*
X170000000Y-57400000D03*
X170000000Y-54400000D03*
X170000000Y-53400000D03*
X156000000Y-57400000D03*
X152000000Y-58400000D03*
X190200000Y-54600000D03*
X189200000Y-55600000D03*
X186200000Y-54600000D03*
X154000000Y-54400000D03*
X188200000Y-52600000D03*
X151000000Y-55400000D03*
X189200000Y-51600000D03*
X185200000Y-56600000D03*
X171000000Y-58400000D03*
X156000000Y-51400000D03*
X155000000Y-56400000D03*
X156000000Y-56400000D03*
X171000000Y-54400000D03*
X170000000Y-58400000D03*
X190200000Y-57600000D03*
X173000000Y-56400000D03*
X172000000Y-58400000D03*
X168000000Y-53400000D03*
X173000000Y-55400000D03*
X185200000Y-51600000D03*
X172000000Y-56400000D03*
X151000000Y-54400000D03*
X169000000Y-53400000D03*
X171000000Y-56400000D03*
X170000000Y-55400000D03*
X154000000Y-57400000D03*
X169000000Y-54400000D03*
X155000000Y-51400000D03*
X185200000Y-53600000D03*
X171000000Y-51400000D03*
X186200000Y-58600000D03*
X188200000Y-51600000D03*
X153000000Y-55400000D03*
X155000000Y-52400000D03*
X156000000Y-55400000D03*
X154000000Y-56400000D03*
X171000000Y-55400000D03*
X188200000Y-57600000D03*
X170000000Y-52400000D03*
X151000000Y-58400000D03*
X168000000Y-54400000D03*
X185200000Y-57600000D03*
X187200000Y-54600000D03*
X186200000Y-56600000D03*
X168000000Y-57400000D03*
X156000000Y-52400000D03*
X153000000Y-51400000D03*
X152000000Y-53400000D03*
X155000000Y-53400000D03*
X168000000Y-52400000D03*
X154000000Y-58400000D03*
X152000000Y-55400000D03*
X169000000Y-52400000D03*
X189200000Y-56600000D03*
X156000000Y-53400000D03*
X172000000Y-57400000D03*
X187200000Y-52600000D03*
X169000000Y-55400000D03*
X155000000Y-55400000D03*
X168000000Y-55400000D03*
X151000000Y-57400000D03*
X152000000Y-56400000D03*
X172000000Y-51400000D03*
X153000000Y-52400000D03*
X173000000Y-51400000D03*
X151000000Y-53400000D03*
X190200000Y-58600000D03*
X169000000Y-57400000D03*
X189200000Y-54600000D03*
X155000000Y-57400000D03*
X186200000Y-52600000D03*
X154000000Y-52400000D03*
X155000000Y-54400000D03*
X170000000Y-56400000D03*
X173000000Y-52400000D03*
X154000000Y-53400000D03*
X169000000Y-56400000D03*
X188200000Y-53600000D03*
X156000000Y-54400000D03*
X172000000Y-55400000D03*
X172000000Y-54400000D03*
X173000000Y-53400000D03*
X190200000Y-51600000D03*
X156000000Y-58400000D03*
X152000000Y-51400000D03*
X173000000Y-57400000D03*
X169000000Y-58400000D03*
X168000000Y-51400000D03*
X189200000Y-53600000D03*
X169000000Y-51400000D03*
X153000000Y-58400000D03*
X173000000Y-54400000D03*
X186200000Y-51600000D03*
X187200000Y-55600000D03*
X168000000Y-58400000D03*
X168000000Y-56400000D03*
X186200000Y-55600000D03*
X185200000Y-54600000D03*
X153000000Y-57400000D03*
X185200000Y-52600000D03*
X152000000Y-52400000D03*
X172000000Y-53400000D03*
X186200000Y-53600000D03*
X154000000Y-55400000D03*
X190200000Y-56600000D03*
X189200000Y-58600000D03*
X170000000Y-51400000D03*
X188200000Y-58600000D03*
X151000000Y-56400000D03*
X155000000Y-58400000D03*
X151000000Y-52400000D03*
X187200000Y-57600000D03*
X153000000Y-56400000D03*
X153000000Y-53400000D03*
X190200000Y-52600000D03*
X151000000Y-51400000D03*
X189200000Y-57600000D03*
X190200000Y-53600000D03*
X187200000Y-51600000D03*
X187200000Y-58600000D03*
X171000000Y-57400000D03*
%TO.N,PB_CUR1*%
X193500000Y-59000000D03*
X197500000Y-48750000D03*
X193500000Y-58000000D03*
X196500000Y-58000000D03*
X193500000Y-56000000D03*
X192500000Y-57000000D03*
X191500000Y-48750000D03*
X194500000Y-55000000D03*
X191500000Y-49750000D03*
X197500000Y-51000000D03*
X197500000Y-50000000D03*
X199500000Y-52000000D03*
X199500000Y-57000000D03*
X195500000Y-53000000D03*
X198500000Y-52000000D03*
X195500000Y-56000000D03*
X195500000Y-52000000D03*
X196500000Y-56000000D03*
X195500000Y-55000000D03*
X193500000Y-47750000D03*
X195500000Y-59000000D03*
X196500000Y-55000000D03*
X193500000Y-48750000D03*
X192500000Y-51000000D03*
X194500000Y-58000000D03*
X198500000Y-51000000D03*
X199500000Y-55000000D03*
X197500000Y-57000000D03*
X198500000Y-58000000D03*
X193500000Y-51000000D03*
X199500000Y-48750000D03*
X192500000Y-48750000D03*
X195500000Y-47750000D03*
X192500000Y-47750000D03*
X198500000Y-47750000D03*
X190500000Y-48750000D03*
X194500000Y-56000000D03*
X193500000Y-52000000D03*
X192500000Y-59000000D03*
X194500000Y-47750000D03*
X198500000Y-59000000D03*
X195500000Y-58000000D03*
X199500000Y-56000000D03*
X193500000Y-54000000D03*
X197500000Y-53000000D03*
X195500000Y-50000000D03*
X196500000Y-59000000D03*
X198500000Y-54000000D03*
X198500000Y-48750000D03*
X193500000Y-55000000D03*
X196500000Y-50000000D03*
X194500000Y-50000000D03*
X197500000Y-47750000D03*
X192500000Y-56000000D03*
X195500000Y-54000000D03*
X198500000Y-56000000D03*
X192500000Y-53000000D03*
X194500000Y-51000000D03*
X196500000Y-53000000D03*
X199500000Y-54000000D03*
X199500000Y-58000000D03*
X197500000Y-54000000D03*
X193500000Y-50000000D03*
X196500000Y-54000000D03*
X199500000Y-47750000D03*
X194500000Y-48750000D03*
X194500000Y-59000000D03*
X190500000Y-47750000D03*
X198500000Y-53000000D03*
X198500000Y-57000000D03*
X194500000Y-52000000D03*
X197500000Y-52000000D03*
X192500000Y-52000000D03*
X197500000Y-56000000D03*
X196500000Y-48750000D03*
X195500000Y-57000000D03*
X199500000Y-50000000D03*
X197500000Y-59000000D03*
X193500000Y-53000000D03*
X199500000Y-51000000D03*
X199500000Y-59000000D03*
X193500000Y-57000000D03*
X192500000Y-50000000D03*
X194500000Y-53000000D03*
X196500000Y-57000000D03*
X196500000Y-52000000D03*
X196500000Y-51000000D03*
X191500000Y-47750000D03*
X192500000Y-54000000D03*
X197500000Y-55000000D03*
X199500000Y-53000000D03*
X195500000Y-51000000D03*
X194500000Y-54000000D03*
X192500000Y-58000000D03*
X197500000Y-58000000D03*
X192500000Y-55000000D03*
X195500000Y-48750000D03*
X198500000Y-55000000D03*
X198500000Y-50000000D03*
X196500000Y-47750000D03*
X194500000Y-57000000D03*
%TO.N,OUT_B*%
X193500000Y-42250000D03*
X192500000Y-38250000D03*
X191500000Y-43250000D03*
X191500000Y-41250000D03*
X191500000Y-42250000D03*
X193500000Y-43250000D03*
X196500000Y-43250000D03*
X198500000Y-40250000D03*
X196500000Y-42250000D03*
X195500000Y-40250000D03*
X197500000Y-40250000D03*
X191500000Y-38250000D03*
X196500000Y-38250000D03*
X195500000Y-42250000D03*
X189500000Y-40250000D03*
X200500000Y-41750000D03*
X199500000Y-37750000D03*
X193500000Y-40250000D03*
X192500000Y-42250000D03*
X200500000Y-36750000D03*
X200500000Y-37750000D03*
X199500000Y-39750000D03*
X194500000Y-43250000D03*
X193500000Y-37250000D03*
X191500000Y-40250000D03*
X195500000Y-41250000D03*
X197500000Y-38250000D03*
X200500000Y-38750000D03*
X194500000Y-41250000D03*
X197500000Y-41250000D03*
X195500000Y-37250000D03*
X196500000Y-39250000D03*
X195500000Y-38250000D03*
X192500000Y-40250000D03*
X191500000Y-37250000D03*
X195500000Y-43250000D03*
X189500000Y-41250000D03*
X200500000Y-40750000D03*
X197500000Y-37250000D03*
X190500000Y-43250000D03*
X189500000Y-38250000D03*
X190500000Y-41250000D03*
X189500000Y-39250000D03*
X192500000Y-41250000D03*
X198500000Y-43250000D03*
X194500000Y-39250000D03*
X193500000Y-41250000D03*
X189500000Y-37250000D03*
X198500000Y-39250000D03*
X196500000Y-37250000D03*
X194500000Y-37250000D03*
X193500000Y-38250000D03*
X194500000Y-38250000D03*
X190500000Y-38250000D03*
X198500000Y-38250000D03*
X192500000Y-37250000D03*
X199500000Y-40750000D03*
X197500000Y-39250000D03*
X199500000Y-42750000D03*
X193500000Y-39250000D03*
X190500000Y-39250000D03*
X198500000Y-37250000D03*
X198500000Y-42250000D03*
X190500000Y-37250000D03*
X200500000Y-39750000D03*
X190500000Y-42250000D03*
X194500000Y-42250000D03*
X196500000Y-41250000D03*
X199500000Y-38750000D03*
X197500000Y-42250000D03*
X196500000Y-40250000D03*
X189500000Y-42250000D03*
X189500000Y-43250000D03*
X191500000Y-39250000D03*
X199500000Y-36750000D03*
X190500000Y-40250000D03*
X194500000Y-40250000D03*
X192500000Y-39250000D03*
X199500000Y-41750000D03*
X192500000Y-43250000D03*
X198500000Y-41250000D03*
X197500000Y-43250000D03*
X195500000Y-39250000D03*
%TO.N,PB_IN_L*%
X189600000Y-44950000D03*
%TO.N,OUT_C*%
X183000000Y-38250000D03*
X183000000Y-41250000D03*
X173000000Y-38250000D03*
X177000000Y-42250000D03*
X183000000Y-40250000D03*
X175000000Y-41250000D03*
X173000000Y-37250000D03*
X173000000Y-43250000D03*
X172000000Y-39250000D03*
X178000000Y-38250000D03*
X174000000Y-39250000D03*
X179000000Y-40250000D03*
X182000000Y-39250000D03*
X180000000Y-38250000D03*
X172000000Y-41250000D03*
X172000000Y-42250000D03*
X175000000Y-38250000D03*
X173000000Y-40250000D03*
X181000000Y-37250000D03*
X180000000Y-43250000D03*
X180000000Y-37250000D03*
X177000000Y-40250000D03*
X177000000Y-38250000D03*
X183000000Y-42250000D03*
X182000000Y-41250000D03*
X176000000Y-38250000D03*
X172000000Y-37250000D03*
X179000000Y-37250000D03*
X177000000Y-39250000D03*
X181000000Y-43250000D03*
X176000000Y-39250000D03*
X176000000Y-40250000D03*
X175000000Y-40250000D03*
X180000000Y-40250000D03*
X174000000Y-43250000D03*
X182000000Y-43250000D03*
X180000000Y-42250000D03*
X179000000Y-42250000D03*
X183000000Y-37250000D03*
X176000000Y-37250000D03*
X175000000Y-39250000D03*
X178000000Y-37250000D03*
X177000000Y-41250000D03*
X175000000Y-42250000D03*
X173000000Y-42250000D03*
X182000000Y-40250000D03*
X181000000Y-39250000D03*
X181000000Y-41250000D03*
X182000000Y-37250000D03*
X175000000Y-43250000D03*
X174000000Y-37250000D03*
X177000000Y-43250000D03*
X173000000Y-41250000D03*
X172000000Y-40250000D03*
X176000000Y-43250000D03*
X178000000Y-42250000D03*
X179000000Y-38250000D03*
X175000000Y-37250000D03*
X183000000Y-39250000D03*
X172000000Y-38250000D03*
X174000000Y-38250000D03*
X174000000Y-40250000D03*
X181000000Y-42250000D03*
X180000000Y-41250000D03*
X178000000Y-39250000D03*
X172000000Y-43250000D03*
X176000000Y-42250000D03*
X183000000Y-43250000D03*
X176000000Y-41250000D03*
X182000000Y-42250000D03*
X178000000Y-41250000D03*
X182000000Y-38250000D03*
X174000000Y-41250000D03*
X180000000Y-39250000D03*
X181000000Y-38250000D03*
X177000000Y-37250000D03*
X178000000Y-43250000D03*
X179000000Y-41250000D03*
X173000000Y-39250000D03*
X174000000Y-42250000D03*
X181000000Y-40250000D03*
X179000000Y-39250000D03*
X178000000Y-40250000D03*
X179000000Y-43250000D03*
%TO.N,PC_CUR1*%
X180250000Y-47750000D03*
X182200000Y-50900000D03*
X180200000Y-57900000D03*
X177200000Y-52900000D03*
X178200000Y-51900000D03*
X177200000Y-58900000D03*
X178200000Y-50900000D03*
X177200000Y-56900000D03*
X178250000Y-48750000D03*
X180200000Y-58900000D03*
X180200000Y-50900000D03*
X182200000Y-54900000D03*
X178200000Y-55900000D03*
X174000000Y-49750000D03*
X180200000Y-52900000D03*
X177200000Y-50900000D03*
X176200000Y-53900000D03*
X175200000Y-56900000D03*
X176200000Y-57900000D03*
X178250000Y-47750000D03*
X182200000Y-52900000D03*
X172250000Y-47750000D03*
X178200000Y-54900000D03*
X174250000Y-47750000D03*
X182200000Y-57900000D03*
X180200000Y-54900000D03*
X181200000Y-57900000D03*
X181200000Y-55900000D03*
X176200000Y-51900000D03*
X179200000Y-49900000D03*
X177250000Y-48750000D03*
X182200000Y-56900000D03*
X180200000Y-51900000D03*
X180200000Y-55900000D03*
X175200000Y-53900000D03*
X175250000Y-48750000D03*
X181250000Y-47750000D03*
X176200000Y-49900000D03*
X178200000Y-58900000D03*
X178200000Y-53900000D03*
X175200000Y-49900000D03*
X175200000Y-51900000D03*
X181200000Y-54900000D03*
X173250000Y-48750000D03*
X176200000Y-58900000D03*
X179250000Y-47750000D03*
X175200000Y-50900000D03*
X179200000Y-52900000D03*
X178200000Y-57900000D03*
X178200000Y-49900000D03*
X182200000Y-58900000D03*
X176200000Y-56900000D03*
X176200000Y-52900000D03*
X180250000Y-48750000D03*
X175200000Y-54900000D03*
X177200000Y-49900000D03*
X179200000Y-53900000D03*
X176200000Y-54900000D03*
X182200000Y-55900000D03*
X179200000Y-56900000D03*
X177200000Y-51900000D03*
X175200000Y-55900000D03*
X181200000Y-51900000D03*
X179200000Y-54900000D03*
X176200000Y-55900000D03*
X174250000Y-48750000D03*
X175200000Y-57900000D03*
X180200000Y-56900000D03*
X181200000Y-58900000D03*
X177200000Y-55900000D03*
X180200000Y-49900000D03*
X182250000Y-47750000D03*
X182250000Y-48750000D03*
X180200000Y-53900000D03*
X178200000Y-56900000D03*
X177200000Y-54900000D03*
X182200000Y-53900000D03*
X181250000Y-48750000D03*
X175250000Y-47750000D03*
X181200000Y-50900000D03*
X181200000Y-49900000D03*
X173250000Y-47750000D03*
X177200000Y-53900000D03*
X179200000Y-50900000D03*
X179200000Y-58900000D03*
X182200000Y-51900000D03*
X181200000Y-52900000D03*
X177200000Y-57900000D03*
X181200000Y-53900000D03*
X176200000Y-50900000D03*
X182200000Y-49900000D03*
X177250000Y-47750000D03*
X179250000Y-48750000D03*
X175200000Y-52900000D03*
X181200000Y-56900000D03*
X178200000Y-52900000D03*
X176250000Y-47750000D03*
X179200000Y-55900000D03*
X179200000Y-51900000D03*
X175200000Y-58900000D03*
X179200000Y-57900000D03*
X176250000Y-48750000D03*
%TO.N,PC_IN_L*%
X172550000Y-44950000D03*
%TO.N,OUT_A*%
X164500000Y-40250000D03*
X158500000Y-38250000D03*
X165500000Y-40250000D03*
X154500000Y-40250000D03*
X160500000Y-41250000D03*
X157500000Y-43250000D03*
X163500000Y-37250000D03*
X155500000Y-41250000D03*
X163500000Y-38250000D03*
X162500000Y-42250000D03*
X163500000Y-40250000D03*
X156500000Y-37250000D03*
X165500000Y-39250000D03*
X164500000Y-37250000D03*
X154500000Y-41250000D03*
X155500000Y-43250000D03*
X158500000Y-39250000D03*
X164500000Y-43250000D03*
X158500000Y-40250000D03*
X156500000Y-43250000D03*
X159500000Y-43250000D03*
X155500000Y-39250000D03*
X163500000Y-43250000D03*
X159500000Y-40250000D03*
X165500000Y-38250000D03*
X162500000Y-41250000D03*
X165500000Y-43250000D03*
X155500000Y-38250000D03*
X160500000Y-39250000D03*
X161500000Y-43250000D03*
X159500000Y-42250000D03*
X164500000Y-38250000D03*
X155500000Y-40250000D03*
X159500000Y-38250000D03*
X156500000Y-38250000D03*
X162500000Y-43250000D03*
X163500000Y-42250000D03*
X161500000Y-38250000D03*
X158500000Y-42250000D03*
X156500000Y-41250000D03*
X156500000Y-42250000D03*
X157500000Y-39250000D03*
X165500000Y-41250000D03*
X163500000Y-39250000D03*
X158500000Y-41250000D03*
X160500000Y-40250000D03*
X157500000Y-40250000D03*
X158500000Y-37250000D03*
X162500000Y-38250000D03*
X164500000Y-42250000D03*
X165500000Y-37250000D03*
X160500000Y-37250000D03*
X157500000Y-38250000D03*
X159500000Y-41250000D03*
X163500000Y-41250000D03*
X160500000Y-43250000D03*
X162500000Y-37250000D03*
X162500000Y-40250000D03*
X157500000Y-37250000D03*
X161500000Y-37250000D03*
X157500000Y-42250000D03*
X154500000Y-39250000D03*
X162500000Y-39250000D03*
X156500000Y-39250000D03*
X157500000Y-41250000D03*
X164500000Y-41250000D03*
X160500000Y-42250000D03*
X161500000Y-42250000D03*
X160500000Y-38250000D03*
X154500000Y-37250000D03*
X165500000Y-42250000D03*
X164500000Y-39250000D03*
X159500000Y-39250000D03*
X154500000Y-38250000D03*
X156500000Y-40250000D03*
X161500000Y-40250000D03*
X155500000Y-42250000D03*
X161500000Y-41250000D03*
X159500000Y-37250000D03*
X161500000Y-39250000D03*
X158500000Y-43250000D03*
X155500000Y-37250000D03*
%TO.N,PA_CUR1*%
X156250000Y-47750000D03*
X162200000Y-55000000D03*
X164200000Y-57000000D03*
X160200000Y-55000000D03*
X158200000Y-52000000D03*
X164200000Y-53000000D03*
X160200000Y-50000000D03*
X159250000Y-47750000D03*
X158200000Y-54000000D03*
X157000000Y-49750000D03*
X164200000Y-51000000D03*
X157250000Y-48750000D03*
X159200000Y-51000000D03*
X165200000Y-53000000D03*
X163200000Y-50000000D03*
X164200000Y-54000000D03*
X160200000Y-52000000D03*
X161200000Y-58000000D03*
X161250000Y-48750000D03*
X162200000Y-52000000D03*
X160200000Y-59000000D03*
X165250000Y-47750000D03*
X163200000Y-56000000D03*
X165200000Y-55000000D03*
X162250000Y-47750000D03*
X163200000Y-59000000D03*
X164200000Y-59000000D03*
X161200000Y-50000000D03*
X164200000Y-58000000D03*
X162200000Y-50000000D03*
X160200000Y-56000000D03*
X159250000Y-48750000D03*
X159200000Y-59000000D03*
X159200000Y-54000000D03*
X159200000Y-50000000D03*
X162200000Y-53000000D03*
X160250000Y-48750000D03*
X163200000Y-58000000D03*
X161200000Y-52000000D03*
X163200000Y-57000000D03*
X164200000Y-52000000D03*
X162200000Y-56000000D03*
X165200000Y-52000000D03*
X158200000Y-57000000D03*
X165200000Y-54000000D03*
X163200000Y-53000000D03*
X163250000Y-47750000D03*
X159200000Y-55000000D03*
X155250000Y-47750000D03*
X164250000Y-47750000D03*
X161200000Y-56000000D03*
X164250000Y-48750000D03*
X164200000Y-56000000D03*
X165250000Y-48750000D03*
X162200000Y-57000000D03*
X161200000Y-51000000D03*
X160200000Y-57000000D03*
X160250000Y-47750000D03*
X158250000Y-48750000D03*
X165200000Y-58000000D03*
X164200000Y-55000000D03*
X159200000Y-53000000D03*
X159200000Y-52000000D03*
X161200000Y-55000000D03*
X161200000Y-54000000D03*
X164200000Y-50000000D03*
X165200000Y-59000000D03*
X159200000Y-58000000D03*
X161250000Y-47750000D03*
X156250000Y-48750000D03*
X162200000Y-58000000D03*
X163200000Y-51000000D03*
X158200000Y-55000000D03*
X159200000Y-56000000D03*
X163200000Y-52000000D03*
X160200000Y-54000000D03*
X162200000Y-51000000D03*
X160200000Y-58000000D03*
X165200000Y-50000000D03*
X158200000Y-58000000D03*
X158200000Y-59000000D03*
X157250000Y-47750000D03*
X160200000Y-53000000D03*
X163250000Y-48750000D03*
X163200000Y-54000000D03*
X162200000Y-54000000D03*
X159200000Y-57000000D03*
X162200000Y-59000000D03*
X165200000Y-56000000D03*
X158200000Y-53000000D03*
X158200000Y-56000000D03*
X163200000Y-55000000D03*
X161200000Y-57000000D03*
X158200000Y-50000000D03*
X160200000Y-51000000D03*
X161200000Y-53000000D03*
X161200000Y-59000000D03*
X162250000Y-48750000D03*
X165200000Y-57000000D03*
X158200000Y-51000000D03*
X158250000Y-47750000D03*
%TO.N,PA_IN_L*%
X155750000Y-44750000D03*
%TD*%
D28*
%TO.N,Net-(C1-Pad2)*%
X151900000Y-63550000D02*
X151900000Y-64600000D01*
%TO.N,GND*%
X151900000Y-60600000D02*
X155150000Y-60600000D01*
X168950000Y-60750000D02*
X172200000Y-60750000D01*
X186050000Y-60700000D02*
X189300000Y-60700000D01*
%TO.N,Net-(C13-Pad2)*%
X155150000Y-64350000D02*
X155200000Y-64400000D01*
X155150000Y-63550000D02*
X155150000Y-64350000D01*
%TO.N,Net-(C10-Pad1)*%
X168950000Y-63700000D02*
X168950000Y-64600000D01*
%TO.N,Net-(C4-Pad1)*%
X189300000Y-63650000D02*
X189300000Y-64300000D01*
%TO.N,Net-(C11-Pad1)*%
X172200000Y-63700000D02*
X172200000Y-64600000D01*
D29*
%TO.N,PB_IN_H*%
X205100000Y-43900000D02*
X205100000Y-43450000D01*
X201000000Y-48000000D02*
X205100000Y-43900000D01*
X202000000Y-58110000D02*
X201000000Y-57110000D01*
X201000000Y-57110000D02*
X201000000Y-48000000D01*
%TO.N,PB_CUR1*%
X198550000Y-47800000D02*
X202560000Y-43790000D01*
X202460000Y-43480000D02*
X205000000Y-40940000D01*
X202560000Y-43790000D02*
X202560000Y-43450000D01*
D30*
%TO.N,OUT_B*%
X190850000Y-41875000D02*
X198550000Y-41875000D01*
D29*
X202160000Y-40940000D02*
X199485000Y-40940000D01*
X199485000Y-40940000D02*
X198550000Y-41875000D01*
%TO.N,PB_IN_L*%
X189390000Y-46110000D02*
X187500000Y-46110000D01*
X189600000Y-45900000D02*
X189390000Y-46110000D01*
X189600000Y-44950000D02*
X189600000Y-45900000D01*
%TO.N,PC_IN_H*%
X187250000Y-43860000D02*
X185000000Y-46110000D01*
X187250000Y-43500000D02*
X187250000Y-43860000D01*
%TO.N,OUT_C*%
X183832500Y-41837500D02*
X184710000Y-40960000D01*
X181150000Y-41837500D02*
X183832500Y-41837500D01*
%TO.N,PC_CUR1*%
X181150000Y-47762500D02*
X181150000Y-47060000D01*
X181150000Y-47060000D02*
X184710000Y-43500000D01*
X184710000Y-43500000D02*
X187250000Y-40960000D01*
%TO.N,PC_IN_L*%
X171390000Y-46110000D02*
X170000000Y-46110000D01*
X172550000Y-44950000D02*
X171390000Y-46110000D01*
%TO.N,PA_IN_H*%
X167500000Y-46065000D02*
X170025000Y-43540000D01*
X167500000Y-46110000D02*
X167500000Y-46065000D01*
%TO.N,OUT_A*%
X164450000Y-41500000D02*
X164050000Y-41900000D01*
X164050000Y-41900000D02*
X166585000Y-41900000D01*
X166585000Y-41900000D02*
X167485000Y-41000000D01*
%TO.N,PA_CUR1*%
X167485000Y-43540000D02*
X170025000Y-41000000D01*
X164050000Y-46975000D02*
X167485000Y-43540000D01*
X164050000Y-47825000D02*
X164050000Y-46975000D01*
%TO.N,PA_IN_L*%
X154000000Y-46500000D02*
X153000000Y-46500000D01*
X155750000Y-44750000D02*
X154000000Y-46500000D01*
D31*
%TO.N,Net-(Q1-G)*%
X166250000Y-60950000D02*
X166250000Y-62400000D01*
X166700000Y-60500000D02*
X166250000Y-60950000D01*
X166700000Y-48690000D02*
X166700000Y-60500000D01*
X167500000Y-47890000D02*
X166700000Y-48690000D01*
%TO.N,Net-(Q2-G)*%
X153800000Y-50170000D02*
X153070000Y-50170000D01*
X152300000Y-48980000D02*
X152300000Y-49400000D01*
X153070000Y-50170000D02*
X152300000Y-49400000D01*
X153000000Y-48280000D02*
X152300000Y-48980000D01*
D28*
%TO.N,Net-(C6-Pad1)*%
X186050000Y-63650000D02*
X186050000Y-64600000D01*
D29*
%TO.N,Net-(Q3-G)*%
X200400000Y-62400000D02*
X200400000Y-61490000D01*
X200400000Y-61490000D02*
X202000000Y-59890000D01*
D31*
%TO.N,Net-(Q4-G)*%
X186500000Y-48890000D02*
X187500000Y-47890000D01*
X186500000Y-50000000D02*
X186500000Y-48890000D01*
X188120000Y-50300000D02*
X186800000Y-50300000D01*
X186800000Y-50300000D02*
X186500000Y-50000000D01*
%TO.N,Net-(Q5-G)*%
X183800000Y-60300000D02*
X183300000Y-60800000D01*
X183300000Y-60800000D02*
X183300000Y-62400000D01*
X183800000Y-49090000D02*
X183800000Y-60300000D01*
X185000000Y-47890000D02*
X183800000Y-49090000D01*
%TO.N,Net-(Q6-G)*%
X169900000Y-50200000D02*
X169400000Y-49700000D01*
X170820000Y-50200000D02*
X169900000Y-50200000D01*
X169400000Y-48490000D02*
X170000000Y-47890000D01*
X169400000Y-49700000D02*
X169400000Y-48490000D01*
%TD*%
%TA.AperFunction,Conductor*%
%TO.N,VBAT*%
G36*
X201588903Y-77082562D02*
G01*
X201588905Y-77082565D01*
X201753265Y-77344143D01*
X201945880Y-77585674D01*
X202164326Y-77804120D01*
X202405857Y-77996735D01*
X202667435Y-78161095D01*
X202945771Y-78295135D01*
X202945777Y-78295137D01*
X203237352Y-78397164D01*
X203237364Y-78397168D01*
X203538548Y-78465911D01*
X203538554Y-78465911D01*
X203538562Y-78465913D01*
X203743206Y-78488970D01*
X203845529Y-78500499D01*
X203845532Y-78500500D01*
X203845535Y-78500500D01*
X204154468Y-78500500D01*
X204154469Y-78500499D01*
X204311356Y-78482822D01*
X204461437Y-78465913D01*
X204461442Y-78465912D01*
X204461452Y-78465911D01*
X204762636Y-78397168D01*
X205054229Y-78295135D01*
X205332565Y-78161095D01*
X205594143Y-77996735D01*
X205835674Y-77804120D01*
X206054120Y-77585674D01*
X206246735Y-77344143D01*
X206270506Y-77306312D01*
X206322840Y-77260020D01*
X206391893Y-77249371D01*
X206455742Y-77277746D01*
X206494114Y-77336135D01*
X206499500Y-77372283D01*
X206499500Y-120175461D01*
X206479815Y-120242500D01*
X206427011Y-120288255D01*
X206375393Y-120299461D01*
X164500000Y-120263362D01*
X164500000Y-119750000D01*
X149500500Y-119750000D01*
X149500500Y-100338549D01*
X159899500Y-100338549D01*
X159899500Y-100561450D01*
X159899501Y-100561466D01*
X159928594Y-100782452D01*
X159928595Y-100782457D01*
X159928596Y-100782463D01*
X159928597Y-100782465D01*
X159986290Y-100997780D01*
X159986293Y-100997790D01*
X160071593Y-101203722D01*
X160071595Y-101203726D01*
X160183052Y-101396774D01*
X160183057Y-101396780D01*
X160183058Y-101396782D01*
X160318751Y-101573622D01*
X160318757Y-101573629D01*
X160476370Y-101731242D01*
X160476376Y-101731247D01*
X160653226Y-101866948D01*
X160846274Y-101978405D01*
X161052219Y-102063710D01*
X161267537Y-102121404D01*
X161488543Y-102150500D01*
X161488550Y-102150500D01*
X161711450Y-102150500D01*
X161711457Y-102150500D01*
X161932463Y-102121404D01*
X162147781Y-102063710D01*
X162353726Y-101978405D01*
X162546774Y-101866948D01*
X162723624Y-101731247D01*
X162881247Y-101573624D01*
X163016948Y-101396774D01*
X163128405Y-101203726D01*
X163213710Y-100997781D01*
X163271404Y-100782463D01*
X163300500Y-100561457D01*
X163300500Y-100338549D01*
X177449500Y-100338549D01*
X177449500Y-100561450D01*
X177449501Y-100561466D01*
X177478594Y-100782452D01*
X177478595Y-100782457D01*
X177478596Y-100782463D01*
X177478597Y-100782465D01*
X177536290Y-100997780D01*
X177536293Y-100997790D01*
X177621593Y-101203722D01*
X177621595Y-101203726D01*
X177733052Y-101396774D01*
X177733057Y-101396780D01*
X177733058Y-101396782D01*
X177868751Y-101573622D01*
X177868757Y-101573629D01*
X178026370Y-101731242D01*
X178026376Y-101731247D01*
X178203226Y-101866948D01*
X178396274Y-101978405D01*
X178602219Y-102063710D01*
X178817537Y-102121404D01*
X179038543Y-102150500D01*
X179038550Y-102150500D01*
X179261450Y-102150500D01*
X179261457Y-102150500D01*
X179482463Y-102121404D01*
X179697781Y-102063710D01*
X179903726Y-101978405D01*
X180096774Y-101866948D01*
X180273624Y-101731247D01*
X180431247Y-101573624D01*
X180566948Y-101396774D01*
X180678405Y-101203726D01*
X180763710Y-100997781D01*
X180821404Y-100782463D01*
X180850500Y-100561457D01*
X180850500Y-100338549D01*
X194999500Y-100338549D01*
X194999500Y-100561450D01*
X194999501Y-100561466D01*
X195028594Y-100782452D01*
X195028595Y-100782457D01*
X195028596Y-100782463D01*
X195028597Y-100782465D01*
X195086290Y-100997780D01*
X195086293Y-100997790D01*
X195171593Y-101203722D01*
X195171595Y-101203726D01*
X195283052Y-101396774D01*
X195283057Y-101396780D01*
X195283058Y-101396782D01*
X195418751Y-101573622D01*
X195418757Y-101573629D01*
X195576370Y-101731242D01*
X195576376Y-101731247D01*
X195753226Y-101866948D01*
X195946274Y-101978405D01*
X196152219Y-102063710D01*
X196367537Y-102121404D01*
X196588543Y-102150500D01*
X196588550Y-102150500D01*
X196811450Y-102150500D01*
X196811457Y-102150500D01*
X197032463Y-102121404D01*
X197247781Y-102063710D01*
X197453726Y-101978405D01*
X197646774Y-101866948D01*
X197823624Y-101731247D01*
X197981247Y-101573624D01*
X198116948Y-101396774D01*
X198228405Y-101203726D01*
X198313710Y-100997781D01*
X198371404Y-100782463D01*
X198400500Y-100561457D01*
X198400500Y-100338543D01*
X198371404Y-100117537D01*
X198313710Y-99902219D01*
X198228405Y-99696274D01*
X198116948Y-99503226D01*
X197981247Y-99326376D01*
X197981242Y-99326370D01*
X197823629Y-99168757D01*
X197823622Y-99168751D01*
X197646782Y-99033058D01*
X197646780Y-99033057D01*
X197646774Y-99033052D01*
X197453726Y-98921595D01*
X197453722Y-98921593D01*
X197247790Y-98836293D01*
X197247783Y-98836291D01*
X197247781Y-98836290D01*
X197032463Y-98778596D01*
X197032457Y-98778595D01*
X197032452Y-98778594D01*
X196811466Y-98749501D01*
X196811463Y-98749500D01*
X196811457Y-98749500D01*
X196588543Y-98749500D01*
X196588537Y-98749500D01*
X196588533Y-98749501D01*
X196367547Y-98778594D01*
X196367540Y-98778595D01*
X196367537Y-98778596D01*
X196152219Y-98836290D01*
X196152209Y-98836293D01*
X195946277Y-98921593D01*
X195946273Y-98921595D01*
X195753226Y-99033052D01*
X195753217Y-99033058D01*
X195576377Y-99168751D01*
X195576370Y-99168757D01*
X195418757Y-99326370D01*
X195418751Y-99326377D01*
X195283058Y-99503217D01*
X195283052Y-99503226D01*
X195171595Y-99696273D01*
X195171593Y-99696277D01*
X195086293Y-99902209D01*
X195086290Y-99902219D01*
X195028597Y-100117534D01*
X195028594Y-100117547D01*
X194999501Y-100338533D01*
X194999500Y-100338549D01*
X180850500Y-100338549D01*
X180850500Y-100338543D01*
X180821404Y-100117537D01*
X180763710Y-99902219D01*
X180678405Y-99696274D01*
X180566948Y-99503226D01*
X180431247Y-99326376D01*
X180431242Y-99326370D01*
X180273629Y-99168757D01*
X180273622Y-99168751D01*
X180096782Y-99033058D01*
X180096780Y-99033057D01*
X180096774Y-99033052D01*
X179903726Y-98921595D01*
X179903722Y-98921593D01*
X179697790Y-98836293D01*
X179697783Y-98836291D01*
X179697781Y-98836290D01*
X179482463Y-98778596D01*
X179482457Y-98778595D01*
X179482452Y-98778594D01*
X179261466Y-98749501D01*
X179261463Y-98749500D01*
X179261457Y-98749500D01*
X179038543Y-98749500D01*
X179038537Y-98749500D01*
X179038533Y-98749501D01*
X178817547Y-98778594D01*
X178817540Y-98778595D01*
X178817537Y-98778596D01*
X178602219Y-98836290D01*
X178602209Y-98836293D01*
X178396277Y-98921593D01*
X178396273Y-98921595D01*
X178203226Y-99033052D01*
X178203217Y-99033058D01*
X178026377Y-99168751D01*
X178026370Y-99168757D01*
X177868757Y-99326370D01*
X177868751Y-99326377D01*
X177733058Y-99503217D01*
X177733052Y-99503226D01*
X177621595Y-99696273D01*
X177621593Y-99696277D01*
X177536293Y-99902209D01*
X177536290Y-99902219D01*
X177478597Y-100117534D01*
X177478594Y-100117547D01*
X177449501Y-100338533D01*
X177449500Y-100338549D01*
X163300500Y-100338549D01*
X163300500Y-100338543D01*
X163271404Y-100117537D01*
X163213710Y-99902219D01*
X163128405Y-99696274D01*
X163016948Y-99503226D01*
X162881247Y-99326376D01*
X162881242Y-99326370D01*
X162723629Y-99168757D01*
X162723622Y-99168751D01*
X162546782Y-99033058D01*
X162546780Y-99033057D01*
X162546774Y-99033052D01*
X162353726Y-98921595D01*
X162353722Y-98921593D01*
X162147790Y-98836293D01*
X162147783Y-98836291D01*
X162147781Y-98836290D01*
X161932463Y-98778596D01*
X161932457Y-98778595D01*
X161932452Y-98778594D01*
X161711466Y-98749501D01*
X161711463Y-98749500D01*
X161711457Y-98749500D01*
X161488543Y-98749500D01*
X161488537Y-98749500D01*
X161488533Y-98749501D01*
X161267547Y-98778594D01*
X161267540Y-98778595D01*
X161267537Y-98778596D01*
X161052219Y-98836290D01*
X161052209Y-98836293D01*
X160846277Y-98921593D01*
X160846273Y-98921595D01*
X160653226Y-99033052D01*
X160653217Y-99033058D01*
X160476377Y-99168751D01*
X160476370Y-99168757D01*
X160318757Y-99326370D01*
X160318751Y-99326377D01*
X160183058Y-99503217D01*
X160183052Y-99503226D01*
X160071595Y-99696273D01*
X160071593Y-99696277D01*
X159986293Y-99902209D01*
X159986290Y-99902219D01*
X159928597Y-100117534D01*
X159928594Y-100117547D01*
X159899501Y-100338533D01*
X159899500Y-100338549D01*
X149500500Y-100338549D01*
X149500500Y-83638549D01*
X159749500Y-83638549D01*
X159749500Y-83861450D01*
X159749501Y-83861466D01*
X159778594Y-84082452D01*
X159778595Y-84082457D01*
X159778596Y-84082463D01*
X159778597Y-84082465D01*
X159836290Y-84297780D01*
X159836293Y-84297790D01*
X159921593Y-84503722D01*
X159921595Y-84503726D01*
X160033052Y-84696774D01*
X160033057Y-84696780D01*
X160033058Y-84696782D01*
X160168751Y-84873622D01*
X160168757Y-84873629D01*
X160326370Y-85031242D01*
X160326376Y-85031247D01*
X160503226Y-85166948D01*
X160696274Y-85278405D01*
X160902219Y-85363710D01*
X161117537Y-85421404D01*
X161338543Y-85450500D01*
X161338550Y-85450500D01*
X161561450Y-85450500D01*
X161561457Y-85450500D01*
X161782463Y-85421404D01*
X161997781Y-85363710D01*
X162203726Y-85278405D01*
X162396774Y-85166948D01*
X162573624Y-85031247D01*
X162731247Y-84873624D01*
X162866948Y-84696774D01*
X162978405Y-84503726D01*
X163063710Y-84297781D01*
X163121404Y-84082463D01*
X163150500Y-83861457D01*
X163150500Y-83638549D01*
X177299500Y-83638549D01*
X177299500Y-83861450D01*
X177299501Y-83861466D01*
X177328594Y-84082452D01*
X177328595Y-84082457D01*
X177328596Y-84082463D01*
X177328597Y-84082465D01*
X177386290Y-84297780D01*
X177386293Y-84297790D01*
X177471593Y-84503722D01*
X177471595Y-84503726D01*
X177583052Y-84696774D01*
X177583057Y-84696780D01*
X177583058Y-84696782D01*
X177718751Y-84873622D01*
X177718757Y-84873629D01*
X177876370Y-85031242D01*
X177876376Y-85031247D01*
X178053226Y-85166948D01*
X178246274Y-85278405D01*
X178452219Y-85363710D01*
X178667537Y-85421404D01*
X178888543Y-85450500D01*
X178888550Y-85450500D01*
X179111450Y-85450500D01*
X179111457Y-85450500D01*
X179332463Y-85421404D01*
X179547781Y-85363710D01*
X179753726Y-85278405D01*
X179946774Y-85166948D01*
X180123624Y-85031247D01*
X180281247Y-84873624D01*
X180416948Y-84696774D01*
X180528405Y-84503726D01*
X180613710Y-84297781D01*
X180671404Y-84082463D01*
X180700500Y-83861457D01*
X180700500Y-83638549D01*
X194849500Y-83638549D01*
X194849500Y-83861450D01*
X194849501Y-83861466D01*
X194878594Y-84082452D01*
X194878595Y-84082457D01*
X194878596Y-84082463D01*
X194878597Y-84082465D01*
X194936290Y-84297780D01*
X194936293Y-84297790D01*
X195021593Y-84503722D01*
X195021595Y-84503726D01*
X195133052Y-84696774D01*
X195133057Y-84696780D01*
X195133058Y-84696782D01*
X195268751Y-84873622D01*
X195268757Y-84873629D01*
X195426370Y-85031242D01*
X195426376Y-85031247D01*
X195603226Y-85166948D01*
X195796274Y-85278405D01*
X196002219Y-85363710D01*
X196217537Y-85421404D01*
X196438543Y-85450500D01*
X196438550Y-85450500D01*
X196661450Y-85450500D01*
X196661457Y-85450500D01*
X196882463Y-85421404D01*
X197097781Y-85363710D01*
X197303726Y-85278405D01*
X197496774Y-85166948D01*
X197673624Y-85031247D01*
X197831247Y-84873624D01*
X197966948Y-84696774D01*
X198078405Y-84503726D01*
X198163710Y-84297781D01*
X198221404Y-84082463D01*
X198250500Y-83861457D01*
X198250500Y-83638543D01*
X198221404Y-83417537D01*
X198163710Y-83202219D01*
X198078405Y-82996274D01*
X197966948Y-82803226D01*
X197831247Y-82626376D01*
X197831242Y-82626370D01*
X197673629Y-82468757D01*
X197673622Y-82468751D01*
X197496782Y-82333058D01*
X197496780Y-82333057D01*
X197496774Y-82333052D01*
X197303726Y-82221595D01*
X197303722Y-82221593D01*
X197097790Y-82136293D01*
X197097783Y-82136291D01*
X197097781Y-82136290D01*
X196882463Y-82078596D01*
X196882457Y-82078595D01*
X196882452Y-82078594D01*
X196661466Y-82049501D01*
X196661463Y-82049500D01*
X196661457Y-82049500D01*
X196438543Y-82049500D01*
X196438537Y-82049500D01*
X196438533Y-82049501D01*
X196217547Y-82078594D01*
X196217540Y-82078595D01*
X196217537Y-82078596D01*
X196002219Y-82136290D01*
X196002209Y-82136293D01*
X195796277Y-82221593D01*
X195796273Y-82221595D01*
X195603226Y-82333052D01*
X195603217Y-82333058D01*
X195426377Y-82468751D01*
X195426370Y-82468757D01*
X195268757Y-82626370D01*
X195268751Y-82626377D01*
X195133058Y-82803217D01*
X195133052Y-82803226D01*
X195021595Y-82996273D01*
X195021593Y-82996277D01*
X194936293Y-83202209D01*
X194936290Y-83202219D01*
X194878597Y-83417534D01*
X194878594Y-83417547D01*
X194849501Y-83638533D01*
X194849500Y-83638549D01*
X180700500Y-83638549D01*
X180700500Y-83638543D01*
X180671404Y-83417537D01*
X180613710Y-83202219D01*
X180528405Y-82996274D01*
X180416948Y-82803226D01*
X180281247Y-82626376D01*
X180281242Y-82626370D01*
X180123629Y-82468757D01*
X180123622Y-82468751D01*
X179946782Y-82333058D01*
X179946780Y-82333057D01*
X179946774Y-82333052D01*
X179753726Y-82221595D01*
X179753722Y-82221593D01*
X179547790Y-82136293D01*
X179547783Y-82136291D01*
X179547781Y-82136290D01*
X179332463Y-82078596D01*
X179332457Y-82078595D01*
X179332452Y-82078594D01*
X179111466Y-82049501D01*
X179111463Y-82049500D01*
X179111457Y-82049500D01*
X178888543Y-82049500D01*
X178888537Y-82049500D01*
X178888533Y-82049501D01*
X178667547Y-82078594D01*
X178667540Y-82078595D01*
X178667537Y-82078596D01*
X178452219Y-82136290D01*
X178452209Y-82136293D01*
X178246277Y-82221593D01*
X178246273Y-82221595D01*
X178053226Y-82333052D01*
X178053217Y-82333058D01*
X177876377Y-82468751D01*
X177876370Y-82468757D01*
X177718757Y-82626370D01*
X177718751Y-82626377D01*
X177583058Y-82803217D01*
X177583052Y-82803226D01*
X177471595Y-82996273D01*
X177471593Y-82996277D01*
X177386293Y-83202209D01*
X177386290Y-83202219D01*
X177328597Y-83417534D01*
X177328594Y-83417547D01*
X177299501Y-83638533D01*
X177299500Y-83638549D01*
X163150500Y-83638549D01*
X163150500Y-83638543D01*
X163121404Y-83417537D01*
X163063710Y-83202219D01*
X162978405Y-82996274D01*
X162866948Y-82803226D01*
X162731247Y-82626376D01*
X162731242Y-82626370D01*
X162573629Y-82468757D01*
X162573622Y-82468751D01*
X162396782Y-82333058D01*
X162396780Y-82333057D01*
X162396774Y-82333052D01*
X162203726Y-82221595D01*
X162203722Y-82221593D01*
X161997790Y-82136293D01*
X161997783Y-82136291D01*
X161997781Y-82136290D01*
X161782463Y-82078596D01*
X161782457Y-82078595D01*
X161782452Y-82078594D01*
X161561466Y-82049501D01*
X161561463Y-82049500D01*
X161561457Y-82049500D01*
X161338543Y-82049500D01*
X161338537Y-82049500D01*
X161338533Y-82049501D01*
X161117547Y-82078594D01*
X161117540Y-82078595D01*
X161117537Y-82078596D01*
X160902219Y-82136290D01*
X160902209Y-82136293D01*
X160696277Y-82221593D01*
X160696273Y-82221595D01*
X160503226Y-82333052D01*
X160503217Y-82333058D01*
X160326377Y-82468751D01*
X160326370Y-82468757D01*
X160168757Y-82626370D01*
X160168751Y-82626377D01*
X160033058Y-82803217D01*
X160033052Y-82803226D01*
X159921595Y-82996273D01*
X159921593Y-82996277D01*
X159836293Y-83202209D01*
X159836290Y-83202219D01*
X159778597Y-83417534D01*
X159778594Y-83417547D01*
X159749501Y-83638533D01*
X159749500Y-83638549D01*
X149500500Y-83638549D01*
X149500500Y-77372283D01*
X149520185Y-77305244D01*
X149572989Y-77259489D01*
X149642147Y-77249545D01*
X149705703Y-77278570D01*
X149729494Y-77306312D01*
X149753261Y-77344138D01*
X149753265Y-77344143D01*
X149945880Y-77585674D01*
X150164326Y-77804120D01*
X150405857Y-77996735D01*
X150667435Y-78161095D01*
X150945771Y-78295135D01*
X150945777Y-78295137D01*
X151237352Y-78397164D01*
X151237364Y-78397168D01*
X151538548Y-78465911D01*
X151538554Y-78465911D01*
X151538562Y-78465913D01*
X151743206Y-78488970D01*
X151845529Y-78500499D01*
X151845532Y-78500500D01*
X151845535Y-78500500D01*
X152154468Y-78500500D01*
X152154469Y-78500499D01*
X152311356Y-78482822D01*
X152461437Y-78465913D01*
X152461442Y-78465912D01*
X152461452Y-78465911D01*
X152762636Y-78397168D01*
X153054229Y-78295135D01*
X153332565Y-78161095D01*
X153594143Y-77996735D01*
X153835674Y-77804120D01*
X154054120Y-77585674D01*
X154246735Y-77344143D01*
X154411095Y-77082565D01*
X154450856Y-77000000D01*
X201549143Y-77000000D01*
X201588903Y-77082562D01*
G37*
%TD.AperFunction*%
%TD*%
%TA.AperFunction,Conductor*%
%TO.N,GND*%
G36*
X169024345Y-50919685D02*
G01*
X169056570Y-50949686D01*
X169062454Y-50957546D01*
X169062455Y-50957546D01*
X169062456Y-50957548D01*
X169177664Y-51043793D01*
X169177671Y-51043797D01*
X169312517Y-51094091D01*
X169312516Y-51094091D01*
X169319444Y-51094835D01*
X169372127Y-51100500D01*
X172267872Y-51100499D01*
X172327483Y-51094091D01*
X172462331Y-51043796D01*
X172577546Y-50957546D01*
X172583428Y-50949687D01*
X172639361Y-50907818D01*
X172682694Y-50900000D01*
X173383754Y-50900000D01*
X173450793Y-50919685D01*
X173471435Y-50936319D01*
X174113681Y-51578565D01*
X174147166Y-51639888D01*
X174150000Y-51666246D01*
X174150000Y-60593608D01*
X174130315Y-60660647D01*
X174119713Y-60674810D01*
X174074750Y-60726700D01*
X174074744Y-60726709D01*
X174014976Y-60857580D01*
X174014975Y-60857585D01*
X173994500Y-60999999D01*
X173994500Y-61676000D01*
X173974815Y-61743039D01*
X173922011Y-61788794D01*
X173870500Y-61800000D01*
X167524000Y-61800000D01*
X167456961Y-61780315D01*
X167411206Y-61727511D01*
X167400000Y-61676000D01*
X167400000Y-60926523D01*
X167409439Y-60879071D01*
X167435727Y-60815602D01*
X167469737Y-60733497D01*
X167500500Y-60578842D01*
X167500500Y-51024000D01*
X167520185Y-50956961D01*
X167572989Y-50911206D01*
X167624500Y-50900000D01*
X168957306Y-50900000D01*
X169024345Y-50919685D01*
G37*
%TD.AperFunction*%
%TD*%
%TA.AperFunction,Conductor*%
%TO.N,GND*%
G36*
X151899799Y-40755049D02*
G01*
X151915861Y-40755500D01*
X151915866Y-40755500D01*
X153370500Y-40755500D01*
X153437539Y-40775185D01*
X153483294Y-40827989D01*
X153494500Y-40879500D01*
X153494500Y-41375334D01*
X153514255Y-41515260D01*
X153514257Y-41515273D01*
X153533262Y-41581240D01*
X153533262Y-41581241D01*
X153590976Y-41710222D01*
X153590982Y-41710233D01*
X153590985Y-41710239D01*
X153696282Y-41877821D01*
X153696286Y-41877828D01*
X153714272Y-41906452D01*
X153714272Y-41906455D01*
X153720996Y-41918619D01*
X153824357Y-42133249D01*
X153829678Y-42146096D01*
X153908358Y-42370949D01*
X153912208Y-42384312D01*
X153965217Y-42616566D01*
X153967546Y-42630274D01*
X153994220Y-42867003D01*
X153995000Y-42880887D01*
X153995000Y-43119110D01*
X153994220Y-43132994D01*
X153967545Y-43369732D01*
X153965216Y-43383439D01*
X153941827Y-43485919D01*
X153937651Y-43506103D01*
X153935809Y-43516021D01*
X153932450Y-43536416D01*
X153932450Y-43680293D01*
X153932451Y-43680297D01*
X153942395Y-43749455D01*
X153942396Y-43749460D01*
X153942397Y-43749463D01*
X153982929Y-43887501D01*
X153986615Y-43895572D01*
X153984202Y-43896673D01*
X154000000Y-43950473D01*
X154000000Y-45396941D01*
X153980315Y-45463980D01*
X153927511Y-45509735D01*
X153858353Y-45519679D01*
X153837001Y-45514648D01*
X153792797Y-45500001D01*
X153792792Y-45500000D01*
X153792790Y-45500000D01*
X153690010Y-45489500D01*
X152309998Y-45489500D01*
X152309981Y-45489501D01*
X152207203Y-45500000D01*
X152207200Y-45500001D01*
X152040668Y-45555185D01*
X152040663Y-45555187D01*
X151891342Y-45647289D01*
X151767289Y-45771342D01*
X151675187Y-45920663D01*
X151675186Y-45920666D01*
X151620001Y-46087203D01*
X151620001Y-46087204D01*
X151620000Y-46087204D01*
X151609500Y-46189983D01*
X151609500Y-46810001D01*
X151609501Y-46810019D01*
X151620000Y-46912796D01*
X151620001Y-46912799D01*
X151675185Y-47079331D01*
X151675187Y-47079336D01*
X151767289Y-47228657D01*
X151840951Y-47302319D01*
X151874436Y-47363642D01*
X151869452Y-47433334D01*
X151840951Y-47477681D01*
X151767289Y-47551342D01*
X151675187Y-47700663D01*
X151675186Y-47700666D01*
X151620001Y-47867203D01*
X151620001Y-47867204D01*
X151620000Y-47867204D01*
X151609500Y-47969983D01*
X151609500Y-48534929D01*
X151591966Y-48594641D01*
X151593477Y-48595449D01*
X151590606Y-48600820D01*
X151530264Y-48746498D01*
X151530261Y-48746510D01*
X151499500Y-48901153D01*
X151499500Y-49478846D01*
X151530261Y-49633489D01*
X151530264Y-49633501D01*
X151590602Y-49779172D01*
X151590609Y-49779185D01*
X151678210Y-49910288D01*
X151678213Y-49910292D01*
X151883181Y-50115259D01*
X151916666Y-50176582D01*
X151919500Y-50202940D01*
X151919500Y-50617870D01*
X151919501Y-50617876D01*
X151925908Y-50677483D01*
X151976202Y-50812328D01*
X151976206Y-50812335D01*
X152062452Y-50927544D01*
X152062455Y-50927547D01*
X152177664Y-51013793D01*
X152177671Y-51013797D01*
X152312517Y-51064091D01*
X152312516Y-51064091D01*
X152319444Y-51064835D01*
X152372127Y-51070500D01*
X154000000Y-51070499D01*
X154000000Y-61750000D01*
X149624500Y-61750000D01*
X149557461Y-61730315D01*
X149511706Y-61677511D01*
X149500500Y-61626000D01*
X149500500Y-40879500D01*
X149520185Y-40812461D01*
X149572989Y-40766706D01*
X149624500Y-40755500D01*
X151584139Y-40755500D01*
X151600203Y-40755049D01*
X151603683Y-40755000D01*
X151896319Y-40755000D01*
X151899799Y-40755049D01*
G37*
%TD.AperFunction*%
%TD*%
%TA.AperFunction,Conductor*%
%TO.N,GND*%
G36*
X186324345Y-51019685D02*
G01*
X186356570Y-51049686D01*
X186362454Y-51057546D01*
X186362455Y-51057546D01*
X186362456Y-51057548D01*
X186477664Y-51143793D01*
X186477671Y-51143797D01*
X186612517Y-51194091D01*
X186612516Y-51194091D01*
X186619444Y-51194835D01*
X186672127Y-51200500D01*
X189567872Y-51200499D01*
X189627483Y-51194091D01*
X189762331Y-51143796D01*
X189877546Y-51057546D01*
X189883428Y-51049687D01*
X189939361Y-51007818D01*
X189982694Y-51000000D01*
X190428614Y-51000000D01*
X190495653Y-51019685D01*
X190525835Y-51047032D01*
X191223222Y-51927942D01*
X191249400Y-51992720D01*
X191250000Y-52004907D01*
X191250000Y-60593608D01*
X191230315Y-60660647D01*
X191219713Y-60674810D01*
X191174750Y-60726700D01*
X191174744Y-60726709D01*
X191114976Y-60857580D01*
X191114975Y-60857585D01*
X191094500Y-60999999D01*
X191094500Y-61676000D01*
X191074815Y-61743039D01*
X191022011Y-61788794D01*
X190970500Y-61800000D01*
X184774000Y-61800000D01*
X184706961Y-61780315D01*
X184661206Y-61727511D01*
X184650000Y-61676000D01*
X184650000Y-51124000D01*
X184669685Y-51056961D01*
X184722489Y-51011206D01*
X184774000Y-51000000D01*
X186257306Y-51000000D01*
X186324345Y-51019685D01*
G37*
%TD.AperFunction*%
%TD*%
%TA.AperFunction,Conductor*%
%TO.N,VBAT*%
G36*
X164500000Y-120263362D02*
G01*
X164500000Y-121172185D01*
X164499500Y-121179815D01*
X164499500Y-122750000D01*
X149500500Y-122750000D01*
X149500500Y-119750000D01*
X164500000Y-119750000D01*
X164500000Y-120263362D01*
G37*
%TD.AperFunction*%
%TD*%
%TA.AperFunction,Conductor*%
%TO.N,PC_CUR1*%
G36*
X182999500Y-59917060D02*
G01*
X182990855Y-59946500D01*
X182984332Y-59976487D01*
X182980577Y-59981502D01*
X182979815Y-59984099D01*
X182963181Y-60004741D01*
X182789711Y-60178211D01*
X182746765Y-60221157D01*
X182678209Y-60289712D01*
X182590609Y-60420814D01*
X182590602Y-60420827D01*
X182530264Y-60566498D01*
X182530261Y-60566507D01*
X182510764Y-60664522D01*
X182488416Y-60714637D01*
X182456203Y-60757670D01*
X182456202Y-60757671D01*
X182405908Y-60892517D01*
X182399501Y-60952116D01*
X182399500Y-60952135D01*
X182399500Y-63847870D01*
X182399501Y-63847873D01*
X182401100Y-63862746D01*
X182388694Y-63931505D01*
X182341083Y-63982642D01*
X182277810Y-64000000D01*
X174574000Y-64000000D01*
X174506961Y-63980315D01*
X174461206Y-63927511D01*
X174450000Y-63876000D01*
X174450000Y-61933975D01*
X174459551Y-61890077D01*
X174458290Y-61889607D01*
X174459828Y-61885479D01*
X174459838Y-61885459D01*
X174479523Y-61818420D01*
X174479524Y-61818416D01*
X174500000Y-61676000D01*
X174500000Y-61051594D01*
X174519685Y-60984555D01*
X174524732Y-60977284D01*
X174534993Y-60963577D01*
X174555567Y-60933944D01*
X174615338Y-60803067D01*
X174635023Y-60736028D01*
X174635024Y-60736024D01*
X174655500Y-60593608D01*
X174655500Y-51666246D01*
X174652603Y-51612206D01*
X174649769Y-51585848D01*
X174641114Y-51532436D01*
X174590832Y-51397627D01*
X174557347Y-51336304D01*
X174471123Y-51221123D01*
X175150000Y-51900000D01*
X175185345Y-49850000D01*
X182999500Y-49850000D01*
X182999500Y-59917060D01*
G37*
%TD.AperFunction*%
%TD*%
%TA.AperFunction,Conductor*%
%TO.N,PB_CUR1*%
G36*
X200299500Y-57041006D02*
G01*
X200299500Y-57178994D01*
X200299500Y-57178996D01*
X200299499Y-57178996D01*
X200326418Y-57314322D01*
X200326421Y-57314332D01*
X200379222Y-57441807D01*
X200379225Y-57441811D01*
X200455886Y-57556543D01*
X200463679Y-57564336D01*
X200497165Y-57625656D01*
X200500000Y-57652019D01*
X200500000Y-60347980D01*
X200491354Y-60377422D01*
X200484831Y-60407409D01*
X200481077Y-60412423D01*
X200480315Y-60415019D01*
X200463683Y-60435658D01*
X200437046Y-60462295D01*
X200436159Y-60463183D01*
X200374835Y-60496667D01*
X200348479Y-60499500D01*
X199952129Y-60499500D01*
X199952123Y-60499501D01*
X199892516Y-60505908D01*
X199757671Y-60556202D01*
X199757664Y-60556206D01*
X199642455Y-60642452D01*
X199642452Y-60642455D01*
X199556206Y-60757664D01*
X199556202Y-60757671D01*
X199505908Y-60892517D01*
X199499501Y-60952116D01*
X199499500Y-60952135D01*
X199499500Y-63847870D01*
X199499501Y-63847873D01*
X199501100Y-63862746D01*
X199488694Y-63931505D01*
X199441083Y-63982642D01*
X199377810Y-64000000D01*
X191624000Y-64000000D01*
X191556961Y-63980315D01*
X191511206Y-63927511D01*
X191500000Y-63876000D01*
X191500000Y-62043457D01*
X191511205Y-61991947D01*
X191559838Y-61885459D01*
X191579523Y-61818420D01*
X191579524Y-61818416D01*
X191600000Y-61676000D01*
X191600000Y-61051594D01*
X191619685Y-60984555D01*
X191624732Y-60977284D01*
X191634993Y-60963577D01*
X191655567Y-60933944D01*
X191715338Y-60803067D01*
X191735023Y-60736028D01*
X191735024Y-60736024D01*
X191755500Y-60593608D01*
X191755500Y-52004907D01*
X191754888Y-51980050D01*
X191754288Y-51967863D01*
X191752452Y-51943033D01*
X191718076Y-51803319D01*
X191691898Y-51738541D01*
X191619557Y-51614177D01*
X191513007Y-51479587D01*
X191513007Y-51479586D01*
X192150000Y-52284209D01*
X192150000Y-49150000D01*
X200299500Y-49003601D01*
X200299500Y-57041006D01*
G37*
%TD.AperFunction*%
%TD*%
%TA.AperFunction,Conductor*%
%TO.N,VBAT*%
G36*
X201663188Y-66751283D02*
G01*
X201680467Y-66752580D01*
X201700465Y-66755498D01*
X201700471Y-66755497D01*
X201701827Y-66755500D01*
X201709028Y-66755513D01*
X201709219Y-66755500D01*
X202527134Y-66755500D01*
X202527738Y-66755500D01*
X204040533Y-66762880D01*
X204107474Y-66782892D01*
X204152971Y-66835918D01*
X204162577Y-66905125D01*
X204133243Y-66968538D01*
X204114241Y-66986144D01*
X204092454Y-67002454D01*
X204092453Y-67002455D01*
X204092452Y-67002456D01*
X204006206Y-67117664D01*
X204006202Y-67117671D01*
X203955908Y-67252517D01*
X203949501Y-67312116D01*
X203949500Y-67312135D01*
X203949500Y-69107870D01*
X203949501Y-69107876D01*
X203955908Y-69167483D01*
X204006202Y-69302328D01*
X204006206Y-69302335D01*
X204092452Y-69417544D01*
X204092455Y-69417547D01*
X204207664Y-69503793D01*
X204207671Y-69503797D01*
X204342517Y-69554091D01*
X204342516Y-69554091D01*
X204348525Y-69554737D01*
X204402127Y-69560500D01*
X206197872Y-69560499D01*
X206257483Y-69554091D01*
X206332167Y-69526236D01*
X206401859Y-69521252D01*
X206463182Y-69554737D01*
X206496666Y-69616061D01*
X206499500Y-69642418D01*
X206499500Y-74127716D01*
X206479815Y-74194755D01*
X206427011Y-74240510D01*
X206357853Y-74250454D01*
X206294297Y-74221429D01*
X206270506Y-74193688D01*
X206263587Y-74182677D01*
X206246735Y-74155857D01*
X206054120Y-73914326D01*
X205835674Y-73695880D01*
X205594143Y-73503265D01*
X205332565Y-73338905D01*
X205332562Y-73338903D01*
X205054236Y-73204868D01*
X205054222Y-73204862D01*
X204762647Y-73102835D01*
X204762635Y-73102831D01*
X204461455Y-73034089D01*
X204461437Y-73034086D01*
X204154471Y-72999500D01*
X204154465Y-72999500D01*
X203845535Y-72999500D01*
X203845528Y-72999500D01*
X203538562Y-73034086D01*
X203538544Y-73034089D01*
X203237364Y-73102831D01*
X203237352Y-73102835D01*
X202945777Y-73204862D01*
X202945763Y-73204868D01*
X202667437Y-73338903D01*
X202405858Y-73503264D01*
X202164326Y-73695879D01*
X201945879Y-73914326D01*
X201753264Y-74155858D01*
X201588903Y-74417437D01*
X201454868Y-74695763D01*
X201454862Y-74695777D01*
X201352835Y-74987352D01*
X201352831Y-74987364D01*
X201284089Y-75288544D01*
X201284086Y-75288562D01*
X201249500Y-75595528D01*
X201249500Y-75904471D01*
X201284086Y-76211437D01*
X201284089Y-76211455D01*
X201352831Y-76512635D01*
X201352835Y-76512647D01*
X201454862Y-76804222D01*
X201454868Y-76804236D01*
X201549143Y-77000000D01*
X154450857Y-77000000D01*
X154499500Y-76898990D01*
X154545135Y-76804229D01*
X154647168Y-76512636D01*
X154715911Y-76211452D01*
X154750500Y-75904465D01*
X154750500Y-75595535D01*
X154715911Y-75288548D01*
X154647168Y-74987364D01*
X154545135Y-74695771D01*
X154411095Y-74417435D01*
X154246735Y-74155857D01*
X154054120Y-73914326D01*
X153835674Y-73695880D01*
X153594143Y-73503265D01*
X153332565Y-73338905D01*
X153332562Y-73338903D01*
X153054236Y-73204868D01*
X153054222Y-73204862D01*
X152762647Y-73102835D01*
X152762635Y-73102831D01*
X152461455Y-73034089D01*
X152461437Y-73034086D01*
X152154471Y-72999500D01*
X152154465Y-72999500D01*
X151845535Y-72999500D01*
X151845528Y-72999500D01*
X151538562Y-73034086D01*
X151538544Y-73034089D01*
X151237364Y-73102831D01*
X151237352Y-73102835D01*
X150945777Y-73204862D01*
X150945763Y-73204868D01*
X150667437Y-73338903D01*
X150405858Y-73503264D01*
X150164326Y-73695879D01*
X149945879Y-73914326D01*
X149753264Y-74155858D01*
X149729494Y-74193688D01*
X149677159Y-74239979D01*
X149608106Y-74250627D01*
X149544257Y-74222252D01*
X149505885Y-74163862D01*
X149500500Y-74127716D01*
X149500500Y-66621436D01*
X149520185Y-66554397D01*
X149572989Y-66508642D01*
X149625099Y-66497438D01*
X201663188Y-66751283D01*
G37*
%TD.AperFunction*%
%TD*%
%TA.AperFunction,Conductor*%
%TO.N,GND*%
G36*
X206442539Y-46269685D02*
G01*
X206488294Y-46322489D01*
X206499500Y-46374000D01*
X206499500Y-66126000D01*
X206479815Y-66193039D01*
X206427011Y-66238794D01*
X206375500Y-66250000D01*
X201702073Y-66250000D01*
X201701795Y-66249918D01*
X201701517Y-66249999D01*
X201668207Y-66240055D01*
X201635034Y-66230315D01*
X201634751Y-66230069D01*
X201634567Y-66230014D01*
X201633660Y-66229119D01*
X201607997Y-66206782D01*
X201603123Y-66201106D01*
X201577139Y-66162218D01*
X201524713Y-66109792D01*
X201521645Y-66106219D01*
X201520581Y-66103863D01*
X201511406Y-66092477D01*
X201432032Y-65968969D01*
X201432028Y-65968965D01*
X201323299Y-65874750D01*
X201323297Y-65874748D01*
X201323294Y-65874746D01*
X201323290Y-65874744D01*
X201192419Y-65814976D01*
X201192415Y-65814975D01*
X201106353Y-65802602D01*
X201042797Y-65773577D01*
X201005023Y-65714799D01*
X201000000Y-65679864D01*
X201000000Y-64337554D01*
X201019685Y-64270515D01*
X201049686Y-64238289D01*
X201157546Y-64157546D01*
X201243796Y-64042331D01*
X201294091Y-63907483D01*
X201300500Y-63847873D01*
X201300499Y-61631517D01*
X201320184Y-61564479D01*
X201336813Y-61543842D01*
X201943838Y-60936818D01*
X202005161Y-60903333D01*
X202031519Y-60900499D01*
X202690002Y-60900499D01*
X202690008Y-60900499D01*
X202792797Y-60889999D01*
X202959334Y-60834814D01*
X203108656Y-60742712D01*
X203232712Y-60618656D01*
X203324814Y-60469334D01*
X203379999Y-60302797D01*
X203390500Y-60200009D01*
X203390499Y-59579992D01*
X203379999Y-59477203D01*
X203324814Y-59310666D01*
X203232712Y-59161344D01*
X203159049Y-59087681D01*
X203125564Y-59026358D01*
X203130548Y-58956666D01*
X203159049Y-58912319D01*
X203232712Y-58838656D01*
X203324814Y-58689334D01*
X203379999Y-58522797D01*
X203390500Y-58420009D01*
X203390499Y-57799992D01*
X203379999Y-57697203D01*
X203324814Y-57530666D01*
X203232712Y-57381344D01*
X203108656Y-57257288D01*
X203015888Y-57200069D01*
X202959336Y-57165187D01*
X202959331Y-57165185D01*
X202957862Y-57164698D01*
X202792797Y-57110001D01*
X202792795Y-57110000D01*
X202690016Y-57099500D01*
X202690009Y-57099500D01*
X202031519Y-57099500D01*
X201964480Y-57079815D01*
X201943838Y-57063181D01*
X201736819Y-56856162D01*
X201703334Y-56794839D01*
X201700500Y-56768481D01*
X201700500Y-48341519D01*
X201720185Y-48274480D01*
X201736819Y-48253838D01*
X203704338Y-46286319D01*
X203765661Y-46252834D01*
X203792019Y-46250000D01*
X206375500Y-46250000D01*
X206442539Y-46269685D01*
G37*
%TD.AperFunction*%
%TD*%
%TA.AperFunction,Conductor*%
%TO.N,PA_CUR1*%
G36*
X165842539Y-49019685D02*
G01*
X165888294Y-49072489D01*
X165899500Y-49124000D01*
X165899500Y-60117060D01*
X165890855Y-60146500D01*
X165884332Y-60176487D01*
X165880577Y-60181502D01*
X165879815Y-60184099D01*
X165863181Y-60204741D01*
X165739711Y-60328211D01*
X165683960Y-60383962D01*
X165628209Y-60439712D01*
X165628207Y-60439715D01*
X165540607Y-60570818D01*
X165540604Y-60570822D01*
X165532256Y-60590977D01*
X165497835Y-60635289D01*
X165498727Y-60636181D01*
X165492451Y-60642457D01*
X165406206Y-60757664D01*
X165406202Y-60757671D01*
X165355908Y-60892517D01*
X165349501Y-60952116D01*
X165349500Y-60952135D01*
X165349500Y-63847870D01*
X165349501Y-63847873D01*
X165351100Y-63862746D01*
X165338694Y-63931505D01*
X165291083Y-63982642D01*
X165227810Y-64000000D01*
X157574000Y-64000000D01*
X157506961Y-63980315D01*
X157461206Y-63927511D01*
X157450000Y-63876000D01*
X157450000Y-61068107D01*
X157469685Y-61001068D01*
X157496194Y-60971556D01*
X157550475Y-60927813D01*
X157550477Y-60927810D01*
X157550487Y-60927803D01*
X157587762Y-60890527D01*
X157655567Y-60806386D01*
X157715338Y-60675509D01*
X157735023Y-60608470D01*
X157735024Y-60608466D01*
X157755500Y-60466050D01*
X157755500Y-59413146D01*
X157750350Y-59341176D01*
X157748256Y-59326618D01*
X157748052Y-59325203D01*
X157747937Y-59315858D01*
X157746686Y-59307861D01*
X157743533Y-59293787D01*
X157742897Y-59289364D01*
X157741435Y-59284421D01*
X157732287Y-59243585D01*
X157732283Y-59243568D01*
X157725023Y-59218843D01*
X157720000Y-59183908D01*
X157720000Y-59176524D01*
X157713929Y-59098426D01*
X157713928Y-59098407D01*
X157712439Y-59088887D01*
X157710714Y-59078560D01*
X157709820Y-59073529D01*
X157707903Y-59063347D01*
X157707381Y-59060726D01*
X157705000Y-59036541D01*
X157705000Y-58963458D01*
X157707384Y-58939259D01*
X157707903Y-58936652D01*
X157715182Y-58887583D01*
X157717565Y-58863391D01*
X157720000Y-58813837D01*
X157720000Y-58186162D01*
X157717565Y-58136608D01*
X157715182Y-58112416D01*
X157707903Y-58063347D01*
X157707382Y-58060727D01*
X157705000Y-58036540D01*
X157705000Y-57963458D01*
X157707384Y-57939259D01*
X157707903Y-57936652D01*
X157715182Y-57887583D01*
X157717565Y-57863391D01*
X157720000Y-57813837D01*
X157720000Y-57186162D01*
X157717565Y-57136608D01*
X157715182Y-57112416D01*
X157707903Y-57063347D01*
X157707382Y-57060727D01*
X157705000Y-57036540D01*
X157705000Y-56963458D01*
X157707384Y-56939259D01*
X157707903Y-56936652D01*
X157715182Y-56887583D01*
X157717565Y-56863391D01*
X157720000Y-56813837D01*
X157720000Y-56186162D01*
X157717565Y-56136608D01*
X157715182Y-56112416D01*
X157707903Y-56063347D01*
X157707382Y-56060727D01*
X157705000Y-56036540D01*
X157705000Y-55963458D01*
X157707384Y-55939259D01*
X157707903Y-55936652D01*
X157715182Y-55887583D01*
X157717565Y-55863391D01*
X157720000Y-55813837D01*
X157720000Y-55186162D01*
X157717565Y-55136608D01*
X157715182Y-55112416D01*
X157707903Y-55063347D01*
X157707382Y-55060727D01*
X157705000Y-55036540D01*
X157705000Y-54963458D01*
X157707384Y-54939259D01*
X157707903Y-54936652D01*
X157715182Y-54887583D01*
X157717565Y-54863391D01*
X157720000Y-54813837D01*
X157720000Y-54186162D01*
X157717565Y-54136608D01*
X157715182Y-54112416D01*
X157707903Y-54063347D01*
X157707382Y-54060727D01*
X157705000Y-54036540D01*
X157705000Y-53963458D01*
X157707384Y-53939259D01*
X157707903Y-53936652D01*
X157715182Y-53887583D01*
X157717565Y-53863391D01*
X157720000Y-53813837D01*
X157720000Y-53186162D01*
X157717565Y-53136608D01*
X157715182Y-53112416D01*
X157707903Y-53063347D01*
X157707382Y-53060727D01*
X157705000Y-53036540D01*
X157705000Y-52963458D01*
X157707384Y-52939259D01*
X157707903Y-52936652D01*
X157715182Y-52887583D01*
X157717565Y-52863391D01*
X157720000Y-52813837D01*
X157720000Y-52186162D01*
X157717565Y-52136608D01*
X157715182Y-52112416D01*
X157707903Y-52063347D01*
X157707382Y-52060727D01*
X157705000Y-52036540D01*
X157705000Y-51963458D01*
X157707384Y-51939259D01*
X157707903Y-51936652D01*
X157715182Y-51887583D01*
X157717565Y-51863391D01*
X157720000Y-51813837D01*
X157720000Y-51186162D01*
X157717565Y-51136606D01*
X157717123Y-51132120D01*
X157717323Y-51128171D01*
X157716728Y-51121740D01*
X157709165Y-51069691D01*
X157706603Y-51056811D01*
X157706077Y-51052845D01*
X157706400Y-51050759D01*
X157705000Y-51036540D01*
X157705000Y-51018278D01*
X157705000Y-51018276D01*
X157702851Y-50971714D01*
X157702324Y-50966017D01*
X157687436Y-50882449D01*
X157681566Y-50860415D01*
X157680505Y-50856432D01*
X157680502Y-50856421D01*
X157676098Y-50839885D01*
X157676086Y-50839845D01*
X157673092Y-50828609D01*
X157666505Y-50812046D01*
X157660614Y-50791809D01*
X157660289Y-50791046D01*
X157651605Y-50772235D01*
X157648115Y-50762502D01*
X157608234Y-50700445D01*
X157589053Y-50666987D01*
X157587651Y-50665193D01*
X157586272Y-50666270D01*
X157570329Y-50641461D01*
X157560309Y-50629898D01*
X157560134Y-50629695D01*
X157559621Y-50629100D01*
X157559608Y-50629071D01*
X157555835Y-50624489D01*
X157545995Y-50611899D01*
X157542538Y-50608583D01*
X157534662Y-50600298D01*
X157524564Y-50588644D01*
X157524560Y-50588641D01*
X157497872Y-50565515D01*
X157493229Y-50561281D01*
X157488154Y-50556412D01*
X157453406Y-50495796D01*
X157450000Y-50466934D01*
X157450000Y-49124000D01*
X157469685Y-49056961D01*
X157522489Y-49011206D01*
X157574000Y-49000000D01*
X165775500Y-49000000D01*
X165842539Y-49019685D01*
G37*
%TD.AperFunction*%
%TD*%
%TA.AperFunction,Conductor*%
%TO.N,GND*%
G36*
X157078611Y-50900913D02*
G01*
X157081767Y-50900158D01*
X157111917Y-50910693D01*
X157142539Y-50919685D01*
X157144662Y-50922135D01*
X157147726Y-50923206D01*
X157167397Y-50948372D01*
X157188294Y-50972489D01*
X157189352Y-50976461D01*
X157190754Y-50978255D01*
X157193103Y-50990545D01*
X157198973Y-51012579D01*
X157199500Y-51018276D01*
X157199500Y-51098541D01*
X157213378Y-51168310D01*
X157213973Y-51174741D01*
X157213575Y-51176772D01*
X157214500Y-51186162D01*
X157214500Y-51813837D01*
X157212117Y-51838029D01*
X157199500Y-51901456D01*
X157199500Y-52098543D01*
X157212117Y-52161970D01*
X157214500Y-52186162D01*
X157214500Y-52813837D01*
X157212117Y-52838029D01*
X157199500Y-52901456D01*
X157199500Y-53098543D01*
X157212117Y-53161970D01*
X157214500Y-53186162D01*
X157214500Y-53813837D01*
X157212117Y-53838029D01*
X157199500Y-53901456D01*
X157199500Y-54098543D01*
X157212117Y-54161970D01*
X157214500Y-54186162D01*
X157214500Y-54813837D01*
X157212117Y-54838029D01*
X157199500Y-54901456D01*
X157199500Y-55098543D01*
X157212117Y-55161970D01*
X157214500Y-55186162D01*
X157214500Y-55813837D01*
X157212117Y-55838029D01*
X157199500Y-55901456D01*
X157199500Y-56098543D01*
X157212117Y-56161970D01*
X157214500Y-56186162D01*
X157214500Y-56813837D01*
X157212117Y-56838029D01*
X157199500Y-56901456D01*
X157199500Y-57098543D01*
X157212117Y-57161970D01*
X157214500Y-57186162D01*
X157214500Y-57813837D01*
X157212117Y-57838029D01*
X157199500Y-57901456D01*
X157199500Y-58098543D01*
X157212117Y-58161970D01*
X157214500Y-58186162D01*
X157214500Y-58813837D01*
X157212117Y-58838029D01*
X157199500Y-58901456D01*
X157199500Y-59098543D01*
X157212117Y-59161970D01*
X157213011Y-59167001D01*
X157214500Y-59176521D01*
X157214500Y-59220000D01*
X157219645Y-59291940D01*
X157247260Y-59385988D01*
X157248511Y-59393985D01*
X157247906Y-59398588D01*
X157250000Y-59413146D01*
X157250000Y-60466050D01*
X157230315Y-60533089D01*
X157193040Y-60570365D01*
X157118970Y-60617967D01*
X157118965Y-60617971D01*
X157024750Y-60726700D01*
X157024744Y-60726709D01*
X156964976Y-60857580D01*
X156964975Y-60857585D01*
X156944500Y-60999999D01*
X156944500Y-61676000D01*
X156924815Y-61743039D01*
X156872011Y-61788794D01*
X156820500Y-61800000D01*
X150551362Y-61800000D01*
X150524729Y-61797106D01*
X150450000Y-61780672D01*
X150450000Y-61750000D01*
X154000000Y-61750000D01*
X154000000Y-51070499D01*
X155267872Y-51070499D01*
X155327483Y-51064091D01*
X155462331Y-51013796D01*
X155517510Y-50972489D01*
X155581303Y-50924734D01*
X155646767Y-50900316D01*
X155655614Y-50900000D01*
X157075500Y-50900000D01*
X157078611Y-50900913D01*
G37*
%TD.AperFunction*%
%TD*%
%TA.AperFunction,Conductor*%
%TO.N,PB_CUR1*%
G36*
X200443039Y-47019685D02*
G01*
X200488794Y-47072489D01*
X200500000Y-47124000D01*
X200500000Y-47457980D01*
X200480315Y-47525019D01*
X200463681Y-47545661D01*
X200455888Y-47553453D01*
X200455887Y-47553454D01*
X200379222Y-47668192D01*
X200326421Y-47795667D01*
X200326418Y-47795677D01*
X200299500Y-47931004D01*
X200299500Y-49003601D01*
X192150000Y-49150000D01*
X192150000Y-52284209D01*
X191500000Y-51463156D01*
X189550000Y-49000000D01*
X189549999Y-49000000D01*
X189274000Y-49000000D01*
X189206961Y-48980315D01*
X189161206Y-48927511D01*
X189150000Y-48876000D01*
X189150000Y-47124000D01*
X189169685Y-47056961D01*
X189222489Y-47011206D01*
X189274000Y-47000000D01*
X200376000Y-47000000D01*
X200443039Y-47019685D01*
G37*
%TD.AperFunction*%
%TD*%
%TA.AperFunction,Conductor*%
%TO.N,OUT_C*%
G36*
X178530593Y-21769450D02*
G01*
X178539386Y-21770078D01*
X179062912Y-21826363D01*
X179071628Y-21827616D01*
X179589802Y-21921105D01*
X179598410Y-21922978D01*
X180108571Y-22053189D01*
X180117051Y-22055679D01*
X180616598Y-22221945D01*
X180624890Y-22225037D01*
X181111322Y-22426524D01*
X181119361Y-22430195D01*
X181590164Y-22665862D01*
X181597929Y-22670101D01*
X182050734Y-22938763D01*
X182058180Y-22943549D01*
X182490640Y-23243812D01*
X182497726Y-23249116D01*
X182709516Y-23419787D01*
X182907687Y-23579483D01*
X182914370Y-23585274D01*
X183299705Y-23944035D01*
X183305964Y-23950294D01*
X183664725Y-24335629D01*
X183670522Y-24342319D01*
X184000883Y-24752273D01*
X184006187Y-24759359D01*
X184306450Y-25191819D01*
X184311236Y-25199265D01*
X184579898Y-25652070D01*
X184584140Y-25659840D01*
X184819801Y-26130632D01*
X184823478Y-26138683D01*
X185024961Y-26625107D01*
X185028054Y-26633401D01*
X185194318Y-27132942D01*
X185196812Y-27141435D01*
X185327016Y-27651569D01*
X185328898Y-27660218D01*
X185422379Y-28178348D01*
X185423639Y-28187110D01*
X185479919Y-28710595D01*
X185480550Y-28719424D01*
X185499421Y-29247788D01*
X185499500Y-29252214D01*
X185499500Y-36315891D01*
X185533608Y-36443187D01*
X185566554Y-36500250D01*
X185599500Y-36557314D01*
X185692686Y-36650500D01*
X185806814Y-36716392D01*
X185908095Y-36743529D01*
X185931869Y-36758020D01*
X185957203Y-36769590D01*
X185961293Y-36775954D01*
X185967753Y-36779892D01*
X185979920Y-36804940D01*
X185994977Y-36828368D01*
X185996522Y-36839114D01*
X185998283Y-36842739D01*
X186000000Y-36863303D01*
X186000000Y-37006957D01*
X185980315Y-37073996D01*
X185927511Y-37119751D01*
X185858353Y-37129695D01*
X185825805Y-37118862D01*
X185825641Y-37119303D01*
X185682482Y-37065908D01*
X185682483Y-37065908D01*
X185622883Y-37059501D01*
X185622881Y-37059500D01*
X185622873Y-37059500D01*
X185622864Y-37059500D01*
X183827129Y-37059500D01*
X183827123Y-37059501D01*
X183767516Y-37065908D01*
X183632671Y-37116202D01*
X183632664Y-37116206D01*
X183517455Y-37202452D01*
X183517452Y-37202455D01*
X183431206Y-37317664D01*
X183431202Y-37317671D01*
X183380908Y-37452517D01*
X183374501Y-37512116D01*
X183374500Y-37512135D01*
X183374500Y-39307870D01*
X183374501Y-39307876D01*
X183380908Y-39367483D01*
X183431202Y-39502328D01*
X183431204Y-39502331D01*
X183475266Y-39561191D01*
X183499684Y-39626653D01*
X183500000Y-39635501D01*
X183500000Y-42889696D01*
X183486486Y-42945989D01*
X183473440Y-42971592D01*
X183407753Y-43173759D01*
X183374500Y-43383713D01*
X183374500Y-43596284D01*
X183376134Y-43606601D01*
X183367180Y-43675895D01*
X183322184Y-43729347D01*
X183255433Y-43749987D01*
X183253661Y-43750000D01*
X171505005Y-43750000D01*
X171437966Y-43730315D01*
X171392211Y-43677511D01*
X171382267Y-43608353D01*
X171382532Y-43606603D01*
X171390500Y-43556293D01*
X171390500Y-43343713D01*
X171369035Y-43208189D01*
X171357246Y-43133757D01*
X171291557Y-42931588D01*
X171195051Y-42742184D01*
X171195049Y-42742181D01*
X171195048Y-42742179D01*
X171070109Y-42570213D01*
X171036319Y-42536423D01*
X171002834Y-42475100D01*
X171000000Y-42448742D01*
X171000000Y-41911258D01*
X171019685Y-41844219D01*
X171036319Y-41823577D01*
X171070104Y-41789792D01*
X171070106Y-41789788D01*
X171070109Y-41789786D01*
X171195048Y-41617820D01*
X171195047Y-41617820D01*
X171195051Y-41617816D01*
X171291557Y-41428412D01*
X171357246Y-41226243D01*
X171390500Y-41016287D01*
X171390500Y-40803713D01*
X171357246Y-40593757D01*
X171291557Y-40391588D01*
X171195051Y-40202184D01*
X171195049Y-40202181D01*
X171195048Y-40202179D01*
X171070109Y-40030213D01*
X171036319Y-39996423D01*
X171002834Y-39935100D01*
X171000000Y-39908742D01*
X171000000Y-39371258D01*
X171019685Y-39304219D01*
X171036319Y-39283577D01*
X171070104Y-39249792D01*
X171070106Y-39249788D01*
X171070109Y-39249786D01*
X171195048Y-39077820D01*
X171195047Y-39077820D01*
X171195051Y-39077816D01*
X171291557Y-38888412D01*
X171357246Y-38686243D01*
X171390500Y-38476287D01*
X171390500Y-38263713D01*
X171357246Y-38053757D01*
X171291557Y-37851588D01*
X171195051Y-37662184D01*
X171195049Y-37662181D01*
X171195048Y-37662179D01*
X171070109Y-37490213D01*
X171036319Y-37456423D01*
X171002834Y-37395100D01*
X171000000Y-37368742D01*
X171000000Y-37250000D01*
X170836350Y-37250000D01*
X170769311Y-37230315D01*
X170763465Y-37226318D01*
X170747819Y-37214951D01*
X170747818Y-37214950D01*
X170747816Y-37214949D01*
X170558412Y-37118443D01*
X170356243Y-37052754D01*
X170356241Y-37052753D01*
X170356240Y-37052753D01*
X170194957Y-37027208D01*
X170146287Y-37019500D01*
X170124000Y-37019500D01*
X170115314Y-37016949D01*
X170106353Y-37018238D01*
X170082312Y-37007259D01*
X170056961Y-36999815D01*
X170051033Y-36992974D01*
X170042797Y-36989213D01*
X170028507Y-36966978D01*
X170011206Y-36947011D01*
X170008918Y-36936496D01*
X170005023Y-36930435D01*
X170000000Y-36895500D01*
X170000000Y-36863303D01*
X170019685Y-36796264D01*
X170072489Y-36750509D01*
X170091895Y-36743532D01*
X170193186Y-36716392D01*
X170307314Y-36650500D01*
X170400500Y-36557314D01*
X170466392Y-36443186D01*
X170500500Y-36315892D01*
X170500500Y-29252214D01*
X170500579Y-29247788D01*
X170510650Y-28965797D01*
X170519450Y-28719404D01*
X170520078Y-28710615D01*
X170576363Y-28187083D01*
X170577616Y-28178375D01*
X170671106Y-27660191D01*
X170672977Y-27651595D01*
X170803191Y-27141420D01*
X170805676Y-27132956D01*
X170971949Y-26633390D01*
X170975038Y-26625107D01*
X171176528Y-26138666D01*
X171180190Y-26130648D01*
X171415868Y-25659823D01*
X171420091Y-25652087D01*
X171688772Y-25199249D01*
X171693539Y-25191833D01*
X171993816Y-24759353D01*
X171999116Y-24752273D01*
X172329494Y-24342298D01*
X172335255Y-24335649D01*
X172694042Y-23950286D01*
X172700286Y-23944042D01*
X173085649Y-23585255D01*
X173092298Y-23579494D01*
X173502279Y-23249111D01*
X173509359Y-23243812D01*
X173941833Y-22943539D01*
X173949249Y-22938772D01*
X174402087Y-22670091D01*
X174409823Y-22665868D01*
X174880648Y-22430190D01*
X174888666Y-22426528D01*
X175375118Y-22225033D01*
X175383390Y-22221949D01*
X175882956Y-22055676D01*
X175891420Y-22053191D01*
X176401595Y-21922977D01*
X176410191Y-21921106D01*
X176928375Y-21827616D01*
X176937083Y-21826363D01*
X177460615Y-21770078D01*
X177469404Y-21769450D01*
X177995576Y-21750658D01*
X178004424Y-21750658D01*
X178530593Y-21769450D01*
G37*
%TD.AperFunction*%
%TD*%
%TA.AperFunction,Conductor*%
%TO.N,GND*%
G36*
X206442539Y-122769685D02*
G01*
X206488294Y-122822489D01*
X206499500Y-122874000D01*
X206499500Y-129247785D01*
X206499421Y-129252211D01*
X206480550Y-129780575D01*
X206479919Y-129789404D01*
X206423639Y-130312889D01*
X206422379Y-130321651D01*
X206328898Y-130839781D01*
X206327016Y-130848430D01*
X206196812Y-131358564D01*
X206194318Y-131367057D01*
X206028054Y-131866598D01*
X206024961Y-131874892D01*
X205823478Y-132361316D01*
X205819801Y-132369367D01*
X205584140Y-132840159D01*
X205579898Y-132847929D01*
X205311236Y-133300734D01*
X205306450Y-133308180D01*
X205006187Y-133740640D01*
X205000883Y-133747726D01*
X204670522Y-134157680D01*
X204664725Y-134164370D01*
X204305964Y-134549705D01*
X204299705Y-134555964D01*
X203914370Y-134914725D01*
X203907680Y-134920522D01*
X203497726Y-135250883D01*
X203490640Y-135256187D01*
X203058180Y-135556450D01*
X203050734Y-135561236D01*
X202597929Y-135829898D01*
X202590159Y-135834140D01*
X202119367Y-136069801D01*
X202111316Y-136073478D01*
X201624892Y-136274961D01*
X201616598Y-136278054D01*
X201117057Y-136444318D01*
X201108564Y-136446812D01*
X200598430Y-136577016D01*
X200589781Y-136578898D01*
X200071651Y-136672379D01*
X200062889Y-136673639D01*
X199539404Y-136729919D01*
X199530575Y-136730550D01*
X199004426Y-136749341D01*
X198995574Y-136749341D01*
X198469424Y-136730550D01*
X198460595Y-136729919D01*
X197937110Y-136673639D01*
X197928348Y-136672379D01*
X197410218Y-136578898D01*
X197401569Y-136577016D01*
X196891435Y-136446812D01*
X196882942Y-136444318D01*
X196383401Y-136278054D01*
X196375107Y-136274961D01*
X195888683Y-136073478D01*
X195880632Y-136069801D01*
X195409840Y-135834140D01*
X195402070Y-135829898D01*
X194949265Y-135561236D01*
X194941819Y-135556450D01*
X194509359Y-135256187D01*
X194502273Y-135250883D01*
X194092319Y-134920522D01*
X194085629Y-134914725D01*
X193700294Y-134555964D01*
X193694035Y-134549705D01*
X193335274Y-134164370D01*
X193329477Y-134157680D01*
X192999116Y-133747726D01*
X192993812Y-133740640D01*
X192693549Y-133308180D01*
X192688763Y-133300734D01*
X192420101Y-132847929D01*
X192415859Y-132840159D01*
X192410851Y-132830155D01*
X192180195Y-132369361D01*
X192176521Y-132361316D01*
X191975038Y-131874892D01*
X191971945Y-131866598D01*
X191805681Y-131367057D01*
X191803187Y-131358564D01*
X191672978Y-130848410D01*
X191671105Y-130839802D01*
X191577616Y-130321628D01*
X191576363Y-130312912D01*
X191520078Y-129789386D01*
X191519450Y-129780593D01*
X191500579Y-129252211D01*
X191500500Y-129247785D01*
X191500500Y-122874000D01*
X191520185Y-122806961D01*
X191572989Y-122761206D01*
X191624500Y-122750000D01*
X206375500Y-122750000D01*
X206442539Y-122769685D01*
G37*
%TD.AperFunction*%
%TD*%
%TA.AperFunction,Conductor*%
%TO.N,PC_CUR1*%
G36*
X182993039Y-47019685D02*
G01*
X183038794Y-47072489D01*
X183050000Y-47124000D01*
X183050000Y-48784189D01*
X183040562Y-48831636D01*
X183030263Y-48856503D01*
X183030262Y-48856507D01*
X183030261Y-48856510D01*
X183030260Y-48856511D01*
X182999500Y-49011153D01*
X182999500Y-49850000D01*
X175185345Y-49850000D01*
X175150000Y-51900000D01*
X172250000Y-49000000D01*
X171874000Y-49000000D01*
X171806961Y-48980315D01*
X171761206Y-48927511D01*
X171750000Y-48876000D01*
X171750000Y-47124000D01*
X171769685Y-47056961D01*
X171822489Y-47011206D01*
X171874000Y-47000000D01*
X182926000Y-47000000D01*
X182993039Y-47019685D01*
G37*
%TD.AperFunction*%
%TD*%
%TA.AperFunction,Conductor*%
%TO.N,OUT_B*%
G36*
X199530593Y-21769450D02*
G01*
X199539386Y-21770078D01*
X200062912Y-21826363D01*
X200071628Y-21827616D01*
X200589802Y-21921105D01*
X200598410Y-21922978D01*
X201108571Y-22053189D01*
X201117051Y-22055679D01*
X201616598Y-22221945D01*
X201624890Y-22225037D01*
X202111322Y-22426524D01*
X202119361Y-22430195D01*
X202590164Y-22665862D01*
X202597929Y-22670101D01*
X203050734Y-22938763D01*
X203058180Y-22943549D01*
X203490640Y-23243812D01*
X203497726Y-23249116D01*
X203709516Y-23419787D01*
X203907687Y-23579483D01*
X203914370Y-23585274D01*
X204299705Y-23944035D01*
X204305964Y-23950294D01*
X204664725Y-24335629D01*
X204670522Y-24342319D01*
X205000883Y-24752273D01*
X205006187Y-24759359D01*
X205306450Y-25191819D01*
X205311236Y-25199265D01*
X205579898Y-25652070D01*
X205584140Y-25659840D01*
X205819801Y-26130632D01*
X205823478Y-26138683D01*
X206024961Y-26625107D01*
X206028054Y-26633401D01*
X206194318Y-27132942D01*
X206196812Y-27141435D01*
X206327016Y-27651569D01*
X206328898Y-27660218D01*
X206422379Y-28178348D01*
X206423639Y-28187110D01*
X206479919Y-28710595D01*
X206480550Y-28719424D01*
X206499421Y-29247788D01*
X206499500Y-29252214D01*
X206499500Y-37126000D01*
X206479815Y-37193039D01*
X206427011Y-37238794D01*
X206375500Y-37250000D01*
X205896350Y-37250000D01*
X205829311Y-37230315D01*
X205823465Y-37226318D01*
X205807819Y-37214951D01*
X205807818Y-37214950D01*
X205807816Y-37214949D01*
X205618412Y-37118443D01*
X205416243Y-37052754D01*
X205416241Y-37052753D01*
X205416240Y-37052753D01*
X205254957Y-37027208D01*
X205206287Y-37019500D01*
X204993713Y-37019500D01*
X204945042Y-37027208D01*
X204783760Y-37052753D01*
X204581585Y-37118444D01*
X204392180Y-37214951D01*
X204376535Y-37226318D01*
X204310729Y-37249798D01*
X204303650Y-37250000D01*
X203895152Y-37250000D01*
X203828113Y-37230315D01*
X203795887Y-37200313D01*
X203767546Y-37162454D01*
X203718850Y-37126000D01*
X203652335Y-37076206D01*
X203652328Y-37076202D01*
X203517482Y-37025908D01*
X203517483Y-37025908D01*
X203457883Y-37019501D01*
X203457881Y-37019500D01*
X203457873Y-37019500D01*
X203457864Y-37019500D01*
X201662129Y-37019500D01*
X201662123Y-37019501D01*
X201602516Y-37025908D01*
X201467671Y-37076202D01*
X201467664Y-37076206D01*
X201352456Y-37162452D01*
X201352455Y-37162453D01*
X201352454Y-37162454D01*
X201324113Y-37200312D01*
X201268181Y-37242182D01*
X201224848Y-37250000D01*
X201000000Y-37250000D01*
X201000000Y-43626000D01*
X200980315Y-43693039D01*
X200927511Y-43738794D01*
X200876000Y-43750000D01*
X189124000Y-43750000D01*
X189056961Y-43730315D01*
X189011206Y-43677511D01*
X189000000Y-43626000D01*
X189000000Y-36874500D01*
X189019685Y-36807461D01*
X189072489Y-36761706D01*
X189124000Y-36750500D01*
X191065890Y-36750500D01*
X191065892Y-36750500D01*
X191193186Y-36716392D01*
X191307314Y-36650500D01*
X191400500Y-36557314D01*
X191466392Y-36443186D01*
X191500500Y-36315892D01*
X191500500Y-29252214D01*
X191500579Y-29247788D01*
X191510650Y-28965797D01*
X191519450Y-28719404D01*
X191520078Y-28710615D01*
X191576363Y-28187083D01*
X191577616Y-28178375D01*
X191671106Y-27660191D01*
X191672977Y-27651595D01*
X191803191Y-27141420D01*
X191805676Y-27132956D01*
X191971949Y-26633390D01*
X191975038Y-26625107D01*
X192176528Y-26138666D01*
X192180190Y-26130648D01*
X192415868Y-25659823D01*
X192420091Y-25652087D01*
X192688772Y-25199249D01*
X192693539Y-25191833D01*
X192993816Y-24759353D01*
X192999116Y-24752273D01*
X193329494Y-24342298D01*
X193335255Y-24335649D01*
X193694042Y-23950286D01*
X193700286Y-23944042D01*
X194085649Y-23585255D01*
X194092298Y-23579494D01*
X194502279Y-23249111D01*
X194509359Y-23243812D01*
X194941833Y-22943539D01*
X194949249Y-22938772D01*
X195402087Y-22670091D01*
X195409823Y-22665868D01*
X195880648Y-22430190D01*
X195888666Y-22426528D01*
X196375118Y-22225033D01*
X196383390Y-22221949D01*
X196882956Y-22055676D01*
X196891420Y-22053191D01*
X197401595Y-21922977D01*
X197410191Y-21921106D01*
X197928375Y-21827616D01*
X197937083Y-21826363D01*
X198460615Y-21770078D01*
X198469404Y-21769450D01*
X198995576Y-21750658D01*
X199004424Y-21750658D01*
X199530593Y-21769450D01*
G37*
%TD.AperFunction*%
%TD*%
%TA.AperFunction,Conductor*%
%TO.N,VBAT*%
G36*
X164499500Y-129247785D02*
G01*
X164499421Y-129252211D01*
X164480550Y-129780575D01*
X164479919Y-129789404D01*
X164423639Y-130312889D01*
X164422379Y-130321651D01*
X164328898Y-130839781D01*
X164327016Y-130848430D01*
X164196812Y-131358564D01*
X164194318Y-131367057D01*
X164028054Y-131866598D01*
X164024961Y-131874892D01*
X163823478Y-132361316D01*
X163819801Y-132369367D01*
X163584140Y-132840159D01*
X163579898Y-132847929D01*
X163311236Y-133300734D01*
X163306450Y-133308180D01*
X163006187Y-133740640D01*
X163000883Y-133747726D01*
X162670522Y-134157680D01*
X162664725Y-134164370D01*
X162305964Y-134549705D01*
X162299705Y-134555964D01*
X161914370Y-134914725D01*
X161907680Y-134920522D01*
X161497726Y-135250883D01*
X161490640Y-135256187D01*
X161058180Y-135556450D01*
X161050734Y-135561236D01*
X160597929Y-135829898D01*
X160590159Y-135834140D01*
X160119367Y-136069801D01*
X160111316Y-136073478D01*
X159624892Y-136274961D01*
X159616598Y-136278054D01*
X159117057Y-136444318D01*
X159108564Y-136446812D01*
X158598430Y-136577016D01*
X158589781Y-136578898D01*
X158071651Y-136672379D01*
X158062889Y-136673639D01*
X157539404Y-136729919D01*
X157530575Y-136730550D01*
X157004426Y-136749341D01*
X156995574Y-136749341D01*
X156469424Y-136730550D01*
X156460595Y-136729919D01*
X155937110Y-136673639D01*
X155928348Y-136672379D01*
X155410218Y-136578898D01*
X155401569Y-136577016D01*
X154891435Y-136446812D01*
X154882942Y-136444318D01*
X154383401Y-136278054D01*
X154375107Y-136274961D01*
X153888683Y-136073478D01*
X153880632Y-136069801D01*
X153409840Y-135834140D01*
X153402070Y-135829898D01*
X152949265Y-135561236D01*
X152941819Y-135556450D01*
X152509359Y-135256187D01*
X152502273Y-135250883D01*
X152092319Y-134920522D01*
X152085629Y-134914725D01*
X151700294Y-134555964D01*
X151694035Y-134549705D01*
X151335274Y-134164370D01*
X151329477Y-134157680D01*
X150999116Y-133747726D01*
X150993812Y-133740640D01*
X150693549Y-133308180D01*
X150688763Y-133300734D01*
X150420101Y-132847929D01*
X150415859Y-132840159D01*
X150410851Y-132830155D01*
X150180195Y-132369361D01*
X150176521Y-132361316D01*
X149975038Y-131874892D01*
X149971945Y-131866598D01*
X149805681Y-131367057D01*
X149803187Y-131358564D01*
X149672978Y-130848410D01*
X149671105Y-130839802D01*
X149577616Y-130321628D01*
X149576363Y-130312912D01*
X149520078Y-129789386D01*
X149519450Y-129780593D01*
X149500579Y-129252211D01*
X149500500Y-129247785D01*
X149500500Y-122750000D01*
X164499500Y-122750000D01*
X164499500Y-129247785D01*
G37*
%TD.AperFunction*%
%TD*%
%TA.AperFunction,Conductor*%
%TO.N,OUT_A*%
G36*
X157530593Y-21769450D02*
G01*
X157539386Y-21770078D01*
X158062912Y-21826363D01*
X158071628Y-21827616D01*
X158589802Y-21921105D01*
X158598410Y-21922978D01*
X159108571Y-22053189D01*
X159117051Y-22055679D01*
X159616598Y-22221945D01*
X159624890Y-22225037D01*
X160111322Y-22426524D01*
X160119361Y-22430195D01*
X160590164Y-22665862D01*
X160597929Y-22670101D01*
X161050734Y-22938763D01*
X161058180Y-22943549D01*
X161490640Y-23243812D01*
X161497726Y-23249116D01*
X161709516Y-23419787D01*
X161907687Y-23579483D01*
X161914370Y-23585274D01*
X162299705Y-23944035D01*
X162305964Y-23950294D01*
X162664725Y-24335629D01*
X162670522Y-24342319D01*
X163000883Y-24752273D01*
X163006187Y-24759359D01*
X163306450Y-25191819D01*
X163311236Y-25199265D01*
X163579898Y-25652070D01*
X163584140Y-25659840D01*
X163819801Y-26130632D01*
X163823478Y-26138683D01*
X164024961Y-26625107D01*
X164028054Y-26633401D01*
X164194318Y-27132942D01*
X164196812Y-27141435D01*
X164327016Y-27651569D01*
X164328898Y-27660218D01*
X164422379Y-28178348D01*
X164423639Y-28187110D01*
X164479919Y-28710595D01*
X164480550Y-28719424D01*
X164499421Y-29247788D01*
X164499500Y-29252214D01*
X164499500Y-36315891D01*
X164533608Y-36443187D01*
X164566554Y-36500250D01*
X164599500Y-36557314D01*
X164692686Y-36650500D01*
X164806814Y-36716392D01*
X164934108Y-36750500D01*
X164934110Y-36750500D01*
X166126000Y-36750500D01*
X166193039Y-36770185D01*
X166238794Y-36822989D01*
X166250000Y-36874500D01*
X166250000Y-37177893D01*
X166230315Y-37244932D01*
X166225267Y-37252204D01*
X166206204Y-37277668D01*
X166206202Y-37277671D01*
X166155908Y-37412517D01*
X166149501Y-37472116D01*
X166149500Y-37472135D01*
X166149500Y-39267870D01*
X166149501Y-39267876D01*
X166155908Y-39327483D01*
X166206203Y-39462329D01*
X166225266Y-39487794D01*
X166249684Y-39553258D01*
X166250000Y-39562106D01*
X166250000Y-42907155D01*
X166243931Y-42945473D01*
X166182753Y-43133759D01*
X166149500Y-43343713D01*
X166149500Y-43556293D01*
X166157468Y-43606603D01*
X166148513Y-43675896D01*
X166103517Y-43729348D01*
X166036765Y-43749987D01*
X166034995Y-43750000D01*
X155851055Y-43750000D01*
X155848541Y-43749500D01*
X155651459Y-43749500D01*
X155648945Y-43750000D01*
X154555543Y-43750000D01*
X154488504Y-43730315D01*
X154442749Y-43677511D01*
X154432805Y-43608353D01*
X154434652Y-43598408D01*
X154465910Y-43461455D01*
X154465911Y-43461452D01*
X154500500Y-43154465D01*
X154500500Y-42845535D01*
X154488855Y-42742184D01*
X154465913Y-42538562D01*
X154465910Y-42538544D01*
X154397168Y-42237364D01*
X154397164Y-42237352D01*
X154295137Y-41945777D01*
X154295135Y-41945771D01*
X154161095Y-41667435D01*
X154124303Y-41608882D01*
X154019006Y-41441300D01*
X154000000Y-41375328D01*
X154000000Y-40250000D01*
X151915866Y-40250000D01*
X151907946Y-40249555D01*
X151907939Y-40249695D01*
X151904466Y-40249500D01*
X151904465Y-40249500D01*
X151595535Y-40249500D01*
X151595534Y-40249500D01*
X151592061Y-40249695D01*
X151592053Y-40249555D01*
X151584134Y-40250000D01*
X149624500Y-40250000D01*
X149557461Y-40230315D01*
X149511706Y-40177511D01*
X149500500Y-40126000D01*
X149500500Y-29252214D01*
X149500579Y-29247788D01*
X149510650Y-28965797D01*
X149519450Y-28719404D01*
X149520078Y-28710615D01*
X149576363Y-28187083D01*
X149577616Y-28178375D01*
X149671106Y-27660191D01*
X149672977Y-27651595D01*
X149803191Y-27141420D01*
X149805676Y-27132956D01*
X149971949Y-26633390D01*
X149975038Y-26625107D01*
X150176528Y-26138666D01*
X150180190Y-26130648D01*
X150415868Y-25659823D01*
X150420091Y-25652087D01*
X150688772Y-25199249D01*
X150693539Y-25191833D01*
X150993816Y-24759353D01*
X150999116Y-24752273D01*
X151329494Y-24342298D01*
X151335255Y-24335649D01*
X151694042Y-23950286D01*
X151700286Y-23944042D01*
X152085649Y-23585255D01*
X152092298Y-23579494D01*
X152502279Y-23249111D01*
X152509359Y-23243812D01*
X152941833Y-22943539D01*
X152949249Y-22938772D01*
X153402087Y-22670091D01*
X153409823Y-22665868D01*
X153880648Y-22430190D01*
X153888666Y-22426528D01*
X154375118Y-22225033D01*
X154383390Y-22221949D01*
X154882956Y-22055676D01*
X154891420Y-22053191D01*
X155401595Y-21922977D01*
X155410191Y-21921106D01*
X155928375Y-21827616D01*
X155937083Y-21826363D01*
X156460615Y-21770078D01*
X156469404Y-21769450D01*
X156995576Y-21750658D01*
X157004424Y-21750658D01*
X157530593Y-21769450D01*
G37*
%TD.AperFunction*%
%TD*%
M02*
