M48
; DRILL file {KiCad 9.0.3} date 2025-08-23T20:27:27-0300
; FORMAT={-:-/ absolute / metric / decimal}
; #@! TF.CreationDate,2025-08-23T20:27:27-03:00
; #@! TF.GenerationSoftware,Kicad,Pcbnew,9.0.3
; #@! TF.FileFunction,Plated,1,2,PTH
FMAT,2
METRIC
; #@! TA.AperFunction,Plated,PTH,ViaDrill
T1C0.400
; #@! TA.AperFunction,Plated,PTH,ComponentDrill
T2C0.600
; #@! TA.AperFunction,Plated,PTH,ComponentDrill
T3C1.000
; #@! TA.AperFunction,Plated,PTH,ComponentDrill
T4C1.200
; #@! TA.AperFunction,Plated,PTH,ComponentDrill
T5C2.700
; #@! TA.AperFunction,Plated,PTH,ComponentDrill
T6C6.400
%
G90
G05
T1
X151.0Y-51.4
X151.0Y-52.4
X151.0Y-53.4
X151.0Y-54.4
X151.0Y-55.4
X151.0Y-56.4
X151.0Y-57.4
X151.0Y-58.4
X152.0Y-51.4
X152.0Y-52.4
X152.0Y-53.4
X152.0Y-54.4
X152.0Y-55.4
X152.0Y-56.4
X152.0Y-57.4
X152.0Y-58.4
X153.0Y-51.4
X153.0Y-52.4
X153.0Y-53.4
X153.0Y-54.4
X153.0Y-55.4
X153.0Y-56.4
X153.0Y-57.4
X153.0Y-58.4
X154.0Y-51.4
X154.0Y-52.4
X154.0Y-53.4
X154.0Y-54.4
X154.0Y-55.4
X154.0Y-56.4
X154.0Y-57.4
X154.0Y-58.4
X154.5Y-37.25
X154.5Y-38.25
X154.5Y-39.25
X154.5Y-40.25
X154.5Y-41.25
X155.0Y-51.4
X155.0Y-52.4
X155.0Y-53.4
X155.0Y-54.4
X155.0Y-55.4
X155.0Y-56.4
X155.0Y-57.4
X155.0Y-58.4
X155.25Y-47.75
X155.5Y-37.25
X155.5Y-38.25
X155.5Y-39.25
X155.5Y-40.25
X155.5Y-41.25
X155.5Y-42.25
X155.5Y-43.25
X155.75Y-44.75
X156.0Y-51.4
X156.0Y-52.4
X156.0Y-53.4
X156.0Y-54.4
X156.0Y-55.4
X156.0Y-56.4
X156.0Y-57.4
X156.0Y-58.4
X156.25Y-47.75
X156.25Y-48.75
X156.5Y-37.25
X156.5Y-38.25
X156.5Y-39.25
X156.5Y-40.25
X156.5Y-41.25
X156.5Y-42.25
X156.5Y-43.25
X157.0Y-49.75
X157.25Y-47.75
X157.25Y-48.75
X157.5Y-37.25
X157.5Y-38.25
X157.5Y-39.25
X157.5Y-40.25
X157.5Y-41.25
X157.5Y-42.25
X157.5Y-43.25
X157.5Y-66.8
X157.5Y-67.8
X157.5Y-68.8
X157.5Y-69.8
X157.5Y-70.8
X157.5Y-71.8
X157.5Y-72.8
X157.5Y-73.8
X158.2Y-50.0
X158.2Y-51.0
X158.2Y-52.0
X158.2Y-53.0
X158.2Y-54.0
X158.2Y-55.0
X158.2Y-56.0
X158.2Y-57.0
X158.2Y-58.0
X158.2Y-59.0
X158.25Y-47.75
X158.25Y-48.75
X158.5Y-37.25
X158.5Y-38.25
X158.5Y-39.25
X158.5Y-40.25
X158.5Y-41.25
X158.5Y-42.25
X158.5Y-43.25
X158.5Y-66.8
X158.5Y-67.8
X158.5Y-68.8
X158.5Y-69.8
X158.5Y-70.8
X158.5Y-71.8
X158.5Y-72.8
X158.5Y-73.8
X159.2Y-50.0
X159.2Y-51.0
X159.2Y-52.0
X159.2Y-53.0
X159.2Y-54.0
X159.2Y-55.0
X159.2Y-56.0
X159.2Y-57.0
X159.2Y-58.0
X159.2Y-59.0
X159.25Y-47.75
X159.25Y-48.75
X159.5Y-37.25
X159.5Y-38.25
X159.5Y-39.25
X159.5Y-40.25
X159.5Y-41.25
X159.5Y-42.25
X159.5Y-43.25
X159.5Y-66.8
X159.5Y-67.8
X159.5Y-68.8
X159.5Y-69.8
X159.5Y-70.8
X159.5Y-71.8
X159.5Y-72.8
X159.5Y-73.8
X160.2Y-50.0
X160.2Y-51.0
X160.2Y-52.0
X160.2Y-53.0
X160.2Y-54.0
X160.2Y-55.0
X160.2Y-56.0
X160.2Y-57.0
X160.2Y-58.0
X160.2Y-59.0
X160.25Y-47.75
X160.25Y-48.75
X160.5Y-37.25
X160.5Y-38.25
X160.5Y-39.25
X160.5Y-40.25
X160.5Y-41.25
X160.5Y-42.25
X160.5Y-43.25
X160.5Y-66.8
X160.5Y-67.8
X160.5Y-68.8
X160.5Y-69.8
X160.5Y-70.8
X160.5Y-71.8
X160.5Y-72.8
X160.5Y-73.8
X161.2Y-50.0
X161.2Y-51.0
X161.2Y-52.0
X161.2Y-53.0
X161.2Y-54.0
X161.2Y-55.0
X161.2Y-56.0
X161.2Y-57.0
X161.2Y-58.0
X161.2Y-59.0
X161.25Y-47.75
X161.25Y-48.75
X161.5Y-37.25
X161.5Y-38.25
X161.5Y-39.25
X161.5Y-40.25
X161.5Y-41.25
X161.5Y-42.25
X161.5Y-43.25
X161.5Y-66.8
X161.5Y-67.8
X161.5Y-68.8
X161.5Y-69.8
X161.5Y-70.8
X161.5Y-71.8
X161.5Y-72.8
X161.5Y-73.8
X162.2Y-50.0
X162.2Y-51.0
X162.2Y-52.0
X162.2Y-53.0
X162.2Y-54.0
X162.2Y-55.0
X162.2Y-56.0
X162.2Y-57.0
X162.2Y-58.0
X162.2Y-59.0
X162.25Y-47.75
X162.25Y-48.75
X162.5Y-37.25
X162.5Y-38.25
X162.5Y-39.25
X162.5Y-40.25
X162.5Y-41.25
X162.5Y-42.25
X162.5Y-43.25
X162.5Y-66.8
X162.5Y-67.8
X162.5Y-68.8
X162.5Y-69.8
X162.5Y-70.8
X162.5Y-71.8
X162.5Y-72.8
X162.5Y-73.8
X163.2Y-50.0
X163.2Y-51.0
X163.2Y-52.0
X163.2Y-53.0
X163.2Y-54.0
X163.2Y-55.0
X163.2Y-56.0
X163.2Y-57.0
X163.2Y-58.0
X163.2Y-59.0
X163.25Y-47.75
X163.25Y-48.75
X163.5Y-37.25
X163.5Y-38.25
X163.5Y-39.25
X163.5Y-40.25
X163.5Y-41.25
X163.5Y-42.25
X163.5Y-43.25
X163.5Y-66.8
X163.5Y-67.8
X163.5Y-68.8
X163.5Y-69.8
X163.5Y-70.8
X163.5Y-71.8
X163.5Y-72.8
X163.5Y-73.8
X164.2Y-50.0
X164.2Y-51.0
X164.2Y-52.0
X164.2Y-53.0
X164.2Y-54.0
X164.2Y-55.0
X164.2Y-56.0
X164.2Y-57.0
X164.2Y-58.0
X164.2Y-59.0
X164.25Y-47.75
X164.25Y-48.75
X164.5Y-37.25
X164.5Y-38.25
X164.5Y-39.25
X164.5Y-40.25
X164.5Y-41.25
X164.5Y-42.25
X164.5Y-43.25
X164.5Y-66.8
X164.5Y-67.8
X164.5Y-68.8
X164.5Y-69.8
X164.5Y-70.8
X164.5Y-71.8
X164.5Y-72.8
X164.5Y-73.8
X165.2Y-50.0
X165.2Y-52.0
X165.2Y-53.0
X165.2Y-54.0
X165.2Y-55.0
X165.2Y-56.0
X165.2Y-57.0
X165.2Y-58.0
X165.2Y-59.0
X165.25Y-47.75
X165.25Y-48.75
X165.5Y-37.25
X165.5Y-38.25
X165.5Y-39.25
X165.5Y-40.25
X165.5Y-41.25
X165.5Y-42.25
X165.5Y-43.25
X165.5Y-66.8
X165.5Y-67.8
X165.5Y-68.8
X165.5Y-69.8
X165.5Y-70.8
X165.5Y-71.8
X165.5Y-72.8
X165.5Y-73.8
X166.5Y-66.8
X166.5Y-67.8
X166.5Y-68.8
X166.5Y-69.8
X166.5Y-70.8
X166.5Y-71.8
X166.5Y-72.8
X166.5Y-73.8
X168.0Y-51.4
X168.0Y-52.4
X168.0Y-53.4
X168.0Y-54.4
X168.0Y-55.4
X168.0Y-56.4
X168.0Y-57.4
X168.0Y-58.4
X169.0Y-51.4
X169.0Y-52.4
X169.0Y-53.4
X169.0Y-54.4
X169.0Y-55.4
X169.0Y-56.4
X169.0Y-57.4
X169.0Y-58.4
X170.0Y-51.4
X170.0Y-52.4
X170.0Y-53.4
X170.0Y-54.4
X170.0Y-55.4
X170.0Y-56.4
X170.0Y-57.4
X170.0Y-58.4
X171.0Y-51.4
X171.0Y-52.4
X171.0Y-53.4
X171.0Y-54.4
X171.0Y-55.4
X171.0Y-56.4
X171.0Y-57.4
X171.0Y-58.4
X172.0Y-37.25
X172.0Y-38.25
X172.0Y-39.25
X172.0Y-40.25
X172.0Y-41.25
X172.0Y-42.25
X172.0Y-43.25
X172.0Y-51.4
X172.0Y-52.4
X172.0Y-53.4
X172.0Y-54.4
X172.0Y-55.4
X172.0Y-56.4
X172.0Y-57.4
X172.0Y-58.4
X172.25Y-47.75
X172.55Y-44.95
X173.0Y-37.25
X173.0Y-38.25
X173.0Y-39.25
X173.0Y-40.25
X173.0Y-41.25
X173.0Y-42.25
X173.0Y-43.25
X173.0Y-51.4
X173.0Y-52.4
X173.0Y-53.4
X173.0Y-54.4
X173.0Y-55.4
X173.0Y-56.4
X173.0Y-57.4
X173.0Y-58.4
X173.25Y-47.75
X173.25Y-48.75
X174.0Y-37.25
X174.0Y-38.25
X174.0Y-39.25
X174.0Y-40.25
X174.0Y-41.25
X174.0Y-42.25
X174.0Y-43.25
X174.0Y-49.75
X174.25Y-47.75
X174.25Y-48.75
X174.6Y-66.8
X174.6Y-67.8
X174.6Y-68.8
X174.6Y-69.8
X174.6Y-70.8
X174.6Y-71.8
X174.6Y-72.8
X174.6Y-73.8
X175.0Y-37.25
X175.0Y-38.25
X175.0Y-39.25
X175.0Y-40.25
X175.0Y-41.25
X175.0Y-42.25
X175.0Y-43.25
X175.2Y-49.9
X175.2Y-50.9
X175.2Y-51.9
X175.2Y-52.9
X175.2Y-53.9
X175.2Y-54.9
X175.2Y-55.9
X175.2Y-56.9
X175.2Y-57.9
X175.2Y-58.9
X175.25Y-47.75
X175.25Y-48.75
X175.6Y-66.8
X175.6Y-67.8
X175.6Y-68.8
X175.6Y-69.8
X175.6Y-70.8
X175.6Y-71.8
X175.6Y-72.8
X175.6Y-73.8
X176.0Y-37.25
X176.0Y-38.25
X176.0Y-39.25
X176.0Y-40.25
X176.0Y-41.25
X176.0Y-42.25
X176.0Y-43.25
X176.2Y-49.9
X176.2Y-50.9
X176.2Y-51.9
X176.2Y-52.9
X176.2Y-53.9
X176.2Y-54.9
X176.2Y-55.9
X176.2Y-56.9
X176.2Y-57.9
X176.2Y-58.9
X176.25Y-47.75
X176.25Y-48.75
X176.6Y-66.8
X176.6Y-67.8
X176.6Y-68.8
X176.6Y-69.8
X176.6Y-70.8
X176.6Y-71.8
X176.6Y-72.8
X176.6Y-73.8
X177.0Y-37.25
X177.0Y-38.25
X177.0Y-39.25
X177.0Y-40.25
X177.0Y-41.25
X177.0Y-42.25
X177.0Y-43.25
X177.2Y-49.9
X177.2Y-50.9
X177.2Y-51.9
X177.2Y-52.9
X177.2Y-53.9
X177.2Y-54.9
X177.2Y-55.9
X177.2Y-56.9
X177.2Y-57.9
X177.2Y-58.9
X177.25Y-47.75
X177.25Y-48.75
X177.6Y-66.8
X177.6Y-67.8
X177.6Y-68.8
X177.6Y-69.8
X177.6Y-70.8
X177.6Y-71.8
X177.6Y-72.8
X177.6Y-73.8
X178.0Y-37.25
X178.0Y-38.25
X178.0Y-39.25
X178.0Y-40.25
X178.0Y-41.25
X178.0Y-42.25
X178.0Y-43.25
X178.2Y-49.9
X178.2Y-50.9
X178.2Y-51.9
X178.2Y-52.9
X178.2Y-53.9
X178.2Y-54.9
X178.2Y-55.9
X178.2Y-56.9
X178.2Y-57.9
X178.2Y-58.9
X178.25Y-47.75
X178.25Y-48.75
X178.6Y-66.8
X178.6Y-67.8
X178.6Y-68.8
X178.6Y-69.8
X178.6Y-70.8
X178.6Y-71.8
X178.6Y-72.8
X178.6Y-73.8
X179.0Y-37.25
X179.0Y-38.25
X179.0Y-39.25
X179.0Y-40.25
X179.0Y-41.25
X179.0Y-42.25
X179.0Y-43.25
X179.2Y-49.9
X179.2Y-50.9
X179.2Y-51.9
X179.2Y-52.9
X179.2Y-53.9
X179.2Y-54.9
X179.2Y-55.9
X179.2Y-56.9
X179.2Y-57.9
X179.2Y-58.9
X179.25Y-47.75
X179.25Y-48.75
X179.6Y-66.8
X179.6Y-67.8
X179.6Y-68.8
X179.6Y-69.8
X179.6Y-70.8
X179.6Y-71.8
X179.6Y-72.8
X179.6Y-73.8
X180.0Y-37.25
X180.0Y-38.25
X180.0Y-39.25
X180.0Y-40.25
X180.0Y-41.25
X180.0Y-42.25
X180.0Y-43.25
X180.2Y-49.9
X180.2Y-50.9
X180.2Y-51.9
X180.2Y-52.9
X180.2Y-53.9
X180.2Y-54.9
X180.2Y-55.9
X180.2Y-56.9
X180.2Y-57.9
X180.2Y-58.9
X180.25Y-47.75
X180.25Y-48.75
X180.6Y-66.8
X180.6Y-67.8
X180.6Y-68.8
X180.6Y-69.8
X180.6Y-70.8
X180.6Y-71.8
X180.6Y-72.8
X180.6Y-73.8
X181.0Y-37.25
X181.0Y-38.25
X181.0Y-39.25
X181.0Y-40.25
X181.0Y-41.25
X181.0Y-42.25
X181.0Y-43.25
X181.2Y-49.9
X181.2Y-50.9
X181.2Y-51.9
X181.2Y-52.9
X181.2Y-53.9
X181.2Y-54.9
X181.2Y-55.9
X181.2Y-56.9
X181.2Y-57.9
X181.2Y-58.9
X181.25Y-47.75
X181.25Y-48.75
X181.6Y-66.8
X181.6Y-67.8
X181.6Y-68.8
X181.6Y-69.8
X181.6Y-70.8
X181.6Y-71.8
X181.6Y-72.8
X181.6Y-73.8
X182.0Y-37.25
X182.0Y-38.25
X182.0Y-39.25
X182.0Y-40.25
X182.0Y-41.25
X182.0Y-42.25
X182.0Y-43.25
X182.2Y-49.9
X182.2Y-50.9
X182.2Y-51.9
X182.2Y-52.9
X182.2Y-53.9
X182.2Y-54.9
X182.2Y-55.9
X182.2Y-56.9
X182.2Y-57.9
X182.2Y-58.9
X182.25Y-47.75
X182.25Y-48.75
X182.6Y-66.8
X182.6Y-67.8
X182.6Y-68.8
X182.6Y-69.8
X182.6Y-70.8
X182.6Y-71.8
X182.6Y-72.8
X182.6Y-73.8
X183.0Y-37.25
X183.0Y-38.25
X183.0Y-39.25
X183.0Y-40.25
X183.0Y-41.25
X183.0Y-42.25
X183.0Y-43.25
X183.6Y-66.8
X183.6Y-67.8
X183.6Y-68.8
X183.6Y-69.8
X183.6Y-70.8
X183.6Y-71.8
X183.6Y-72.8
X183.6Y-73.8
X185.2Y-51.6
X185.2Y-52.6
X185.2Y-53.6
X185.2Y-54.6
X185.2Y-55.6
X185.2Y-56.6
X185.2Y-57.6
X185.2Y-58.6
X186.2Y-51.6
X186.2Y-52.6
X186.2Y-53.6
X186.2Y-54.6
X186.2Y-55.6
X186.2Y-56.6
X186.2Y-57.6
X186.2Y-58.6
X187.2Y-51.6
X187.2Y-52.6
X187.2Y-53.6
X187.2Y-54.6
X187.2Y-55.6
X187.2Y-56.6
X187.2Y-57.6
X187.2Y-58.6
X188.2Y-51.6
X188.2Y-52.6
X188.2Y-53.6
X188.2Y-54.6
X188.2Y-55.6
X188.2Y-56.6
X188.2Y-57.6
X188.2Y-58.6
X189.2Y-51.6
X189.2Y-52.6
X189.2Y-53.6
X189.2Y-54.6
X189.2Y-55.6
X189.2Y-56.6
X189.2Y-57.6
X189.2Y-58.6
X189.5Y-37.25
X189.5Y-38.25
X189.5Y-39.25
X189.5Y-40.25
X189.5Y-41.25
X189.5Y-42.25
X189.5Y-43.25
X189.6Y-44.95
X190.2Y-51.6
X190.2Y-52.6
X190.2Y-53.6
X190.2Y-54.6
X190.2Y-55.6
X190.2Y-56.6
X190.2Y-57.6
X190.2Y-58.6
X190.5Y-37.25
X190.5Y-38.25
X190.5Y-39.25
X190.5Y-40.25
X190.5Y-41.25
X190.5Y-42.25
X190.5Y-43.25
X190.5Y-47.75
X190.5Y-48.75
X191.5Y-37.25
X191.5Y-38.25
X191.5Y-39.25
X191.5Y-40.25
X191.5Y-41.25
X191.5Y-42.25
X191.5Y-43.25
X191.5Y-47.75
X191.5Y-48.75
X191.5Y-49.75
X191.8Y-66.8
X191.8Y-67.8
X191.8Y-68.8
X191.8Y-69.8
X191.8Y-70.8
X191.8Y-71.8
X191.8Y-72.8
X191.8Y-73.8
X192.5Y-37.25
X192.5Y-38.25
X192.5Y-39.25
X192.5Y-40.25
X192.5Y-41.25
X192.5Y-42.25
X192.5Y-43.25
X192.5Y-47.75
X192.5Y-48.75
X192.5Y-50.0
X192.5Y-51.0
X192.5Y-52.0
X192.5Y-53.0
X192.5Y-54.0
X192.5Y-55.0
X192.5Y-56.0
X192.5Y-57.0
X192.5Y-58.0
X192.5Y-59.0
X192.8Y-66.8
X192.8Y-67.8
X192.8Y-68.8
X192.8Y-69.8
X192.8Y-70.8
X192.8Y-71.8
X192.8Y-72.8
X192.8Y-73.8
X193.5Y-37.25
X193.5Y-38.25
X193.5Y-39.25
X193.5Y-40.25
X193.5Y-41.25
X193.5Y-42.25
X193.5Y-43.25
X193.5Y-47.75
X193.5Y-48.75
X193.5Y-50.0
X193.5Y-51.0
X193.5Y-52.0
X193.5Y-53.0
X193.5Y-54.0
X193.5Y-55.0
X193.5Y-56.0
X193.5Y-57.0
X193.5Y-58.0
X193.5Y-59.0
X193.8Y-66.8
X193.8Y-67.8
X193.8Y-68.8
X193.8Y-69.8
X193.8Y-70.8
X193.8Y-71.8
X193.8Y-72.8
X193.8Y-73.8
X194.5Y-37.25
X194.5Y-38.25
X194.5Y-39.25
X194.5Y-40.25
X194.5Y-41.25
X194.5Y-42.25
X194.5Y-43.25
X194.5Y-47.75
X194.5Y-48.75
X194.5Y-50.0
X194.5Y-51.0
X194.5Y-52.0
X194.5Y-53.0
X194.5Y-54.0
X194.5Y-55.0
X194.5Y-56.0
X194.5Y-57.0
X194.5Y-58.0
X194.5Y-59.0
X194.8Y-66.8
X194.8Y-67.8
X194.8Y-68.8
X194.8Y-69.8
X194.8Y-70.8
X194.8Y-71.8
X194.8Y-72.8
X194.8Y-73.8
X195.5Y-37.25
X195.5Y-38.25
X195.5Y-39.25
X195.5Y-40.25
X195.5Y-41.25
X195.5Y-42.25
X195.5Y-43.25
X195.5Y-47.75
X195.5Y-48.75
X195.5Y-50.0
X195.5Y-51.0
X195.5Y-52.0
X195.5Y-53.0
X195.5Y-54.0
X195.5Y-55.0
X195.5Y-56.0
X195.5Y-57.0
X195.5Y-58.0
X195.5Y-59.0
X195.8Y-66.8
X195.8Y-67.8
X195.8Y-68.8
X195.8Y-69.8
X195.8Y-70.8
X195.8Y-71.8
X195.8Y-72.8
X195.8Y-73.8
X196.5Y-37.25
X196.5Y-38.25
X196.5Y-39.25
X196.5Y-40.25
X196.5Y-41.25
X196.5Y-42.25
X196.5Y-43.25
X196.5Y-47.75
X196.5Y-48.75
X196.5Y-50.0
X196.5Y-51.0
X196.5Y-52.0
X196.5Y-53.0
X196.5Y-54.0
X196.5Y-55.0
X196.5Y-56.0
X196.5Y-57.0
X196.5Y-58.0
X196.5Y-59.0
X196.8Y-66.8
X196.8Y-67.8
X196.8Y-68.8
X196.8Y-69.8
X196.8Y-70.8
X196.8Y-71.8
X196.8Y-72.8
X196.8Y-73.8
X197.5Y-37.25
X197.5Y-38.25
X197.5Y-39.25
X197.5Y-40.25
X197.5Y-41.25
X197.5Y-42.25
X197.5Y-43.25
X197.5Y-47.75
X197.5Y-48.75
X197.5Y-50.0
X197.5Y-51.0
X197.5Y-52.0
X197.5Y-53.0
X197.5Y-54.0
X197.5Y-55.0
X197.5Y-56.0
X197.5Y-57.0
X197.5Y-58.0
X197.5Y-59.0
X197.8Y-66.8
X197.8Y-67.8
X197.8Y-68.8
X197.8Y-69.8
X197.8Y-70.8
X197.8Y-71.8
X197.8Y-72.8
X197.8Y-73.8
X198.5Y-37.25
X198.5Y-38.25
X198.5Y-39.25
X198.5Y-40.25
X198.5Y-41.25
X198.5Y-42.25
X198.5Y-43.25
X198.5Y-47.75
X198.5Y-48.75
X198.5Y-50.0
X198.5Y-51.0
X198.5Y-52.0
X198.5Y-53.0
X198.5Y-54.0
X198.5Y-55.0
X198.5Y-56.0
X198.5Y-57.0
X198.5Y-58.0
X198.5Y-59.0
X198.8Y-66.8
X198.8Y-67.8
X198.8Y-68.8
X198.8Y-69.8
X198.8Y-70.8
X198.8Y-71.8
X198.8Y-72.8
X198.8Y-73.8
X199.5Y-36.75
X199.5Y-37.75
X199.5Y-38.75
X199.5Y-39.75
X199.5Y-40.75
X199.5Y-41.75
X199.5Y-42.75
X199.5Y-47.75
X199.5Y-48.75
X199.5Y-50.0
X199.5Y-51.0
X199.5Y-52.0
X199.5Y-53.0
X199.5Y-54.0
X199.5Y-55.0
X199.5Y-56.0
X199.5Y-57.0
X199.5Y-58.0
X199.5Y-59.0
X199.8Y-66.8
X199.8Y-67.8
X199.8Y-68.8
X199.8Y-69.8
X199.8Y-70.8
X199.8Y-71.8
X199.8Y-72.8
X199.8Y-73.8
X200.5Y-36.75
X200.5Y-37.75
X200.5Y-38.75
X200.5Y-39.75
X200.5Y-40.75
X200.5Y-41.75
X200.8Y-66.8
X200.8Y-67.8
X200.8Y-68.8
X200.8Y-69.8
X200.8Y-70.8
X200.8Y-71.8
X200.8Y-72.8
X200.8Y-73.8
T2
X152.2Y-29.25
X152.2Y-129.25
X153.606Y-25.856
X153.606Y-32.644
X153.606Y-125.856
X153.606Y-132.644
X157.0Y-24.45
X157.0Y-34.05
X157.0Y-124.45
X157.0Y-134.05
X160.394Y-25.856
X160.394Y-32.644
X160.394Y-125.856
X160.394Y-132.644
X161.8Y-29.25
X161.8Y-129.25
X173.2Y-29.25
X174.606Y-25.856
X174.606Y-32.644
X178.0Y-24.45
X178.0Y-34.05
X181.394Y-25.856
X181.394Y-32.644
X182.8Y-29.25
X194.2Y-29.25
X194.2Y-129.25
X195.606Y-25.856
X195.606Y-32.644
X195.606Y-125.856
X195.606Y-132.644
X199.0Y-24.45
X199.0Y-34.05
X199.0Y-124.45
X199.0Y-134.05
X202.394Y-25.856
X202.394Y-32.644
X202.394Y-125.856
X202.394Y-132.644
X203.8Y-29.25
X203.8Y-129.25
T3
X167.5Y-38.37
X167.5Y-40.91
X167.5Y-43.45
X170.04Y-38.37
X170.04Y-40.91
X170.04Y-43.45
X184.725Y-38.41
X184.725Y-40.95
X184.725Y-43.49
X187.265Y-38.41
X187.265Y-40.95
X187.265Y-43.49
X202.56Y-38.37
X202.56Y-40.91
X202.56Y-43.45
X205.1Y-38.37
X205.1Y-40.91
X205.1Y-43.45
X205.3Y-68.21
X205.3Y-70.75
T4
X161.45Y-83.75
X161.45Y-91.25
X161.6Y-100.45
X161.6Y-107.95
X179.0Y-83.75
X179.0Y-91.25
X179.15Y-100.45
X179.15Y-107.95
X196.55Y-83.75
X196.55Y-91.25
X196.7Y-100.45
X196.7Y-107.95
T5
X151.75Y-43.0
X152.0Y-75.75
X204.0Y-75.75
X204.25Y-49.25
T6
X157.0Y-29.25
X157.0Y-129.25
X178.0Y-29.25
X199.0Y-29.25
X199.0Y-129.25
M30
