%TF.GenerationSoftware,KiCad,Pcbnew,9.0.3*%
%TF.CreationDate,2025-08-23T19:54:00-03:00*%
%TF.ProjectId,TorqController,546f7271-436f-46e7-9472-6f6c6c65722e,rev?*%
%TF.SameCoordinates,Original*%
%TF.FileFunction,Soldermask,Top*%
%TF.FilePolarity,Negative*%
%FSLAX46Y46*%
G04 Gerber Fmt 4.6, Leading zero omitted, Abs format (unit mm)*
G04 Created by KiCad (PCBNEW 9.0.3) date 2025-08-23 19:54:00*
%MOMM*%
%LPD*%
G01*
G04 APERTURE LIST*
G04 Aperture macros list*
%AMRoundRect*
0 Rectangle with rounded corners*
0 $1 Rounding radius*
0 $2 $3 $4 $5 $6 $7 $8 $9 X,Y pos of 4 corners*
0 Add a 4 corners polygon primitive as box body*
4,1,4,$2,$3,$4,$5,$6,$7,$8,$9,$2,$3,0*
0 Add four circle primitives for the rounded corners*
1,1,$1+$1,$2,$3*
1,1,$1+$1,$4,$5*
1,1,$1+$1,$6,$7*
1,1,$1+$1,$8,$9*
0 Add four rect primitives between the rounded corners*
20,1,$1+$1,$2,$3,$4,$5,0*
20,1,$1+$1,$4,$5,$6,$7,0*
20,1,$1+$1,$6,$7,$8,$9,0*
20,1,$1+$1,$8,$9,$2,$3,0*%
G04 Aperture macros list end*
%ADD10RoundRect,0.135000X-0.185000X0.135000X-0.185000X-0.135000X0.185000X-0.135000X0.185000X0.135000X0*%
%ADD11RoundRect,0.140000X0.170000X-0.140000X0.170000X0.140000X-0.170000X0.140000X-0.170000X-0.140000X0*%
%ADD12RoundRect,0.250000X-0.550000X0.850000X-0.550000X-0.850000X0.550000X-0.850000X0.550000X0.850000X0*%
%ADD13RoundRect,0.135000X-0.135000X-0.185000X0.135000X-0.185000X0.135000X0.185000X-0.135000X0.185000X0*%
%ADD14RoundRect,0.075000X0.350000X0.075000X-0.350000X0.075000X-0.350000X-0.075000X0.350000X-0.075000X0*%
%ADD15R,1.600000X2.400000*%
%ADD16RoundRect,0.135000X0.135000X0.185000X-0.135000X0.185000X-0.135000X-0.185000X0.135000X-0.185000X0*%
%ADD17RoundRect,0.100000X0.637500X0.100000X-0.637500X0.100000X-0.637500X-0.100000X0.637500X-0.100000X0*%
%ADD18RoundRect,0.250000X0.445000X-0.457500X0.445000X0.457500X-0.445000X0.457500X-0.445000X-0.457500X0*%
%ADD19RoundRect,0.135000X0.185000X-0.135000X0.185000X0.135000X-0.185000X0.135000X-0.185000X-0.135000X0*%
%ADD20R,3.155000X3.255000*%
%ADD21RoundRect,0.100000X0.687500X0.100000X-0.687500X0.100000X-0.687500X-0.100000X0.687500X-0.100000X0*%
%ADD22RoundRect,0.140000X0.219203X0.021213X0.021213X0.219203X-0.219203X-0.021213X-0.021213X-0.219203X0*%
%ADD23RoundRect,0.140000X-0.140000X-0.170000X0.140000X-0.170000X0.140000X0.170000X-0.140000X0.170000X0*%
%ADD24RoundRect,0.140000X-0.170000X0.140000X-0.170000X-0.140000X0.170000X-0.140000X0.170000X0.140000X0*%
%ADD25RoundRect,0.150000X-0.587500X-0.150000X0.587500X-0.150000X0.587500X0.150000X-0.587500X0.150000X0*%
%ADD26RoundRect,0.225000X-0.225000X-0.250000X0.225000X-0.250000X0.225000X0.250000X-0.225000X0.250000X0*%
%ADD27RoundRect,0.100000X-0.712500X-0.100000X0.712500X-0.100000X0.712500X0.100000X-0.712500X0.100000X0*%
%ADD28RoundRect,0.140000X-0.219203X-0.021213X-0.021213X-0.219203X0.219203X0.021213X0.021213X0.219203X0*%
%ADD29RoundRect,0.250000X-0.700000X-1.000000X0.700000X-1.000000X0.700000X1.000000X-0.700000X1.000000X0*%
%ADD30C,4.500000*%
%ADD31RoundRect,0.150000X0.650000X0.150000X-0.650000X0.150000X-0.650000X-0.150000X0.650000X-0.150000X0*%
%ADD32R,2.410000X3.100000*%
%ADD33RoundRect,0.250000X-0.750000X0.600000X-0.750000X-0.600000X0.750000X-0.600000X0.750000X0.600000X0*%
%ADD34O,2.000000X1.700000*%
%ADD35RoundRect,0.140000X-0.021213X0.219203X-0.219203X0.021213X0.021213X-0.219203X0.219203X-0.021213X0*%
%ADD36R,0.900000X1.700000*%
%ADD37RoundRect,0.237500X0.250000X0.237500X-0.250000X0.237500X-0.250000X-0.237500X0.250000X-0.237500X0*%
%ADD38RoundRect,0.140000X0.140000X0.170000X-0.140000X0.170000X-0.140000X-0.170000X0.140000X-0.170000X0*%
%ADD39RoundRect,0.250000X-0.600000X-0.725000X0.600000X-0.725000X0.600000X0.725000X-0.600000X0.725000X0*%
%ADD40O,1.700000X1.950000*%
%ADD41RoundRect,0.140000X0.021213X-0.219203X0.219203X-0.021213X-0.021213X0.219203X-0.219203X0.021213X0*%
%ADD42RoundRect,0.250000X-0.725000X0.600000X-0.725000X-0.600000X0.725000X-0.600000X0.725000X0.600000X0*%
%ADD43O,1.950000X1.700000*%
%ADD44RoundRect,0.250000X0.550000X-0.850000X0.550000X0.850000X-0.550000X0.850000X-0.550000X-0.850000X0*%
%ADD45R,1.500000X1.100000*%
%ADD46RoundRect,0.250000X-0.600000X-0.750000X0.600000X-0.750000X0.600000X0.750000X-0.600000X0.750000X0*%
%ADD47O,1.700000X2.000000*%
%ADD48RoundRect,0.375000X0.375000X-0.625000X0.375000X0.625000X-0.375000X0.625000X-0.375000X-0.625000X0*%
%ADD49RoundRect,0.500000X1.400000X-0.500000X1.400000X0.500000X-1.400000X0.500000X-1.400000X-0.500000X0*%
%ADD50RoundRect,0.075000X-0.415425X-0.521491X0.521491X0.415425X0.415425X0.521491X-0.521491X-0.415425X0*%
%ADD51RoundRect,0.075000X0.415425X-0.521491X0.521491X-0.415425X-0.415425X0.521491X-0.521491X0.415425X0*%
%ADD52RoundRect,0.147500X-0.226274X-0.017678X-0.017678X-0.226274X0.226274X0.017678X0.017678X0.226274X0*%
%ADD53RoundRect,0.250000X1.000000X-0.550000X1.000000X0.550000X-1.000000X0.550000X-1.000000X-0.550000X0*%
%ADD54RoundRect,0.200000X-0.035355X-0.318198X0.318198X0.035355X0.035355X0.318198X-0.318198X-0.035355X0*%
%ADD55RoundRect,0.150000X-0.825000X-0.150000X0.825000X-0.150000X0.825000X0.150000X-0.825000X0.150000X0*%
%ADD56RoundRect,0.250000X-0.445000X0.457500X-0.445000X-0.457500X0.445000X-0.457500X0.445000X0.457500X0*%
%ADD57C,0.650000*%
%ADD58R,1.240000X0.600000*%
%ADD59R,1.240000X0.300000*%
%ADD60O,2.100000X1.000000*%
%ADD61O,1.800000X1.000000*%
%ADD62R,1.700000X1.700000*%
%ADD63C,1.700000*%
G04 APERTURE END LIST*
D10*
%TO.C,R35*%
X160200000Y-101340001D03*
X160200000Y-102359999D03*
%TD*%
D11*
%TO.C,C36*%
X169900000Y-107600000D03*
X169900000Y-106640000D03*
%TD*%
D12*
%TO.C,C42*%
X171750000Y-108050000D03*
X171750000Y-111050000D03*
%TD*%
D13*
%TO.C,R3*%
X145440000Y-77400000D03*
X146460000Y-77400000D03*
%TD*%
%TO.C,R5*%
X143580000Y-76450000D03*
X144600000Y-76450000D03*
%TD*%
D14*
%TO.C,U11*%
X147100000Y-82875000D03*
X147100000Y-82225000D03*
X147100000Y-81575000D03*
X147100000Y-80925000D03*
X144200000Y-80925000D03*
X144200000Y-81575000D03*
X144200000Y-82225000D03*
X144200000Y-82875000D03*
D15*
X145650000Y-81900000D03*
%TD*%
D16*
%TO.C,R24*%
X191659999Y-111950000D03*
X190640001Y-111950000D03*
%TD*%
D17*
%TO.C,U1*%
X188450000Y-78675000D03*
X188450000Y-78025000D03*
X188450000Y-77375000D03*
X188450000Y-76725000D03*
X182725000Y-76725000D03*
X182725000Y-77375000D03*
X182725000Y-78025000D03*
X182725000Y-78675000D03*
%TD*%
D13*
%TO.C,R13*%
X162640000Y-76800000D03*
X163660000Y-76800000D03*
%TD*%
D18*
%TO.C,C24*%
X186700000Y-74352500D03*
X186700000Y-71647500D03*
%TD*%
D19*
%TO.C,R23*%
X143050000Y-82409999D03*
X143050000Y-81390001D03*
%TD*%
D20*
%TO.C,U7*%
X184400000Y-109513409D03*
D21*
X187262500Y-111463409D03*
X187262500Y-110813409D03*
X187262500Y-110163409D03*
X187262500Y-109513409D03*
X187262500Y-108863409D03*
X187262500Y-108213409D03*
X187262500Y-107563409D03*
X181537500Y-107563409D03*
X181537500Y-108213409D03*
X181537500Y-108863409D03*
X181537500Y-109513409D03*
X181537500Y-110163409D03*
X181537500Y-110813409D03*
X181537500Y-111463409D03*
%TD*%
D13*
%TO.C,R4*%
X143590000Y-77400000D03*
X144610000Y-77400000D03*
%TD*%
D11*
%TO.C,C32*%
X188800000Y-107930000D03*
X188800000Y-106970000D03*
%TD*%
D22*
%TO.C,C7*%
X163158713Y-91645377D03*
X162479891Y-90966555D03*
%TD*%
D18*
%TO.C,C27*%
X171100000Y-74702500D03*
X171100000Y-71997500D03*
%TD*%
D23*
%TO.C,C58*%
X160820000Y-78700000D03*
X161780000Y-78700000D03*
%TD*%
D16*
%TO.C,R87*%
X149260000Y-80000000D03*
X148240000Y-80000000D03*
%TD*%
D13*
%TO.C,R31*%
X179940000Y-78350000D03*
X180960000Y-78350000D03*
%TD*%
%TO.C,R9*%
X179950000Y-77400000D03*
X180970000Y-77400000D03*
%TD*%
%TO.C,R20*%
X171780000Y-100700000D03*
X172800000Y-100700000D03*
%TD*%
%TO.C,R2*%
X145430000Y-76450000D03*
X146450000Y-76450000D03*
%TD*%
%TO.C,R12*%
X162640000Y-77750000D03*
X163660000Y-77750000D03*
%TD*%
D23*
%TO.C,C30*%
X167450000Y-80150000D03*
X168410000Y-80150000D03*
%TD*%
D10*
%TO.C,R37*%
X148800000Y-93190000D03*
X148800000Y-94210000D03*
%TD*%
D23*
%TO.C,C52*%
X144220000Y-108050000D03*
X145180000Y-108050000D03*
%TD*%
D24*
%TO.C,C41*%
X176300000Y-104270000D03*
X176300000Y-105230000D03*
%TD*%
D25*
%TO.C,Q1*%
X166512500Y-100900000D03*
X166512500Y-102800000D03*
X168387501Y-101850000D03*
%TD*%
D26*
%TO.C,C39*%
X170150000Y-101950000D03*
X171700000Y-101950000D03*
%TD*%
D22*
%TO.C,C2*%
X163569302Y-89300000D03*
X162890480Y-88621178D03*
%TD*%
D27*
%TO.C,U8*%
X170537500Y-103475000D03*
X170537500Y-104125000D03*
X170537500Y-104775000D03*
X170537500Y-105425000D03*
X174762500Y-105425000D03*
X174762500Y-104775000D03*
X174762500Y-104125000D03*
X174762500Y-103475000D03*
%TD*%
D11*
%TO.C,C49*%
X147850000Y-89230000D03*
X147850000Y-88270000D03*
%TD*%
D13*
%TO.C,R19*%
X172890000Y-102150000D03*
X173910000Y-102150000D03*
%TD*%
D28*
%TO.C,C3*%
X175640480Y-93477144D03*
X176319302Y-94155966D03*
%TD*%
D23*
%TO.C,C8*%
X186620000Y-79950000D03*
X187580000Y-79950000D03*
%TD*%
D29*
%TO.C,L2*%
X177650000Y-102550000D03*
X181750000Y-102550000D03*
%TD*%
D23*
%TO.C,C56*%
X143610000Y-78350000D03*
X144570000Y-78350000D03*
%TD*%
%TO.C,C57*%
X178120000Y-78350000D03*
X179080000Y-78350000D03*
%TD*%
D30*
%TO.C,*%
X192500000Y-109000000D03*
%TD*%
D19*
%TO.C,R49*%
X158200000Y-94209999D03*
X158200000Y-93190001D03*
%TD*%
D17*
%TO.C,U9*%
X153962500Y-78675000D03*
X153962500Y-78025000D03*
X153962500Y-77375000D03*
X153962500Y-76725000D03*
X148237500Y-76725000D03*
X148237500Y-77375000D03*
X148237500Y-78025000D03*
X148237500Y-78675000D03*
%TD*%
D19*
%TO.C,R45*%
X149750000Y-94209999D03*
X149750000Y-93190001D03*
%TD*%
D23*
%TO.C,C29*%
X169350000Y-80150000D03*
X170310000Y-80150000D03*
%TD*%
D19*
%TO.C,R50*%
X149750000Y-91759999D03*
X149750000Y-90740001D03*
%TD*%
D28*
%TO.C,C4*%
X171090480Y-84827144D03*
X171769302Y-85505966D03*
%TD*%
D11*
%TO.C,C45*%
X187550000Y-101680000D03*
X187550000Y-100720000D03*
%TD*%
D16*
%TO.C,R26*%
X145209999Y-107050000D03*
X144190001Y-107050000D03*
%TD*%
D30*
%TO.C,*%
X192750000Y-82500000D03*
%TD*%
D31*
%TO.C,U4*%
X166900000Y-75055000D03*
X166900000Y-73785000D03*
X166900000Y-72515000D03*
X166900000Y-71245000D03*
X161600000Y-71245000D03*
X161600000Y-72515000D03*
X161600000Y-73785000D03*
X161600000Y-75055000D03*
D32*
X164250000Y-73150000D03*
%TD*%
D19*
%TO.C,R1*%
X189400000Y-97059999D03*
X189400000Y-96040001D03*
%TD*%
D30*
%TO.C,H4*%
X140500000Y-109000000D03*
%TD*%
D13*
%TO.C,R6*%
X178090000Y-76450000D03*
X179110000Y-76450000D03*
%TD*%
D19*
%TO.C,R46*%
X158200000Y-92309999D03*
X158200000Y-91290001D03*
%TD*%
D28*
%TO.C,C9*%
X174940480Y-96827144D03*
X175619302Y-97505966D03*
%TD*%
D19*
%TO.C,R17*%
X179950000Y-108760000D03*
X179950000Y-107740000D03*
%TD*%
D33*
%TO.C,J10*%
X162300000Y-106850000D03*
D34*
X162300000Y-109350000D03*
%TD*%
D35*
%TO.C,C14*%
X162789411Y-94810589D03*
X162110589Y-95489411D03*
%TD*%
D25*
%TO.C,Q2*%
X161674999Y-100950000D03*
X161674999Y-102850000D03*
X163550000Y-101900000D03*
%TD*%
D16*
%TO.C,R22*%
X186450000Y-90150000D03*
X185430002Y-90150000D03*
%TD*%
%TO.C,R15*%
X166570000Y-80150000D03*
X165550000Y-80150000D03*
%TD*%
D36*
%TO.C,SW1*%
X190649999Y-97250000D03*
X194050001Y-97250000D03*
%TD*%
D23*
%TO.C,C1*%
X151990000Y-80000000D03*
X152950000Y-80000000D03*
%TD*%
D33*
%TO.C,J9*%
X167000000Y-106850000D03*
D34*
X167000000Y-109350000D03*
%TD*%
D24*
%TO.C,C50*%
X148250000Y-81470000D03*
X148250000Y-82430000D03*
%TD*%
D18*
%TO.C,C22*%
X153800000Y-74652500D03*
X153800000Y-71947500D03*
%TD*%
D26*
%TO.C,C33*%
X181175000Y-106000000D03*
X182725000Y-106000000D03*
%TD*%
D37*
%TO.C,R58*%
X150400000Y-99600000D03*
X148575000Y-99600000D03*
%TD*%
D13*
%TO.C,R11*%
X160740000Y-76800000D03*
X161760000Y-76800000D03*
%TD*%
D11*
%TO.C,C13*%
X195300000Y-98480000D03*
X195300000Y-97520000D03*
%TD*%
D35*
%TO.C,C15*%
X165369302Y-97377144D03*
X164690480Y-98055966D03*
%TD*%
D10*
%TO.C,R34*%
X165050000Y-101380002D03*
X165050000Y-102400000D03*
%TD*%
D23*
%TO.C,C54*%
X147870000Y-95150000D03*
X148830000Y-95150000D03*
%TD*%
D10*
%TO.C,R47*%
X158200000Y-95090001D03*
X158200000Y-96109999D03*
%TD*%
%TO.C,R38*%
X148800000Y-90740000D03*
X148800000Y-91760000D03*
%TD*%
D38*
%TO.C,C47*%
X150900000Y-87250000D03*
X149940000Y-87250000D03*
%TD*%
D13*
%TO.C,R10*%
X160740000Y-77750000D03*
X161760000Y-77750000D03*
%TD*%
D39*
%TO.C,J3*%
X149050000Y-109350000D03*
D40*
X151550000Y-109350000D03*
X154050000Y-109350000D03*
X156550000Y-109350000D03*
%TD*%
D11*
%TO.C,C37*%
X187550000Y-103580000D03*
X187550000Y-102620000D03*
%TD*%
D41*
%TO.C,C12*%
X174940480Y-95505966D03*
X175619302Y-94827144D03*
%TD*%
D42*
%TO.C,J4*%
X140400000Y-81750000D03*
D43*
X140400000Y-84250000D03*
X140400000Y-86750000D03*
X140400000Y-89250000D03*
X140400000Y-91750000D03*
X140400000Y-94250000D03*
X140400000Y-96750000D03*
X140400000Y-99250000D03*
%TD*%
D23*
%TO.C,C28*%
X184770000Y-79950000D03*
X185730000Y-79950000D03*
%TD*%
D30*
%TO.C,*%
X192750000Y-82500000D03*
%TD*%
D41*
%TO.C,C10*%
X175601069Y-96195377D03*
X176279891Y-95516555D03*
%TD*%
D44*
%TO.C,C16*%
X190650000Y-104200000D03*
X190650000Y-101200000D03*
%TD*%
D42*
%TO.C,J5*%
X145250000Y-86700000D03*
D43*
X145250000Y-89200000D03*
X145250000Y-91700000D03*
X145250000Y-94200000D03*
X145250000Y-96700000D03*
X145250000Y-99200000D03*
%TD*%
D24*
%TO.C,C46*%
X189400000Y-98090000D03*
X189400000Y-99050000D03*
%TD*%
D10*
%TO.C,R39*%
X148800000Y-88230000D03*
X148800000Y-89250000D03*
%TD*%
D13*
%TO.C,R7*%
X178100000Y-77400000D03*
X179120000Y-77400000D03*
%TD*%
D19*
%TO.C,R16*%
X188800000Y-109873409D03*
X188800000Y-108853409D03*
%TD*%
D45*
%TO.C,D1*%
X152200000Y-97900000D03*
X155200000Y-97900000D03*
X155200000Y-99400000D03*
X152200000Y-99400000D03*
%TD*%
D16*
%TO.C,R14*%
X183910000Y-79950000D03*
X182890000Y-79950000D03*
%TD*%
D28*
%TO.C,C6*%
X171740480Y-84177144D03*
X172419302Y-84855966D03*
%TD*%
D46*
%TO.C,J1*%
X140800000Y-103750000D03*
D47*
X143300000Y-103750000D03*
%TD*%
D16*
%TO.C,R25*%
X189759999Y-110950000D03*
X188740001Y-110950000D03*
%TD*%
D48*
%TO.C,U10*%
X180900000Y-98100000D03*
X183200000Y-98099999D03*
D49*
X183200000Y-91800001D03*
D48*
X185500000Y-98100000D03*
%TD*%
D13*
%TO.C,R30*%
X178090000Y-79300000D03*
X179110000Y-79300000D03*
%TD*%
D17*
%TO.C,U6*%
X171162500Y-78850000D03*
X171162500Y-78200000D03*
X171162500Y-77550000D03*
X171162500Y-76900000D03*
X165437500Y-76900000D03*
X165437500Y-77550000D03*
X165437500Y-78200000D03*
X165437500Y-78850000D03*
%TD*%
D30*
%TO.C,H2*%
X140250000Y-76250000D03*
%TD*%
D16*
%TO.C,R21*%
X186459999Y-89150000D03*
X185440001Y-89150000D03*
%TD*%
D31*
%TO.C,U3*%
X184595000Y-75005000D03*
X184595000Y-73735000D03*
X184595000Y-72465000D03*
X184595000Y-71195000D03*
X179295000Y-71195000D03*
X179295000Y-72465000D03*
X179295000Y-73735000D03*
X179295000Y-75005000D03*
D32*
X181945000Y-73100000D03*
%TD*%
D18*
%TO.C,C26*%
X169000000Y-74702500D03*
X169000000Y-71997500D03*
%TD*%
D12*
%TO.C,C38*%
X185050000Y-101250000D03*
X185050000Y-104250000D03*
%TD*%
D38*
%TO.C,C55*%
X189740000Y-111950000D03*
X188780000Y-111950000D03*
%TD*%
D24*
%TO.C,C35*%
X179950000Y-109670000D03*
X179950000Y-110630000D03*
%TD*%
D11*
%TO.C,C51*%
X147850000Y-91730000D03*
X147850000Y-90770000D03*
%TD*%
D50*
%TO.C,U5*%
X164642015Y-92265343D03*
X164995569Y-92618897D03*
X165349122Y-92972450D03*
X165702676Y-93326004D03*
X166056229Y-93679557D03*
X166409782Y-94033110D03*
X166763336Y-94386664D03*
X167116889Y-94740217D03*
X167470442Y-95093770D03*
X167823996Y-95447324D03*
X168177549Y-95800877D03*
X168531103Y-96154431D03*
D51*
X170528679Y-96154431D03*
X170882233Y-95800877D03*
X171235786Y-95447324D03*
X171589340Y-95093770D03*
X171942893Y-94740217D03*
X172296446Y-94386664D03*
X172650000Y-94033110D03*
X173003553Y-93679557D03*
X173357106Y-93326004D03*
X173710660Y-92972450D03*
X174064213Y-92618897D03*
X174417767Y-92265343D03*
D50*
X174417767Y-90267767D03*
X174064213Y-89914213D03*
X173710660Y-89560660D03*
X173357106Y-89207106D03*
X173003553Y-88853553D03*
X172650000Y-88500000D03*
X172296446Y-88146446D03*
X171942893Y-87792893D03*
X171589340Y-87439340D03*
X171235786Y-87085786D03*
X170882233Y-86732233D03*
X170528679Y-86378679D03*
D51*
X168531103Y-86378679D03*
X168177549Y-86732233D03*
X167823996Y-87085786D03*
X167470442Y-87439340D03*
X167116889Y-87792893D03*
X166763336Y-88146446D03*
X166409782Y-88500000D03*
X166056229Y-88853553D03*
X165702676Y-89207106D03*
X165349122Y-89560660D03*
X164995569Y-89914213D03*
X164642015Y-90267767D03*
%TD*%
D13*
%TO.C,R8*%
X179940000Y-76450000D03*
X180960000Y-76450000D03*
%TD*%
D18*
%TO.C,C23*%
X151700000Y-74652500D03*
X151700000Y-71947500D03*
%TD*%
%TO.C,C25*%
X188800000Y-74352500D03*
X188800000Y-71647500D03*
%TD*%
D31*
%TO.C,U2*%
X149595000Y-74905000D03*
X149595000Y-73635000D03*
X149595000Y-72365000D03*
X149595000Y-71095000D03*
X144295000Y-71095000D03*
X144295000Y-72365000D03*
X144295000Y-73635000D03*
X144295000Y-74905000D03*
D32*
X146945000Y-73000000D03*
%TD*%
D52*
%TO.C,FB1*%
X173636944Y-95523608D03*
X174322838Y-96209502D03*
%TD*%
D41*
%TO.C,C11*%
X174290480Y-94805966D03*
X174969302Y-94127144D03*
%TD*%
D13*
%TO.C,R28*%
X143580000Y-79300000D03*
X144600000Y-79300000D03*
%TD*%
D53*
%TO.C,L1*%
X176550000Y-111350000D03*
X176550000Y-106950000D03*
%TD*%
D22*
%TO.C,C5*%
X163819302Y-90905966D03*
X163140480Y-90227144D03*
%TD*%
D54*
%TO.C,Y1*%
X163623825Y-97300438D03*
X164613774Y-96310489D03*
X163835957Y-95532672D03*
X162846008Y-96522621D03*
%TD*%
D23*
%TO.C,C34*%
X150140000Y-80000000D03*
X151100000Y-80000000D03*
%TD*%
D11*
%TO.C,C53*%
X147850000Y-94180000D03*
X147850000Y-93220000D03*
%TD*%
D55*
%TO.C,U13*%
X151500000Y-88380000D03*
X151500000Y-89650000D03*
X151500000Y-90920000D03*
X151500000Y-92190000D03*
X151500000Y-93460000D03*
X151500000Y-94730000D03*
X151500000Y-96000000D03*
X156450000Y-96000000D03*
X156450000Y-94730000D03*
X156450000Y-93460000D03*
X156450000Y-92190000D03*
X156450000Y-90920000D03*
X156450000Y-89650000D03*
X156450000Y-88380000D03*
%TD*%
D56*
%TO.C,C44*%
X178550000Y-91397500D03*
X178550000Y-94102500D03*
%TD*%
D13*
%TO.C,R33*%
X162640000Y-78700000D03*
X163660000Y-78700000D03*
%TD*%
%TO.C,R32*%
X160840000Y-79650000D03*
X161860000Y-79650000D03*
%TD*%
D56*
%TO.C,C43*%
X187850000Y-96547500D03*
X187850000Y-99252500D03*
%TD*%
D13*
%TO.C,R29*%
X145430000Y-78350000D03*
X146450000Y-78350000D03*
%TD*%
D23*
%TO.C,C48*%
X145490000Y-79300000D03*
X146450000Y-79300000D03*
%TD*%
D19*
%TO.C,R48*%
X149750000Y-89259999D03*
X149750000Y-88240001D03*
%TD*%
D39*
%TO.C,J2*%
X149050000Y-104700000D03*
D40*
X151550000Y-104700000D03*
X154050000Y-104700000D03*
X156550000Y-104700000D03*
%TD*%
D19*
%TO.C,R18*%
X179950000Y-106860000D03*
X179950000Y-105840000D03*
%TD*%
D57*
%TO.C,P1*%
X189595000Y-93040000D03*
X189595000Y-87260000D03*
D58*
X188475000Y-93350000D03*
X188475000Y-92550000D03*
D59*
X188475000Y-91400000D03*
X188475000Y-90400000D03*
X188475000Y-89900000D03*
X188475000Y-88900000D03*
D58*
X188475000Y-87750000D03*
X188475000Y-86950000D03*
X188475000Y-86950000D03*
X188475000Y-87750000D03*
D59*
X188475000Y-88400000D03*
X188475000Y-89400000D03*
X188475000Y-90900000D03*
X188475000Y-91900000D03*
D58*
X188475000Y-92550000D03*
X188475000Y-93350000D03*
D60*
X189075000Y-94470000D03*
D61*
X193275000Y-94470000D03*
D60*
X189075000Y-85830000D03*
D61*
X193275000Y-85830000D03*
%TD*%
D16*
%TO.C,R27*%
X148859999Y-96150000D03*
X147840001Y-96150000D03*
%TD*%
D62*
%TO.C,J12*%
X158550000Y-72000000D03*
D63*
X156010000Y-72000000D03*
X158550000Y-74540000D03*
X156010000Y-74540000D03*
X158550000Y-77080000D03*
X156010000Y-77080000D03*
%TD*%
D62*
%TO.C,J8*%
X193800000Y-101460000D03*
D63*
X193800000Y-104000000D03*
%TD*%
D62*
%TO.C,J7*%
X175775000Y-72040000D03*
D63*
X173235000Y-72040000D03*
X175775000Y-74580000D03*
X173235000Y-74580000D03*
X175775000Y-77120000D03*
X173235000Y-77120000D03*
%TD*%
D62*
%TO.C,J6*%
X193610000Y-72000000D03*
D63*
X191070000Y-72000000D03*
X193610000Y-74540000D03*
X191070000Y-74540000D03*
X193610000Y-77080000D03*
X191070000Y-77080000D03*
%TD*%
M02*
