M48
; DRILL file {KiCad 9.0.3} date 2025-08-23T19:54:04-0300
; FORMAT={-:-/ absolute / metric / decimal}
; #@! TF.CreationDate,2025-08-23T19:54:04-03:00
; #@! TF.GenerationSoftware,Kicad,Pcbnew,9.0.3
; #@! TF.FileFunction,Plated,1,2,PTH
FMAT,2
METRIC
; #@! TA.AperFunction,Plated,PTH,ViaDrill
T1C0.200
; #@! TA.AperFunction,Plated,PTH,ComponentDrill
T2C0.200
; #@! TA.AperFunction,Plated,PTH,ViaDrill
T3C0.250
; #@! TA.AperFunction,Plated,PTH,ViaDrill
T4C0.300
; #@! TA.AperFunction,Plated,PTH,ComponentDrill
T5C0.600
; #@! TA.AperFunction,Plated,PTH,ComponentDrill
T6C0.950
; #@! TA.AperFunction,Plated,PTH,ComponentDrill
T7C1.000
; #@! TA.AperFunction,Plated,PTH,ComponentDrill
T8C2.700
%
G90
G05
T1
X143.58Y-76.45
X143.59Y-77.4
X143.8Y-75.7
X143.824Y-72.91
X144.3Y-71.64
X144.6Y-79.2
X145.1Y-77.4
X146.7Y-92.9
X146.9Y-88.0
X146.9Y-90.4
X147.7Y-81.6
X147.85Y-87.85
X147.85Y-90.35
X147.85Y-92.75
X148.1Y-85.9
X148.2Y-98.5
X148.8Y-87.8
X148.8Y-90.2
X148.8Y-92.75
X149.1Y-83.4
X149.1Y-97.5
X150.0Y-95.1
X150.14Y-80.0
X150.9Y-98.6
X151.9Y-101.5
X153.6Y-99.2
X155.0Y-78.1
X155.5Y-102.3
X156.4Y-101.5
X157.486Y-100.486
X158.0Y-84.964
X158.0Y-85.614
X158.4Y-82.0
X158.4Y-82.65
X158.4Y-83.4
X160.125Y-88.332
X160.25Y-97.5
X160.3Y-81.6
X160.82Y-79.15
X160.9Y-90.45
X160.95Y-91.7
X161.0Y-82.75
X161.0Y-83.4
X161.024Y-82.1
X161.05Y-71.79
X161.34Y-84.998
X161.37Y-85.648
X161.662Y-100.962
X161.75Y-73.06
X161.75Y-76.1
X161.77Y-77.75
X161.9Y-90.1
X163.624Y-97.3
X164.2Y-79.8
X164.5Y-86.3
X165.023Y-95.491
X165.599Y-90.956
X165.7Y-71.05
X165.825Y-91.691
X166.125Y-96.375
X166.226Y-95.733
X166.403Y-85.568
X166.57Y-80.15
X166.707Y-86.143
X166.85Y-98.5
X167.211Y-91.961
X167.25Y-90.922
X167.327Y-97.824
X167.45Y-104.05
X167.981Y-97.7
X168.25Y-94.3
X168.65Y-88.4
X168.801Y-93.801
X168.821Y-94.828
X169.35Y-88.808
X169.4Y-93.465
X169.528Y-84.45
X169.971Y-93.784
X170.2Y-90.0
X170.8Y-89.0
X170.8Y-91.5
X171.434Y-84.484
X171.5Y-90.2
X171.632Y-93.685
X172.35Y-96.1
X172.4Y-78.175
X172.629Y-86.329
X172.7Y-85.6
X172.9Y-90.3
X175.275Y-89.725
X175.3Y-86.2
X175.9Y-91.5
X176.0Y-85.6
X177.0Y-90.3
X178.09Y-78.8
X179.25Y-72.95
X179.4Y-77.4
X180.4Y-89.9
X181.2Y-88.6
X181.5Y-94.0
X182.038Y-97.22
X182.375Y-95.725
X182.55Y-89.15
X183.55Y-70.85
X184.2Y-81.3
X185.4Y-94.1
X185.5Y-95.1
X186.2Y-91.9
X187.7Y-105.0
X188.812Y-99.362
X189.75Y-78.075
X189.95Y-96.04
X193.9Y-99.8
T2
X145.99Y-71.7
X145.99Y-73.0
X145.99Y-74.3
X147.9Y-71.7
X147.9Y-73.0
X147.9Y-74.3
X163.295Y-71.85
X163.295Y-73.15
X163.295Y-74.45
X165.205Y-71.85
X165.205Y-73.15
X165.205Y-74.45
X180.99Y-71.8
X180.99Y-73.1
X180.99Y-74.4
X182.9Y-71.8
X182.9Y-73.1
X182.9Y-74.4
X183.3Y-107.313
X183.3Y-108.413
X183.3Y-109.513
X183.3Y-110.613
X183.3Y-111.713
X184.4Y-107.313
X184.4Y-108.413
X184.4Y-109.513
X184.4Y-110.613
X184.4Y-111.713
X185.5Y-107.313
X185.5Y-108.413
X185.5Y-109.513
X185.5Y-110.613
X185.5Y-111.713
T3
X160.55Y-93.55
X160.85Y-96.85
X161.4Y-96.35
X161.5Y-92.6
X180.72Y-106.929
X180.72Y-108.863
T4
X138.5Y-100.5
X139.5Y-71.5
X139.5Y-72.5
X140.5Y-71.5
X140.5Y-72.5
X142.0Y-105.0
X142.5Y-95.5
X143.5Y-87.5
X143.5Y-88.5
X143.5Y-90.5
X143.5Y-92.5
X143.5Y-96.5
X143.5Y-98.5
X143.5Y-111.5
X144.5Y-111.5
X145.071Y-80.024
X145.21Y-106.15
X145.21Y-106.65
X146.4Y-75.2
X146.9Y-103.3
X146.9Y-105.1
X149.5Y-86.0
X150.4Y-106.5
X150.64Y-72.835
X151.0Y-82.0
X151.0Y-86.0
X151.5Y-76.2
X151.5Y-106.5
X152.0Y-82.0
X152.5Y-86.0
X153.0Y-82.0
X153.35Y-88.8
X153.35Y-95.55
X153.5Y-101.5
X153.5Y-106.5
X154.0Y-86.0
X154.5Y-82.5
X154.5Y-90.5
X154.5Y-93.5
X155.5Y-82.5
X157.5Y-76.0
X160.75Y-87.05
X160.9Y-102.85
X161.5Y-105.0
X163.1Y-75.3
X165.425Y-102.775
X165.5Y-107.5
X165.95Y-102.8
X167.268Y-79.232
X167.6Y-76.55
X167.85Y-72.85
X167.9Y-82.7
X168.92Y-83.54
X169.5Y-99.5
X170.5Y-98.5
X171.5Y-97.5
X172.75Y-104.25
X173.4Y-85.1
X173.5Y-97.5
X173.5Y-98.5
X173.5Y-99.5
X173.5Y-109.5
X174.5Y-76.0
X174.5Y-82.0
X174.5Y-83.0
X175.5Y-82.0
X175.5Y-83.0
X175.5Y-102.5
X176.0Y-78.5
X177.0Y-87.5
X177.5Y-96.5
X177.5Y-97.5
X177.5Y-98.5
X178.5Y-96.5
X178.5Y-97.5
X178.5Y-98.5
X178.5Y-109.5
X179.5Y-81.5
X179.5Y-82.5
X179.5Y-83.5
X179.5Y-84.5
X179.5Y-85.5
X179.5Y-86.5
X179.5Y-87.5
X179.5Y-102.5
X179.5Y-104.5
X181.1Y-75.4
X181.5Y-81.5
X181.5Y-82.5
X181.5Y-83.5
X181.5Y-84.5
X181.5Y-85.5
X181.5Y-86.5
X181.5Y-87.5
X182.95Y-99.1
X183.15Y-98.7
X183.3Y-91.7
X183.3Y-92.15
X183.3Y-96.75
X183.65Y-102.55
X184.075Y-102.225
X184.524Y-79.026
X185.3Y-76.35
X185.5Y-81.5
X185.5Y-82.5
X185.5Y-83.5
X185.5Y-84.5
X185.5Y-85.5
X185.5Y-86.5
X185.5Y-87.5
X186.1Y-73.0
X186.5Y-86.5
X186.5Y-87.5
X187.354Y-92.55
X187.5Y-81.5
X187.5Y-83.5
X187.5Y-85.5
X187.5Y-87.75
X187.95Y-97.9
X188.5Y-84.5
X189.5Y-80.5
X189.5Y-81.5
X189.5Y-82.5
X189.5Y-83.5
X189.76Y-111.45
X190.5Y-87.5
X190.5Y-89.5
X190.5Y-90.5
X190.5Y-91.5
X190.5Y-93.5
X191.5Y-89.5
X191.5Y-90.5
X191.5Y-91.5
X191.5Y-106.0
X192.5Y-76.0
X193.5Y-105.5
X194.5Y-79.0
X194.5Y-87.5
X194.5Y-88.5
X194.5Y-89.5
X194.5Y-90.5
X194.5Y-91.5
X194.5Y-92.5
X195.0Y-111.5
T6
X140.4Y-81.75
X140.4Y-84.25
X140.4Y-86.75
X140.4Y-89.25
X140.4Y-91.75
X140.4Y-94.25
X140.4Y-96.75
X140.4Y-99.25
X145.25Y-86.7
X145.25Y-89.2
X145.25Y-91.7
X145.25Y-94.2
X145.25Y-96.7
X145.25Y-99.2
X149.05Y-104.7
X149.05Y-109.35
X151.55Y-104.7
X151.55Y-109.35
X154.05Y-104.7
X154.05Y-109.35
X156.55Y-104.7
X156.55Y-109.35
T7
X140.8Y-103.75
X143.3Y-103.75
X156.01Y-72.0
X156.01Y-74.54
X156.01Y-77.08
X158.55Y-72.0
X158.55Y-74.54
X158.55Y-77.08
X162.3Y-106.85
X162.3Y-109.35
X167.0Y-106.85
X167.0Y-109.35
X173.235Y-72.04
X173.235Y-74.58
X173.235Y-77.12
X175.775Y-72.04
X175.775Y-74.58
X175.775Y-77.12
X191.07Y-72.0
X191.07Y-74.54
X191.07Y-77.08
X193.61Y-72.0
X193.61Y-74.54
X193.61Y-77.08
X193.8Y-101.46
X193.8Y-104.0
T8
X140.25Y-76.25
X140.5Y-109.0
X192.5Y-109.0
X192.75Y-82.5
X192.75Y-82.5
T5
G00X188.525Y-85.83
M15
G01X189.625Y-85.83
M16
G05
G00X188.525Y-94.47
M15
G01X189.625Y-94.47
M16
G05
G00X192.875Y-85.83
M15
G01X193.675Y-85.83
M16
G05
G00X192.875Y-94.47
M15
G01X193.675Y-94.47
M16
G05
M30
