%TF.GenerationSoftware,KiCad,Pcbnew,9.0.3*%
%TF.CreationDate,2025-08-23T19:54:00-03:00*%
%TF.ProjectId,TorqController,546f7271-436f-46e7-9472-6f6c6c65722e,rev?*%
%TF.SameCoordinates,Original*%
%TF.FileFunction,Soldermask,Bot*%
%TF.FilePolarity,Negative*%
%FSLAX46Y46*%
G04 Gerber Fmt 4.6, Leading zero omitted, Abs format (unit mm)*
G04 Created by KiCad (PCBNEW 9.0.3) date 2025-08-23 19:54:00*
%MOMM*%
%LPD*%
G01*
G04 APERTURE LIST*
G04 Aperture macros list*
%AMRoundRect*
0 Rectangle with rounded corners*
0 $1 Rounding radius*
0 $2 $3 $4 $5 $6 $7 $8 $9 X,Y pos of 4 corners*
0 Add a 4 corners polygon primitive as box body*
4,1,4,$2,$3,$4,$5,$6,$7,$8,$9,$2,$3,0*
0 Add four circle primitives for the rounded corners*
1,1,$1+$1,$2,$3*
1,1,$1+$1,$4,$5*
1,1,$1+$1,$6,$7*
1,1,$1+$1,$8,$9*
0 Add four rect primitives between the rounded corners*
20,1,$1+$1,$2,$3,$4,$5,0*
20,1,$1+$1,$4,$5,$6,$7,0*
20,1,$1+$1,$6,$7,$8,$9,0*
20,1,$1+$1,$8,$9,$2,$3,0*%
%AMFreePoly0*
4,1,23,0.550000,-0.750000,0.000000,-0.750000,0.000000,-0.745722,-0.065263,-0.745722,-0.191342,-0.711940,-0.304381,-0.646677,-0.396677,-0.554381,-0.461940,-0.441342,-0.495722,-0.315263,-0.495722,-0.250000,-0.500000,-0.250000,-0.500000,0.250000,-0.495722,0.250000,-0.495722,0.315263,-0.461940,0.441342,-0.396677,0.554381,-0.304381,0.646677,-0.191342,0.711940,-0.065263,0.745722,0.000000,0.745722,
0.000000,0.750000,0.550000,0.750000,0.550000,-0.750000,0.550000,-0.750000,$1*%
%AMFreePoly1*
4,1,23,0.000000,0.745722,0.065263,0.745722,0.191342,0.711940,0.304381,0.646677,0.396677,0.554381,0.461940,0.441342,0.495722,0.315263,0.495722,0.250000,0.500000,0.250000,0.500000,-0.250000,0.495722,-0.250000,0.495722,-0.315263,0.461940,-0.441342,0.396677,-0.554381,0.304381,-0.646677,0.191342,-0.711940,0.065263,-0.745722,0.000000,-0.745722,0.000000,-0.750000,-0.550000,-0.750000,
-0.550000,0.750000,0.000000,0.750000,0.000000,0.745722,0.000000,0.745722,$1*%
G04 Aperture macros list end*
%ADD10C,0.000000*%
%ADD11C,4.500000*%
%ADD12RoundRect,0.250000X-0.750000X0.600000X-0.750000X-0.600000X0.750000X-0.600000X0.750000X0.600000X0*%
%ADD13O,2.000000X1.700000*%
%ADD14RoundRect,0.250000X-0.600000X-0.725000X0.600000X-0.725000X0.600000X0.725000X-0.600000X0.725000X0*%
%ADD15O,1.700000X1.950000*%
%ADD16RoundRect,0.250000X-0.725000X0.600000X-0.725000X-0.600000X0.725000X-0.600000X0.725000X0.600000X0*%
%ADD17O,1.950000X1.700000*%
%ADD18RoundRect,0.250000X-0.600000X-0.750000X0.600000X-0.750000X0.600000X0.750000X-0.600000X0.750000X0*%
%ADD19O,1.700000X2.000000*%
%ADD20C,0.650000*%
%ADD21O,2.100000X1.000000*%
%ADD22O,1.800000X1.000000*%
%ADD23R,1.700000X1.700000*%
%ADD24C,1.700000*%
%ADD25FreePoly0,270.000000*%
%ADD26R,1.500000X1.000000*%
%ADD27FreePoly1,270.000000*%
G04 APERTURE END LIST*
D10*
%TO.C,S. Voltage*%
G36*
X150300000Y-100800000D02*
G01*
X148800000Y-100800000D01*
X148800000Y-99300000D01*
X150300000Y-99300000D01*
X150300000Y-100800000D01*
G37*
%TD*%
D11*
%TO.C,*%
X192500000Y-109000000D03*
%TD*%
%TO.C,*%
X192750000Y-82500000D03*
%TD*%
%TO.C,H4*%
X140500000Y-109000000D03*
%TD*%
D12*
%TO.C,J10*%
X162300000Y-106850000D03*
D13*
X162300000Y-109350000D03*
%TD*%
D12*
%TO.C,J9*%
X167000000Y-106850000D03*
D13*
X167000000Y-109350000D03*
%TD*%
D14*
%TO.C,J3*%
X149050000Y-109350000D03*
D15*
X151550000Y-109350000D03*
X154050000Y-109350000D03*
X156550000Y-109350000D03*
%TD*%
D16*
%TO.C,J4*%
X140400000Y-81750000D03*
D17*
X140400000Y-84250000D03*
X140400000Y-86750000D03*
X140400000Y-89250000D03*
X140400000Y-91750000D03*
X140400000Y-94250000D03*
X140400000Y-96750000D03*
X140400000Y-99250000D03*
%TD*%
D11*
%TO.C,*%
X192750000Y-82500000D03*
%TD*%
D16*
%TO.C,J5*%
X145250000Y-86700000D03*
D17*
X145250000Y-89200000D03*
X145250000Y-91700000D03*
X145250000Y-94200000D03*
X145250000Y-96700000D03*
X145250000Y-99200000D03*
%TD*%
D18*
%TO.C,J1*%
X140800000Y-103750000D03*
D19*
X143300000Y-103750000D03*
%TD*%
D11*
%TO.C,H2*%
X140250000Y-76250000D03*
%TD*%
D14*
%TO.C,J2*%
X149050000Y-104700000D03*
D15*
X151550000Y-104700000D03*
X154050000Y-104700000D03*
X156550000Y-104700000D03*
%TD*%
D20*
%TO.C,P1*%
X189595000Y-93040000D03*
X189595000Y-87260000D03*
D21*
X189075000Y-94470000D03*
D22*
X193275000Y-94470000D03*
D21*
X189075000Y-85830000D03*
D22*
X193275000Y-85830000D03*
%TD*%
D23*
%TO.C,J12*%
X158550000Y-72000000D03*
D24*
X156010000Y-72000000D03*
X158550000Y-74540000D03*
X156010000Y-74540000D03*
X158550000Y-77080000D03*
X156010000Y-77080000D03*
%TD*%
D23*
%TO.C,J8*%
X193800000Y-101460000D03*
D24*
X193800000Y-104000000D03*
%TD*%
D23*
%TO.C,J7*%
X175775000Y-72040000D03*
D24*
X173235000Y-72040000D03*
X175775000Y-74580000D03*
X173235000Y-74580000D03*
X175775000Y-77120000D03*
X173235000Y-77120000D03*
%TD*%
D23*
%TO.C,J6*%
X193610000Y-72000000D03*
D24*
X191070000Y-72000000D03*
X193610000Y-74540000D03*
X191070000Y-74540000D03*
X193610000Y-77080000D03*
X191070000Y-77080000D03*
%TD*%
D25*
%TO.C,S. Voltage*%
X149550000Y-98750000D03*
D26*
X149550000Y-100050000D03*
D27*
X149550000Y-101350000D03*
%TD*%
M02*
